<svg xmlns="http://www.w3.org/2000/svg" viewBox="0 0 1723.74 216"><defs><style>.cls-1{fill:#fff;}.cls-2{fill:#f24687;}</style></defs><g id="Layer_2" data-name="Layer 2"><g id="Layer_1-2" data-name="Layer 1"><path class="cls-1" d="M1367.11,0V145.89h26V26H1513V0ZM0,60v26H1513V60Z"/><polygon class="cls-2" points="1553.66 69.4 1508.67 145.89 1598.51 145.89 1553.66 69.4"/><path class="cls-1" d="M1501.47,145.89,1553.66,36.3l52.19,109.59h-23.48l-28.71-60-28.7,60Z"/><path class="cls-1" d="M1702.87,216l-35-72.72a54.81,54.81,0,0,1-17.12,2.61,50.29,50.29,0,0,1-36.94-15.25,50.29,50.29,0,0,1-15.25-36.94,50.3,50.3,0,0,1,15.25-36.94,52.39,52.39,0,0,1,73.88,0,50.34,50.34,0,0,1,15.25,36.94,50.19,50.19,0,0,1-15.17,36.86c-1.31,1.3-2.67,2.56-4.08,3.75l40.1,81.69Zm-45.49-91.64L1640.26,93.7h20.88l12.06,21.86A30.4,30.4,0,0,0,1682,93.7a31.31,31.31,0,1,0-62.62,0A31.19,31.19,0,0,0,1650.7,125,33.56,33.56,0,0,0,1657.38,124.36Z"/></g></g></svg>