<svg id="Layer_1" data-name="Layer 1" xmlns="http://www.w3.org/2000/svg" viewBox="0 0 689.87 100.64"><defs><style>.cls-1{fill:#ef4787;}.cls-2{fill:#fff;}</style></defs><ellipse class="cls-1" cx="312.72" cy="70.28" rx="17.84" ry="16.29"/><polyline class="cls-1" points="12.73 93.16 30.7 58.33 48.92 93.16"/><polyline class="cls-1" points="596.06 93.16 613.04 58.11 629.73 93.16"/><path class="cls-2" d="M7.82,93.16l22.88-48,22.87,48H43.28L30.7,66.85,18.11,93.16Z"/><path class="cls-2" d="M87,93.16,71.87,65.71h16a4.58,4.58,0,1,0,0-9.15H65v36.6H55.86V47.41h32a13.66,13.66,0,0,1,13.72,13.72A13.66,13.66,0,0,1,87.89,74.86h-2L96,93.16Z"/><path class="cls-2" d="M138.36,93.16h-32V47.41h32a22.81,22.81,0,0,1,22.87,22.87,22.81,22.81,0,0,1-22.87,22.88ZM115.48,84h22.88a13.66,13.66,0,0,0,13.72-13.73,13.66,13.66,0,0,0-13.72-13.72H115.48Z"/><path class="cls-2" d="M166,70.28V47.41h9.15V70.28a13.73,13.73,0,1,0,27.45,0V0h9.16V70.28a22.88,22.88,0,1,1-45.76,0Z"/><path class="cls-2" d="M228.65,93.16H219.5V47.41h9.15Z"/><path class="cls-2" d="M248,61.13v32H238.8V47.41H248l27.45,32v-32h9.15V93.16H275.4Z"/><path class="cls-2" d="M312.72,93.16a22.81,22.81,0,0,1-22.88-22.88,22.88,22.88,0,1,1,45.75,0,22.81,22.81,0,0,1-22.87,22.88Zm0-9.15a13.66,13.66,0,0,0,13.72-13.73A13.73,13.73,0,1,0,303,80,13.24,13.24,0,0,0,312.72,84Z"/><path class="cls-2" d="M353.89,56.56h-9.15V38.26h9.15Z"/><path class="cls-2" d="M418,93.16H363V84H418a4.58,4.58,0,1,0,0-9.15h-18.3a13.66,13.66,0,0,1-13.73-13.73,13.66,13.66,0,0,1,13.73-13.72H427.1v9.15H399.65a4.58,4.58,0,1,0,0,9.15H418a13.75,13.75,0,0,1,9.72,23.45A13.23,13.23,0,0,1,418,93.16Z"/><path class="cls-2" d="M504.88,56.56v36.6h-9.15V56.56H477.42V47.41h45.76v9.15Z"/><path class="cls-2" d="M559.35,93.16,544.27,65.71h16a4.58,4.58,0,1,0,0-9.15H537.4v36.6h-9.15V47.41h32A13.66,13.66,0,0,1,574,61.13a13.66,13.66,0,0,1-13.72,13.73h-2l10.15,18.3Z"/><path class="cls-2" d="M587.87,93.16h-9.15V47.41h9.15Z"/><path class="cls-2" d="M590.16,93.16l22.88-48,22.87,48H625.62L613,66.85,600.45,93.16Z"/><path class="cls-2" d="M647.35,84H684v9.15H638.2V0h9.15Z"/></svg>