<svg id="Layer_1" data-name="Layer 1" xmlns="http://www.w3.org/2000/svg" viewBox="0 0 501.4 132.7"><defs><style>.cls-1{fill:#ef4787;}.cls-2{fill:#fff;}</style></defs><polyline class="cls-1" points="80.98 89.63 103.75 44.66 125.25 89.63"/><path class="cls-2" d="M56,89.63H13.6V29.09H56A18.1,18.1,0,0,1,74.14,47.25,17.62,17.62,0,0,1,69.6,59.36a18.33,18.33,0,0,1-.76,25A17.52,17.52,0,0,1,56,89.63ZM25.71,77.52H56a6.06,6.06,0,1,0,0-12.11H40.85V53.3H56a6.05,6.05,0,1,0,0-12.1H25.71Z"/><path class="cls-2" d="M73.48,89.63l30.27-63.57L134,89.63H120.4L103.75,54.82,87.1,89.63Z"/><path class="cls-2" d="M209.69,89.63H137.05V77.52h72.64a6.06,6.06,0,1,0,0-12.11H185.48a18.1,18.1,0,0,1-18.17-18.16,18.1,18.1,0,0,1,18.17-18.16H221.8V41.2H185.48a6.05,6.05,0,1,0,0,12.1h24.21a18.08,18.08,0,0,1,18.16,18.17,18.08,18.08,0,0,1-18.16,18.16Z"/><path class="cls-2" d="M246.2,65.41v59.81H234.1V29.09h12.1V53.3h36.33V29.09h12.1V89.63h-12.1V65.41Z"/><path class="cls-2" d="M367.28,89.63H355.17V29.09h12.11Z"/><path class="cls-2" d="M410.32,41.2V89.63H398.21V41.2H374V29.09H517.73V41.2Z"/></svg>