<svg id="Layer_1" data-name="Layer 1" xmlns="http://www.w3.org/2000/svg" viewBox="0 0 843.57 145.89"><defs><style>.cls-1{fill:#ef4787;}.cls-2{fill:#fff;}</style></defs><polyline class="cls-1" points="133.54 80.72 151.59 45.56 170.03 80.72"/><rect class="cls-1" x="362.87" y="39.45" width="41.64" height="41.26"/><rect class="cls-1" x="652.17" y="39.45" width="39.95" height="41.26"/><path class="cls-2" d="M42.36,80.71H10.62V35.38H42.36A13.52,13.52,0,0,1,56,49,13.17,13.17,0,0,1,52.56,58,13.75,13.75,0,0,1,52,76.75,13.15,13.15,0,0,1,42.36,80.71ZM19.69,71.65H42.36a4.54,4.54,0,1,0,0-9.07H31V53.51H42.36a4.54,4.54,0,1,0,0-9.07H19.69Z"/><path class="cls-2" d="M107.68,35.38v9.06H71.41V71.65h36.27v9.06H62.34V35.38Zm27.2,27.2H82.74V53.51h52.14Z"/><path class="cls-2" d="M129,80.71l22.67-47.6,22.67,47.6h-10.2L151.67,54.64,139.2,80.71Z"/><path class="cls-2" d="M189.92,44.44V135h-9.06V44.44H162.72V35.38h45.34v9.06Z"/><path class="cls-2" d="M280.6,44.44V98.85h-9.06V44.44H253.4V35.38h45.34v9.06Z"/><path class="cls-2" d="M312.84,62.58V80.71h-9.07V35.38h9.07V53.51H340V35.38h9.07V80.71H340V62.58Z"/><path class="cls-2" d="M404.51,35.38v9.06H368.23V71.65h36.28v9.06H359.17V35.38Zm27.2,27.2H379.57V53.51h52.14Z"/><path class="cls-2" d="M531.46,80.71H425.56V71.65h105.9a4.54,4.54,0,1,0,0-9.07H513.32A13.55,13.55,0,0,1,499.72,49a13.54,13.54,0,0,1,13.6-13.6h27.2v9.06h-27.2a4.54,4.54,0,1,0,0,9.07h18.14a13.55,13.55,0,0,1,13.6,13.6,13.54,13.54,0,0,1-13.6,13.6Z"/><path class="cls-2" d="M573.61,44.44V98.85h-9.07V44.44H546.4V35.38h45.34v9.06Z"/><path class="cls-2" d="M605.84,80.71h-9.07V35.38h31.74A13.54,13.54,0,0,1,642.11,49a13.55,13.55,0,0,1-13.6,13.6h-2l20.12,36.27h-9.06L612.64,53.51h15.87a4.54,4.54,0,1,0,0-9.07H605.84Z"/><path class="cls-2" d="M692.13,35.38v9.06H655.85V71.65h36.28v9.06H646.79V35.38Zm27.2,27.2H667.19V53.51h52.14Z"/><path class="cls-2" d="M769.63,35.38v9.06H733.35V71.65h36.28v9.06H724.29V35.38Zm27.2,27.2H744.69V53.51h52.14Z"/><path class="cls-2" d="M812.42,44.44V135h-9.07V44.44H785.21V35.38h45.34v9.06Z"/></svg>