<svg id="Layer_1" data-name="Layer 1" xmlns="http://www.w3.org/2000/svg" viewBox="0 0 862.29 163.3"><defs><style>.cls-1{fill:#ef4787;}.cls-2{fill:#fff;}</style></defs><rect class="cls-1" x="299.04" y="65.81" width="44.93" height="33.46"/><rect class="cls-1" x="742.2" y="65.81" width="38.22" height="38.22"/><path class="cls-2" d="M85.14,108.79H51.83V61.2H85.14A14.33,14.33,0,0,1,95.84,85a14.3,14.3,0,0,1-10.7,23.8Zm-23.8-9.52h23.8a4.76,4.76,0,1,0,0-9.52H73.24V80.24h11.9a4.76,4.76,0,1,0,0-9.52H61.34Z"/><path class="cls-2" d="M104.92,85V61.2h9.51V85A14.28,14.28,0,1,0,143,85V6.31h9.52V85a23.82,23.82,0,0,1-40.63,16.85A22.93,22.93,0,0,1,104.92,85Z"/><path class="cls-2" d="M170.35,108.79h-9.52V61.2h9.52Z"/><path class="cls-2" d="M190.42,99.27h38.07v9.52H180.91V61.2h9.51Z"/><path class="cls-2" d="M267.08,108.79H233.77V61.2h33.31A23.73,23.73,0,0,1,290.87,85a23.73,23.73,0,0,1-23.79,23.8Zm-23.79-9.52h23.79a14.3,14.3,0,0,0,10.11-24.39,13.77,13.77,0,0,0-10.11-4.16H243.29Z"/><path class="cls-2" d="M344,61.2v9.52H305.89V99.27H344v9.52H296.38V61.2Zm28.56,28.55H317.79V80.24h54.73Z"/><path class="cls-2" d="M387.24,108.79h-9.52V61.2H411a14.22,14.22,0,0,1,14.28,14.28A14.22,14.22,0,0,1,411,89.75H409l21.11,38.07h-9.51L394.38,80.24H411a4.76,4.76,0,1,0,0-9.52H387.24Z"/><path class="cls-2" d="M511,108.79H477.65V61.2H511a14.22,14.22,0,0,1,14.28,14.28A13.82,13.82,0,0,1,521.67,85,14.3,14.3,0,0,1,511,108.79Zm-23.79-9.52H511a4.76,4.76,0,1,0,0-9.52H499.07V80.24H511a4.76,4.76,0,1,0,0-9.52H487.17Z"/><path class="cls-2" d="M541.45,108.79h-9.52V61.2h33.31a14.22,14.22,0,0,1,14.28,14.28,14.22,14.22,0,0,1-14.28,14.27h-2.08l21.12,38.07h-9.52L548.59,80.24h16.65a4.76,4.76,0,1,0,0-9.52H541.45Z"/><path class="cls-2" d="M593.94,108.79h-9.52V61.2h9.52Z"/><path class="cls-2" d="M637.81,108.79H604.5V61.2h33.31A23.73,23.73,0,0,1,661.6,85a23.73,23.73,0,0,1-23.79,23.8ZM614,99.27h23.79a14.3,14.3,0,0,0,10.11-24.39,13.77,13.77,0,0,0-10.11-4.16H614Z"/><path class="cls-2" d="M689.86,61.2h38.07l-4.76,9.52H689.86a14.3,14.3,0,0,0-10.11,24.39,13.77,13.77,0,0,0,10.11,4.16h24.31l-5.28-9.52h-19V80.24h23.79l28.55,52.34h-9.51l-13.24-23.79H689.86A23.73,23.73,0,0,1,666.07,85,23.73,23.73,0,0,1,689.86,61.2Z"/><path class="cls-2" d="M780.42,61.2v9.52H742.35V99.27h38.07v9.52H732.84V61.2Zm63.44,28.55H754.25V80.24h89.61Z"/></svg>