<svg id="Layer_1" data-name="Layer 1" xmlns="http://www.w3.org/2000/svg" viewBox="0 0 679.79 124.86"><defs><style>.cls-1{fill:#ef4787;}.cls-2{fill:#fff;}</style></defs><rect class="cls-1" x="131.21" y="23.88" width="37.5" height="37.5"/><rect class="cls-1" x="453.81" y="27.49" width="32.01" height="33.89"/><polyline class="cls-1" points="595.89 61.38 609.63 32.84 623.68 61.38"/><rect class="cls-1" x="272.92" y="26.67" width="35.12" height="31.51"/><path class="cls-2" d="M29.14,53.88H47.89v7.5H29.14A18.07,18.07,0,0,1,15.87,55.9a18,18,0,0,1-5.48-13.27,18,18,0,0,1,5.48-13.27,18,18,0,0,1,13.27-5.48H47.89v7.5H29.14A11.2,11.2,0,0,0,17.89,42.63,11.2,11.2,0,0,0,29.14,53.88Z"/><path class="cls-2" d="M64.29,43.8l-15-19.92h9.38L68,36.36l9.38-12.48h9.37l-15,19.86V61.38h-7.5Z"/><path class="cls-2" d="M114.68,61.38H88.43V23.88h26.25a11.2,11.2,0,0,1,11.25,11.25,10.89,10.89,0,0,1-2.81,7.5,11.37,11.37,0,0,1-.47,15.47A10.88,10.88,0,0,1,114.68,61.38Zm-18.75-7.5h18.75a3.75,3.75,0,1,0,0-7.5h-9.37v-7.5h9.37a3.75,3.75,0,1,0,0-7.5H95.93Z"/><path class="cls-2" d="M168.71,23.88v7.5h-30v22.5h30v7.5h-37.5V23.88Zm0,22.5H148.08v-7.5h20.63Z"/><path class="cls-2" d="M201.28,61.38l-12.36-22.5h13.13a3.75,3.75,0,1,0,0-7.5H183.3v83.9h-7.5V23.88h26.25A11.2,11.2,0,0,1,213.3,35.13a11.2,11.2,0,0,1-11.25,11.25h-1.64l8.32,15Z"/><path class="cls-2" d="M255.43,61.38h-45v-7.5h45a3.59,3.59,0,0,0,2.66-1.09,3.75,3.75,0,0,0-2.66-6.41h-15a11.2,11.2,0,0,1-11.25-11.25,11.2,11.2,0,0,1,11.25-11.25h22.5v7.5h-22.5a3.75,3.75,0,1,0,0,7.5h15a11.22,11.22,0,0,1,11.25,11.25,11.22,11.22,0,0,1-11.25,11.25Z"/><path class="cls-2" d="M308,23.88v7.5H278v22.5h30v7.5h-37.5V23.88Zm0,22.5H287.42v-7.5H308Z"/><path class="cls-2" d="M330.19,53.88h18.75v7.5H330.19a18.71,18.71,0,0,1-18.75-18.75,18.71,18.71,0,0,1,18.75-18.75h18.75v7.5H330.19a11.2,11.2,0,0,0-11.25,11.25,11.2,11.2,0,0,0,11.25,11.25Z"/><path class="cls-2" d="M416.44,39.64,405.19,63.25,386.44,23.88h8.44l10.31,21.56,7-14.71L416.44,22l4.22,8.73,7,14.71L438,23.88h8.44L427.69,63.25Z"/><path class="cls-2" d="M485.82,23.88v7.5h-30v22.5h30v7.5h-37.5V23.88Zm0,22.5H465.19v-7.5h20.63Z"/><path class="cls-2" d="M519.16,61.38H492.91V23.88h26.25a11.22,11.22,0,0,1,11.25,11.25,10.9,10.9,0,0,1-2.82,7.5,11.34,11.34,0,0,1-.47,15.47A10.85,10.85,0,0,1,519.16,61.38Zm-18.75-7.5h18.75a3.59,3.59,0,0,0,2.66-1.09,3.75,3.75,0,0,0-2.66-6.41h-9.38v-7.5h9.38a3.59,3.59,0,0,0,2.66-1.09,3.75,3.75,0,0,0-2.66-6.41H500.41Z"/><path class="cls-2" d="M543.18,115.28h-7.5V23.88h7.5Z"/><path class="cls-2" d="M559,35.13V61.38h-7.5V23.88H559l22.5,26.25V23.88H589v37.5h-7.5Z"/><path class="cls-2" d="M590.87,61.38,609.62,22l18.75,39.38h-8.43L609.62,39.81,599.31,61.38Z"/><path class="cls-2" d="M655.74,61.38l-12.37-22.5H656.5a3.75,3.75,0,1,0,0-7.5H637.75v30h-7.5V23.88H656.5a11.2,11.2,0,0,1,11.25,11.25A11.2,11.2,0,0,1,656.5,46.38h-1.64l8.32,15Z"/></svg>