<svg xmlns="http://www.w3.org/2000/svg" viewBox="0 0 1030.25 228.14"><defs><style>.cls-1{fill:#f24687;}.cls-2{fill:#fff;}</style></defs><g id="Layer_2" data-name="Layer 2"><g id="Layer_1-2" data-name="Layer 1"><polygon class="cls-1" points="590.55 149.83 563.61 200.24 618.76 200.24 590.55 149.83"/><path class="cls-2" d="M69.73,130.51v14H14V186.3H69.73v13.94H0V130.51Zm0,41.84H31.38V158.4H69.73Z"/><path class="cls-2" d="M73.11,130.51H88.8L108,170.61l19.17-40.1h15.69L108,203.73Z"/><path class="cls-2" d="M216.06,130.51v14H160.28V186.3h55.78v13.94H146.33V130.51Zm41.84,41.84H177.71V158.4H257.9Z"/><path class="cls-2" d="M279.48,151.43v76.71h-14V130.51h14l41.83,48.81V0h13.95V200.24H321.31Z"/><path class="cls-2" d="M384.84,144.46v83.68H370.89V144.46H343v-14h69.73v14Z"/><path class="cls-2" d="M496.41,151.43v48.81h-14V130.51h14l41.84,48.81V130.51h13.94v69.73H538.25Z"/><path class="cls-2" d="M555.68,200.24,590.55,127l34.86,73.22H609.72l-19.17-40.09-19.18,40.09Z"/><path class="cls-2" d="M643.5,158.4v69.74h-14V130.51h14l27.89,52.3,27.9-52.3h13.94v69.73H699.29V158.4l-20.92,41.84h-14Z"/><path class="cls-2" d="M798.44,130.51v14H742.65V186.3h55.79v13.94H728.7V130.51Zm231.81,41.84H760.08V158.4h270.17Z"/></g></g></svg>