<svg id="Layer_1" data-name="Layer 1" xmlns="http://www.w3.org/2000/svg" viewBox="0 0 560.39 148.11"><defs><style>.cls-1{fill:#ef4787;}.cls-2{fill:#fff;}</style></defs><rect class="cls-1" x="16.63" y="63.95" width="52.69" height="52.69"/><path class="cls-2" d="M11.48,58.47H69.32V70H23.05v69.4H11.48Zm57.84,34.7H37.51V81.6H69.32Z"/><path class="cls-2" d="M89.75,116.31H78.18V58.47H89.75Z"/><path class="cls-2" d="M121.46,70H96V58.47h43.38l-25.49,46.27H177v11.57H96Z"/><path class="cls-2" d="M205.15,70H179.66V58.47H223l-25.48,46.27h63.08v11.57h-81Z"/><path class="cls-2" d="M307.54,116.31H267.05V58.47h40.49a17.28,17.28,0,0,1,17.35,17.35,16.86,16.86,0,0,1-4.34,11.57,17.37,17.37,0,0,1-13,28.92Zm-28.92-11.57h28.92a5.79,5.79,0,1,0,0-11.57H293.08V81.6h14.46a5.78,5.78,0,1,0,0-11.56H278.62Z"/><path class="cls-2" d="M331.58,87.39V58.47h11.56V87.39a17.36,17.36,0,1,0,34.71,0V0h11.56V87.39a28.92,28.92,0,1,1-57.83,0Z"/><path class="cls-2" d="M421.22,70H395.74V58.47h43.38l-25.49,46.27h63.08v11.57h-81Z"/><path class="cls-2" d="M504.91,70H479.42V58.47H522.8l-25.49,46.27h63.08v11.57h-81Z"/></svg>