<svg id="Layer_1" data-name="Layer 1" xmlns="http://www.w3.org/2000/svg" viewBox="0 0 712.79 159.41"><defs><style>.cls-1{fill:#ef4787;}.cls-2{fill:#fff;}</style></defs><polyline class="cls-1" points="60.2 104.67 85.72 63.83 111.24 104.67"/><circle class="cls-1" cx="244.98" cy="77.87" r="17.94"/><circle class="cls-1" cx="600.99" cy="79.15" r="18.06"/><rect class="cls-1" x="326.67" y="59.93" width="44.96" height="44.74"/><path class="cls-2" d="M16.82,84.25v20.42H6.61v-51H16.82V74H47.44V53.63H57.65v51H47.44V84.25Z"/><path class="cls-2" d="M60.2,104.67l25.52-53.6,25.52,53.6H99.76l-14-29.35-14,29.35Z"/><path class="cls-2" d="M133.17,94.46H168.9v10.21H133.17a25.45,25.45,0,0,1-25.51-25.53,25.44,25.44,0,0,1,25.51-25.51H174l-5.11,10.2H133.17a15.26,15.26,0,0,0-15.31,15.31,15.26,15.26,0,0,0,15.31,15.32Z"/><path class="cls-2" d="M187.41,86.4v73H177.2V53.63h10.21V71.89l25.51-18.26h15.32L192.51,79.14l35.73,25.53H212.92Z"/><path class="cls-2" d="M245,104.67a25.47,25.47,0,0,1-25.52-25.53,25.52,25.52,0,1,1,51,0A25.45,25.45,0,0,1,245,104.67Zm0-10.21A15.26,15.26,0,0,0,260.3,79.14,15.32,15.32,0,1,0,234.14,90,14.76,14.76,0,0,0,245,94.46Z"/><path class="cls-2" d="M267,53.63h11.48l14,29.34,14-29.34H318l-25.52,53.59Z"/><path class="cls-2" d="M371.63,53.63v10.2H330.8V94.46h40.83v10.21h-51v-51Zm30.62,30.62H343.56V74h58.69Z"/><path class="cls-2" d="M418,104.67H407.83v-51h35.73a15.23,15.23,0,0,1,15.31,15.31,15.24,15.24,0,0,1-15.31,15.31h-2.23L464,125.08H453.77L425.7,74h17.86a5.11,5.11,0,1,0,0-10.21H418Z"/><path class="cls-2" d="M467.89,53.63h51v10.2H478.09v61.25h-10.2Zm51,30.62H490.85V74h28.08Z"/><path class="cls-2" d="M537,94.46h40.83v10.21h-51V0H537Z"/><path class="cls-2" d="M601,104.67a25.47,25.47,0,0,1-25.52-25.53,25.52,25.52,0,1,1,51,0A25.47,25.47,0,0,1,601,104.67Zm0-10.21A15.26,15.26,0,0,0,616.3,79.14,15.31,15.31,0,1,0,590.14,90,14.78,14.78,0,0,0,601,94.46Z"/><path class="cls-2" d="M663.83,75.08l-15.31,32.14L623,53.63h11.48l14,29.34,9.57-20,5.74-11.89L669.57,63l9.57,20,14-29.34h11.49l-25.53,53.59Z"/></svg>