<svg id="Layer_1" data-name="Layer 1" xmlns="http://www.w3.org/2000/svg" viewBox="0 0 823.34 109.38"><defs><style>.cls-1{fill:#ef4787;}.cls-2{fill:#fff;}</style></defs><polyline class="cls-1" points="87.73 72.95 101.47 31.37 115.21 72.95"/><rect class="cls-1" x="415.35" y="27.98" width="42.04" height="44.97"/><rect class="cls-1" x="734.31" y="27.98" width="45.59" height="34.97"/><path class="cls-2" d="M34,53V73H24V23H34V43H64V23H74V73H64V53Z"/><path class="cls-2" d="M76.49,73l25-52.45,25,52.45H115.21L101.47,44.22,87.73,73Z"/><path class="cls-2" d="M147.91,63h35V73h-35a24.07,24.07,0,0,1-17.68-7.3A24.11,24.11,0,0,1,122.93,48a24.11,24.11,0,0,1,7.3-17.68A24.11,24.11,0,0,1,147.91,23h40l-5,10h-35a14.94,14.94,0,0,0-15,15,14.92,14.92,0,0,0,15,15Z"/><path class="cls-2" d="M201,55.07V73H191V23h10V40.87L226,23h15L206,48l35,25H226Z"/><path class="cls-2" d="M320.87,33v60h-10V33h-20V23h50V33Z"/><path class="cls-2" d="M356.39,53V73h-10V23h10V43h30V23h10V73h-10V53Z"/><path class="cls-2" d="M457.39,23V33h-40V63h40V73h-50V23Zm30,30H429.91V43h57.45Z"/><path class="cls-2" d="M562.29,23h40l-5,10h-35a14.94,14.94,0,0,0-15,15,14.92,14.92,0,0,0,15,15h25.52l-5.54-10h-20V43h25l30,54.94h-10l-13.9-25H562.29a24.06,24.06,0,0,1-17.68-7.3A24.07,24.07,0,0,1,537.31,48a24.07,24.07,0,0,1,7.3-17.68A24.09,24.09,0,0,1,562.29,23Z"/><path class="cls-2" d="M606,73,631,20.5,656,73H644.71L631,44.22,617.24,73Z"/><path class="cls-2" d="M668.91,43v50h-10V23h10l20,37.47,20-37.47h10V73h-10V43l-15,30h-10Z"/><path class="cls-2" d="M779.9,23V33h-40V63h40V73h-50V23Zm30,30H752.42V43h57.45Z"/></svg>