<svg id="Layer_1" data-name="Layer 1" xmlns="http://www.w3.org/2000/svg" viewBox="0 0 621.91 148.32"><defs><style>.cls-1{fill:#ef4787;}.cls-2{fill:#fff;}</style></defs><circle class="cls-1" cx="86.81" cy="75.94" r="17.91"/><rect class="cls-1" x="553.78" y="51.3" width="59.15" height="49.29"/><rect class="cls-1" x="172.06" y="51.3" width="45.76" height="45.76"/><path class="cls-2" d="M22,90.73H61.39v9.86H12.09V51.3H22Z"/><path class="cls-2" d="M83.8,100.59A24.58,24.58,0,0,1,59.15,76,24.58,24.58,0,0,1,83.8,51.3,24.6,24.6,0,0,1,108.45,76,24.6,24.6,0,0,1,83.8,100.59Zm0-9.86A14.73,14.73,0,0,0,98.59,76,14.82,14.82,0,0,0,73.32,65.47a14.88,14.88,0,0,0,0,21A14.26,14.26,0,0,0,83.8,90.73Z"/><path class="cls-2" d="M124,100.59h-9.85V51.3h34.5a14.73,14.73,0,0,1,14.79,14.79,14.73,14.73,0,0,1-14.79,14.78h-2.16l21.88,39.44h-9.86L131.4,71h17.25a4.93,4.93,0,1,0,0-9.86H124Z"/><path class="cls-2" d="M217.81,51.3v9.86H178.38V90.73h39.43v9.86H168.52V51.3Zm29.58,29.57H190.7V71h56.69Z"/><path class="cls-2" d="M262.64,71v77.3h-9.86v-97h9.86l19.72,37,19.72-37h9.85v49.29h-9.85V71l-14.79,29.57h-9.86Z"/><path class="cls-2" d="M371.09,100.59h-9.86V51.3h9.86Z"/><path class="cls-2" d="M392,120.31H382.1v-69h34.5a14.72,14.72,0,0,1,14.79,14.79A14.72,14.72,0,0,1,416.6,80.87H404.28V71H416.6a4.93,4.93,0,1,0,0-9.86H392Z"/><path class="cls-2" d="M477.91,100.59H418.76V90.73h59.15a4.93,4.93,0,1,0,0-9.86H458.2a14.72,14.72,0,0,1-14.79-14.78A14.72,14.72,0,0,1,458.2,51.3h29.57v9.86H458.2a4.93,4.93,0,1,0,0,9.86h19.71a14.81,14.81,0,0,1,10.48,25.26A14.26,14.26,0,0,1,477.91,100.59Z"/><path class="cls-2" d="M495.86,76V51.3h9.86V76a14.79,14.79,0,1,0,29.57,0V0h9.86V76a24.65,24.65,0,1,1-49.29,0Z"/><path class="cls-2" d="M563.64,71v77.3h-9.86v-97h9.86l19.71,37,19.72-37h9.86v49.29h-9.86V71l-14.79,29.57h-9.85Z"/></svg>