<svg id="Layer_1" data-name="Layer 1" xmlns="http://www.w3.org/2000/svg" viewBox="0 0 959.25 150.71"><defs><style>.cls-1{fill:#ef4787;}.cls-2{fill:#fff;}</style></defs><polyline class="cls-1" points="147.63 84.06 167.06 49.29 191.5 85.37"/><circle class="cls-1" cx="742.06" cy="56.92" r="20.43"/><rect class="cls-1" x="426.91" y="36.49" width="48.88" height="48.88"/><path class="cls-2" d="M47.44,85.37H37.67V36.49H71.89A14.61,14.61,0,0,1,86.55,51.16,14.61,14.61,0,0,1,71.89,65.82H59.67V56H71.89a4.89,4.89,0,1,0,0-9.77H47.44Z"/><path class="cls-2" d="M101.06,75.6h39.11v9.77H91.29V36.49h9.77Z"/><path class="cls-2" d="M142.62,85.37,167.06,34,191.5,85.37h-11l-13.44-28.1-13.44,28.1Z"/><path class="cls-2" d="M198.53,62.46,179,36.49H191.2l12.22,16.27,12.22-16.27h12.22L208.3,62.38v69.24h-9.77Z"/><path class="cls-2" d="M315.85,57,301.18,87.82,276.74,36.49h11L301.18,64.6l9.17-19.17L315.85,34l5.5,11.39,9.17,19.17L344,36.49h11L330.52,87.82Z"/><path class="cls-2" d="M367.18,85.37H357.4V36.49h9.78Z"/><path class="cls-2" d="M401.93,46.27v85.35h-9.77V46.27H372.6V36.49h48.89v9.78Z"/><path class="cls-2" d="M436.69,65.82V85.37h-9.78V36.49h9.78V56H466V36.49h9.77V85.37H466V65.82Z"/><path class="cls-2" d="M534.46,56V85.37h-9.78V36.49h9.78L554,73.15l19.55-36.66h9.78V85.37h-9.78V56L558.9,85.37h-9.78Z"/><path class="cls-2" d="M604,131.62h-9.77V36.49H604Z"/><path class="cls-2" d="M634.06,75.6H658.5v9.77H634.06a24.38,24.38,0,0,1-24.44-24.44,24.38,24.38,0,0,1,24.44-24.44H658.5v9.78H634.06a14.6,14.6,0,0,0-14.67,14.66A14.61,14.61,0,0,0,634.06,75.6Z"/><path class="cls-2" d="M698.83,85.37,682.71,56h17.11a4.89,4.89,0,1,0,0-9.77H675.38v39.1H665.6V36.49h34.22a14.61,14.61,0,0,1,14.67,14.67,14.61,14.61,0,0,1-14.67,14.66h-2.14l10.85,19.55Z"/><path class="cls-2" d="M742.06,85.37a24.38,24.38,0,0,1-24.44-24.44,24.44,24.44,0,1,1,48.88,0,24.38,24.38,0,0,1-24.44,24.44Zm0-9.77a14.61,14.61,0,0,0,14.67-14.67,14.67,14.67,0,1,0-25.06,10.39A14.16,14.16,0,0,0,742.06,75.6Z"/><path class="cls-2" d="M782.39,58.49a6.11,6.11,0,0,1,0-12.22,6.11,6.11,0,0,1,0,12.22Zm0,26.88a6.1,6.1,0,1,1,6.11-6.11,6.11,6.11,0,0,1-6.11,6.11Z"/><path class="cls-2" d="M832.5,85.37H798.28V36.49H832.5a14.6,14.6,0,0,1,14.66,14.67,14.24,14.24,0,0,1-3.66,9.77,14.83,14.83,0,0,1-.61,20.17A14.17,14.17,0,0,1,832.5,85.37ZM808.05,75.6H832.5a4.85,4.85,0,0,0,4.89-4.89,4.83,4.83,0,0,0-4.89-4.89H820.28V56H832.5a4.89,4.89,0,1,0,0-9.77H808.05Z"/><path class="cls-2" d="M863.81,85.37H854V36.49h9.77Z"/><path class="cls-2" d="M898.57,46.27v39.1h-9.78V46.27H869.24V36.49H966v9.78Z"/></svg>