<svg id="Layer_1" data-name="Layer 1" xmlns="http://www.w3.org/2000/svg" viewBox="0 0 728.01 205.49"><defs><style>.cls-1{fill:#ef4787;}.cls-2{fill:#fff;}</style></defs><polyline class="cls-1" points="84.14 82.34 94.9 48.99 105.66 82.34"/><polyline class="cls-1" points="328.08 82.34 337.43 54.36 349.59 82.34"/><rect class="cls-1" x="536.31" y="48.99" width="33.44" height="33.35"/><rect class="cls-1" x="600.97" y="48.99" width="35.65" height="33.35"/><circle class="cls-1" cx="314.4" cy="138.94" r="12.79"/><circle class="cls-1" cx="397.27" cy="137.89" r="14.36"/><path class="cls-2" d="M34.27,58.87V82.34H26.44V43.22h7.83L49.91,72.56,65.56,43.22h7.82V82.34H65.56V58.87L53.82,82.34H46Z"/><path class="cls-2" d="M75.34,82.34,94.9,41.27l19.56,41.07h-8.8L94.9,59.85,84.14,82.34Z"/><path class="cls-2" d="M124.24,68.34v14h-7.83V43.22h7.83v14l19.55-14h11.74L128.15,62.78l27.38,19.56H143.79Z"/><path class="cls-2" d="M165.19,82.34h-7.83V43.22h7.83Z"/><path class="cls-2" d="M181.75,55V98h-7.82V43.22h7.82l23.47,27.39V0h7.83V82.34h-7.83Z"/><path class="cls-2" d="M237.13,43.22h31.29l-3.91,7.83H237.13a11.75,11.75,0,0,0-8.32,20,11.32,11.32,0,0,0,8.32,3.43h20l-4.34-7.83H237.13V58.87h19.56l23.47,43h-7.83L261.45,82.34H237.13a19.5,19.5,0,0,1-19.56-19.56,19.51,19.51,0,0,1,19.56-19.56Z"/><path class="cls-2" d="M319.27,82.34l19.56-41.07,19.56,41.07h-8.8L338.83,59.85,328.08,82.34Z"/><path class="cls-2" d="M417.07,74.52h27.38v7.82H417.07a19.5,19.5,0,0,1-19.56-19.56,19.51,19.51,0,0,1,19.56-19.56h31.29l-3.91,7.83H417.07a11.75,11.75,0,0,0-8.31,20A11.28,11.28,0,0,0,417.07,74.52Z"/><path class="cls-2" d="M446.41,82.34,466,41.27l19.55,41.07h-8.8L466,59.85,455.21,82.34Z"/><path class="cls-2" d="M495.3,82.34h-7.82V43.22h27.38A11.69,11.69,0,0,1,526.6,55a11.68,11.68,0,0,1-11.74,11.73h-1.71L530.51,98h-7.82L501.17,58.87h13.69a3.92,3.92,0,0,0,2.78-6.69,3.75,3.75,0,0,0-2.78-1.13H495.3Z"/><path class="cls-2" d="M569.75,43.22v7.83H538.46V74.52h31.29v7.82H530.63V43.22Zm23.47,23.47h-45V58.87h45Z"/><path class="cls-2" d="M636.62,43.22v7.83h-31.3V74.52h31.3v7.82H597.5V43.22Zm23.47,23.47h-45V58.87h45Z"/><path class="cls-2" d="M672.19,82.34h-7.82V43.22h27.38A11.69,11.69,0,0,1,703.48,55a11.68,11.68,0,0,1-11.73,11.73H690L707.4,98h-7.83L678.06,58.87h13.69a3.93,3.93,0,0,0,2.78-6.69,3.75,3.75,0,0,0-2.78-1.13H672.19Z"/><path class="cls-2" d="M165.19,157.45h-7.83V118.33h7.83Z"/><path class="cls-2" d="M181.75,130.06v75.43h-7.82V118.33h7.82l23.47,27.38V98.77h7.83v58.68h-7.83Z"/><path class="cls-2" d="M278.75,157.45,265.85,134h13.7a3.92,3.92,0,1,0,0-7.83H260v31.3h-7.83V118.33h27.39a11.74,11.74,0,1,1,0,23.47h-1.72l8.68,15.65Z"/><path class="cls-2" d="M313.35,157.45A19.59,19.59,0,0,1,299.5,124a19.58,19.58,0,0,1,27.69,27.69A18.87,18.87,0,0,1,313.35,157.45Zm0-7.83A11.68,11.68,0,1,0,305,146.2,11.33,11.33,0,0,0,313.35,149.62Z"/><path class="cls-2" d="M364.81,157.45H337.43V118.33h27.38a11.78,11.78,0,0,1,8.8,19.56,11.75,11.75,0,0,1-8.8,19.56Zm-19.56-7.83h19.56a3.75,3.75,0,0,0,2.78-1.13,3.91,3.91,0,0,0-2.78-6.69H355V134h9.78a3.79,3.79,0,0,0,2.78-1.13,4,4,0,0,0,0-5.57,3.79,3.79,0,0,0-2.78-1.13H345.25Z"/><path class="cls-2" d="M399.89,157.45A19.58,19.58,0,0,1,386.05,124a19.58,19.58,0,0,1,27.69,27.69A18.87,18.87,0,0,1,399.89,157.45Zm0-7.83a11.68,11.68,0,1,0-8.31-3.42A11.35,11.35,0,0,0,399.89,149.62Z"/><path class="cls-2" d="M441.27,126.15v79.34h-7.82V126.15H417.8v-7.82h39.12v7.82Z"/><path class="cls-2" d="M469.08,157.45h-7.82V118.33h7.82Z"/><path class="cls-2" d="M493.16,149.62h19.56v7.83H493.16A19.59,19.59,0,0,1,479.32,124a18.84,18.84,0,0,1,13.84-5.71h19.56v7.82H493.16a11.74,11.74,0,1,0,0,23.47Z"/><path class="cls-2" d="M564.74,157.45H517.8v-7.83h46.94a3.86,3.86,0,0,0,3.91-3.91,3.86,3.86,0,0,0-3.91-3.91H549.09a11.74,11.74,0,1,1,0-23.47h23.47v7.82H549.09a3.86,3.86,0,0,0-3.91,3.91,3.82,3.82,0,0,0,1.13,2.79,3.79,3.79,0,0,0,2.78,1.13h15.65a11.74,11.74,0,1,1,0,23.47Z"/></svg>