<svg id="Layer_1" data-name="Layer 1" xmlns="http://www.w3.org/2000/svg" viewBox="0 0 823.67 163.32"><defs><style>.cls-1{fill:#ef4787;}.cls-2{fill:#fff;}</style></defs><rect class="cls-1" x="529.68" y="63.67" width="43.94" height="36.55"/><circle class="cls-1" cx="135.57" cy="80.64" r="20.9"/><polyline class="cls-1" points="414.33 105.48 432.55 70.34 449.25 105.48"/><path class="cls-2" d="M94.84,105.48H0V96H94.84a4.73,4.73,0,1,0,0-9.46H75.91A14.14,14.14,0,0,1,61.72,72.36a14.14,14.14,0,0,1,14.19-14.2H104.3v9.46H75.91a4.74,4.74,0,1,0,0,9.47H94.84a14.22,14.22,0,0,1,10,24.25A13.68,13.68,0,0,1,94.84,105.48Z"/><path class="cls-2" d="M150.51,100.23,164,124.4H154.5l-11.16-20.11a24.89,24.89,0,0,1-7.77,1.19,23.59,23.59,0,0,1-23.65-23.66,23.68,23.68,0,0,1,40.4-16.75,23.76,23.76,0,0,1,0,33.46C151.76,99.12,151.15,99.69,150.51,100.23ZM138.6,95.72l-7.76-13.9h9.47l5.47,9.91A14.29,14.29,0,1,0,135.57,96,15.12,15.12,0,0,0,138.6,95.72Z"/><path class="cls-2" d="M164.18,81.82V58.16h9.47V81.82a14.2,14.2,0,1,0,28.39,0V0h9.46V81.82a23.66,23.66,0,1,1-47.32,0Z"/><path class="cls-2" d="M229.24,105.48h-9.46V58.16h9.46Z"/><path class="cls-2" d="M272.86,105.48H239.74V58.16h33.12a23.59,23.59,0,0,1,23.66,23.66,23.59,23.59,0,0,1-23.66,23.66ZM249.2,96h23.66a14.21,14.21,0,0,0,10.06-24.24,13.7,13.7,0,0,0-10.06-4.15H249.2Z"/><path class="cls-2" d="M367.49,58.16h37.86l-4.74,9.46H367.49a14.22,14.22,0,0,0-10.05,24.25A13.68,13.68,0,0,0,367.49,96h24.18l-5.25-9.46H367.49V77.09h23.66l28.39,52h-9.46l-13.16-23.66H367.49a23.59,23.59,0,0,1-23.65-23.66,23.59,23.59,0,0,1,23.65-23.66Z"/><path class="cls-2" d="M408.89,105.48,432.55,55.8l23.66,49.68H445.56l-13-27.21-13,27.21Z"/><path class="cls-2" d="M468.48,77.09v86.23H459V58.16h9.46l18.93,35.49,18.92-35.49h9.47v47.32h-9.47V77.09l-14.19,28.39h-9.46Z"/><path class="cls-2" d="M573.61,58.16v9.46H535.76V96h37.85v9.47H526.3V58.16ZM602,86.55H547.59V77.09H602Z"/><path class="cls-2" d="M673,96h33.12v9.47H673a23.59,23.59,0,0,1-23.65-23.66A23.59,23.59,0,0,1,673,58.16h37.86l-4.74,9.46H673a14.22,14.22,0,0,0-10.05,24.25A13.68,13.68,0,0,0,673,96Z"/><path class="cls-2" d="M741.58,67.62V124.4h-9.46V67.62H713.19V58.16h47.32v9.46Z"/><path class="cls-2" d="M765.76,58.16h47.31v9.46H775.22V124.4h-9.46Zm47.31,28.39h-26V77.09h26Z"/><circle class="cls-1" cx="133.74" cy="76.44" r="4.2"/></svg>