<svg id="Layer_1" data-name="Layer 1" xmlns="http://www.w3.org/2000/svg" viewBox="0 0 820.12 200.87"><defs><style>.cls-1{fill:#ef4787;}.cls-2{fill:#fff;}</style></defs><polyline class="cls-1" points="320.39 147.51 355.39 91.52 390.38 147.51"/><polyline class="cls-1" points="424.5 147.51 459.5 91.52 494.5 147.51"/><circle class="cls-1" cx="667.39" cy="112.52" r="25.52"/><path class="cls-2" d="M154.6,147.51H-39.17v-14H154.6a7,7,0,1,0,0-14h-28a20.93,20.93,0,0,1-21-21,20.93,20.93,0,0,1,21-21h42v14h-42a7,7,0,1,0,0,14h28a21,21,0,0,1,14.88,35.87A20.27,20.27,0,0,1,154.6,147.51Z"/><path class="cls-2" d="M219.67,91.52v84h-14v-84h-28v-14h70v14Z"/><path class="cls-2" d="M269.43,147.51h-14v-70h49a20.91,20.91,0,0,1,21,21,20.91,20.91,0,0,1-21,21h-3.07l31.06,56h-14l-38.5-70h24.5a7,7,0,1,0,0-14h-35Z"/><path class="cls-2" d="M320.39,147.51l35-73.49,35,73.49H374.64l-19.25-40.24-19.25,40.24Z"/><path class="cls-2" d="M414.44,91.52v84h-14v-84h-28v-14h70v14Z"/><path class="cls-2" d="M424.5,147.51,459.5,74l35,73.49H478.75L459.5,107.27l-19.25,40.24Z"/><path class="cls-2" d="M518.55,91.52v84h-14v-84h-28v-14h70v14Z"/><path class="cls-2" d="M568.31,119.52v28h-14v-70h14v28h42v-28h14v70h-14v-28Z"/><path class="cls-2" d="M667.39,147.51a34.89,34.89,0,0,1-35-35,35,35,0,1,1,70,0,34.91,34.91,0,0,1-35,35Zm0-14a21,21,0,0,0,14.88-35.87,21,21,0,0,0-35.87,14.87,20.91,20.91,0,0,0,21,21Z"/><path class="cls-2" d="M724.48,98.52v77h-14v-98h14l42,49V-38.84h14V147.51h-14Z"/></svg>