<svg id="Layer_1" data-name="Layer 1" xmlns="http://www.w3.org/2000/svg" viewBox="0 0 846.8 166.22"><defs><style>.cls-1{fill:#ef4787;}.cls-2{fill:#fff;}</style></defs><polyline class="cls-1" points="359.57 123.13 394.56 67.14 429.56 123.13"/><polyline class="cls-1" points="463.68 123.13 498.67 67.14 533.67 123.13"/><circle class="cls-1" cx="706.57" cy="88.14" r="25.52"/><path class="cls-2" d="M193.78,123.13H0v-14H193.78a7,7,0,1,0,0-14h-28a20.9,20.9,0,0,1-21-21,20.9,20.9,0,0,1,21-21h42v14h-42a7,7,0,1,0,0,14h28a20.91,20.91,0,0,1,21,21,20.91,20.91,0,0,1-21,21Z"/><path class="cls-2" d="M258.85,67.14v84h-14v-84h-28v-14h70v14Z"/><path class="cls-2" d="M308.61,123.13h-14v-70h49a20.91,20.91,0,0,1,21,21,20.91,20.91,0,0,1-21,21h-3.06l31.06,56h-14l-38.49-70H343.6a7,7,0,1,0,0-14h-35Z"/><path class="cls-2" d="M359.57,123.13l35-73.49,35,73.49H413.81L394.56,82.89l-19.24,40.24Z"/><path class="cls-2" d="M453.62,67.14v84h-14v-84h-28v-14h70v14Z"/><path class="cls-2" d="M463.68,123.13l35-73.49,35,73.49H517.92L498.67,82.89l-19.24,40.24Z"/><path class="cls-2" d="M557.73,67.14v84h-14v-84h-28v-14h70v14Z"/><path class="cls-2" d="M607.49,95.13v28h-14v-70h14v28h42v-28h14v70h-14v-28Z"/><path class="cls-2" d="M706.57,123.13a34.91,34.91,0,0,1-35-35,35,35,0,1,1,70,0,34.89,34.89,0,0,1-35,35Zm0-14a20.9,20.9,0,0,0,21-21A21,21,0,1,0,691.69,103,20.27,20.27,0,0,0,706.57,109.13Z"/><path class="cls-2" d="M763.65,74.14v77h-14v-98h14l42,49V-63.22h14V123.13h-14Z"/></svg>