<svg id="Layer_1" data-name="Layer 1" xmlns="http://www.w3.org/2000/svg" viewBox="0 0 813.3 150.21"><defs><style>.cls-1{fill:#ef4787;}.cls-2{fill:#fff;}</style></defs><rect class="cls-1" x="127.3" y="70.07" width="47.14" height="49.67"/><rect class="cls-1" x="453.97" y="74.61" width="44.86" height="45.13"/><rect class="cls-1" x="699.89" y="68.76" width="50.98" height="50.98"/><path class="cls-2" d="M41.16,79v61.19H31V79H10.57V68.76h51V79Z"/><path class="cls-2" d="M77.41,119.74H67.21v-51H102.9a15.23,15.23,0,0,1,15.29,15.29,15.23,15.23,0,0,1-15.29,15.3h-2.23l22.62,40.79H113.1l-28-51H102.9a5.1,5.1,0,1,0,0-10.2H77.41Z"/><path class="cls-2" d="M174.44,68.76V79H133.65v30.6h40.79v10.19h-51v-51ZM205,99.35H146.39V89.15H205Z"/><path class="cls-2" d="M198.41,119.74l25.5-53.53,25.49,53.53H237.93l-14-29.31-14,29.31Z"/><path class="cls-2" d="M313.13,119.74H252V109.55h61.18a5.1,5.1,0,1,0,0-10.2H292.74A15.32,15.32,0,0,1,281.9,73.22a14.75,14.75,0,0,1,10.84-4.46h30.59V79H292.74a5.1,5.1,0,1,0,0,10.2h20.39A15.32,15.32,0,0,1,324,115.28,14.71,14.71,0,0,1,313.13,119.74Z"/><path class="cls-2" d="M331.69,94.25V68.76h10.2V94.25a15.3,15.3,0,1,0,30.59,0V0h10.19V94.25a25.49,25.49,0,1,1-51,0Z"/><path class="cls-2" d="M401.79,119.74H391.6v-51h35.69a15.32,15.32,0,0,1,10.83,26.13,14.76,14.76,0,0,1-10.83,4.46h-2.23l22.62,40.79h-10.2l-28-51h17.85a5.1,5.1,0,1,0,0-10.2h-25.5Z"/><path class="cls-2" d="M498.82,68.76V79H458v30.6h40.78v10.19h-51v-51Zm30.59,30.59H470.78V89.15h58.63Z"/><path class="cls-2" d="M590.59,99.35v20.39H580.4v-51h10.19V89.15h30.59V68.76h10.2v51h-10.2V99.35Z"/><path class="cls-2" d="M640,94.25V68.76h10.2V94.25a15.3,15.3,0,1,0,30.59,0v-51H691v51a25.5,25.5,0,1,1-51,0Z"/><path class="cls-2" d="M710.09,84.05v56.09h-10.2V68.76h10.2l30.59,35.69V0h10.2V119.74h-10.2Z"/><path class="cls-2" d="M787.12,79v61.19h-10.2V79H756.53V68.76h51V79Z"/></svg>