<svg xmlns="http://www.w3.org/2000/svg" viewBox="0 0 44.52 28.3"><defs><style>.cls-1{fill:#131314;}.cls-2{fill:#fff;}</style></defs><g id="Layer_2" data-name="Layer 2"><g id="Layer_1-2" data-name="Layer 1"><path class="cls-1" d="M1.12,8.55H12.56a1.12,1.12,0,0,1,1.12,1.12V28.3a0,0,0,0,1,0,0H0a0,0,0,0,1,0,0V9.67A1.12,1.12,0,0,1,1.12,8.55Z"/><path class="cls-1" d="M16.54,0H28A1.12,1.12,0,0,1,29.1,1.12V28.3a0,0,0,0,1,0,0H15.42a0,0,0,0,1,0,0V1.12A1.12,1.12,0,0,1,16.54,0Z"/><path class="cls-1" d="M32,15.52H43.4a1.12,1.12,0,0,1,1.12,1.12V28.3a0,0,0,0,1,0,0H30.84a0,0,0,0,1,0,0V16.64A1.12,1.12,0,0,1,32,15.52Z"/><path class="cls-2" d="M20.79,15.31h1.05V12.52h-.9v-.69a3.31,3.31,0,0,0,1.2-.44H23v3.92h.9v.9H20.79Z"/><path class="cls-2" d="M5.13,19.84c1.22-1.15,2.09-2,2.09-2.67a.64.64,0,0,0-.69-.72,1.25,1.25,0,0,0-.85.49l-.61-.6a2,2,0,0,1,1.62-.76,1.47,1.47,0,0,1,1.59,1.53A4.33,4.33,0,0,1,6.74,19.6a7.47,7.47,0,0,1,.8-.05h1v.93H5.13Z"/><path class="cls-2" d="M35.85,23.38l.51-.71a1.57,1.57,0,0,0,1.06.49c.47,0,.78-.21.78-.58s-.25-.68-1.29-.68v-.79c.86,0,1.13-.26,1.13-.64s-.21-.53-.59-.53a1.3,1.3,0,0,0-.9.42L36,19.68a2.3,2.3,0,0,1,1.52-.62c1,0,1.66.48,1.66,1.32a1.13,1.13,0,0,1-.8,1.07v0a1.2,1.2,0,0,1,1,1.18c0,.89-.82,1.4-1.79,1.4A2.14,2.14,0,0,1,35.85,23.38Z"/></g></g></svg>