<svg xmlns="http://www.w3.org/2000/svg" viewBox="0 0 1199.9 215.52"><defs><style>.cls-1{fill:#131314;}.cls-2{fill:#f24687;}</style></defs><g id="Layer_2" data-name="Layer 2"><g id="Layer_1-2" data-name="Layer 1"><path class="cls-1" d="M58.45,215.52H0V132H58.45A40.21,40.21,0,0,1,88,144.22a41.89,41.89,0,0,1,0,59.1A40.25,40.25,0,0,1,58.45,215.52ZM16.7,198.82H58.45A25.1,25.1,0,0,0,76.19,156a24.14,24.14,0,0,0-17.74-7.3H16.7Z"/><path class="cls-1" d="M108.94,173.77V132h16.7v41.75a25.1,25.1,0,0,0,42.8,17.74,24.14,24.14,0,0,0,7.3-17.74V0h16.7V173.77a41.65,41.65,0,0,1-41.75,41.75,41.65,41.65,0,0,1-41.75-41.75Z"/><rect class="cls-2" x="316.53" y="140.71" width="66.4" height="66.4"/><path class="cls-1" d="M223.75,198.82h66.8v16.7h-83.5V132h16.7Z"/><path class="cls-1" d="M383.32,132v16.7h-66.8v50.1h66.8v16.7h-83.5V132Zm816.58,50.1H337.39v-16.7H1199.9Z"/></g></g></svg>