<svg xmlns="http://www.w3.org/2000/svg" viewBox="0 0 686.03 122.09"><defs><style>.cls-1{fill:#fff;}</style></defs><g id="Layer_2" data-name="Layer 2"><g id="Layer_1-2" data-name="Layer 1"><path class="cls-1" d="M363.4,105.06h58.45v16.7H363.4a40.25,40.25,0,0,1-29.55-12.2A40.25,40.25,0,0,1,321.65,80a40.25,40.25,0,0,1,12.2-29.55,40.25,40.25,0,0,1,29.55-12.2h66.8L421.85,55H363.4a25,25,0,0,0-25,25.05,25,25,0,0,0,25,25Z"/><path class="cls-1" d="M452.12,88.36v33.4h-16.7V38.26h16.7v33.4h50.1V38.26h16.7v83.5h-16.7V88.36Z"/><path class="cls-1" d="M621,38.26V55h-66.8v50.1H621v16.7h-83.5V38.26ZM686,88.36H575V71.66H686Z"/><path class="cls-1" d="M300.86,61.82a33.75,33.75,0,0,0-25-10.29H224.33a16.1,16.1,0,0,1-16.26-16.26A16.1,16.1,0,0,1,224.33,19h73.93V0H224.33a33.72,33.72,0,0,0-25,10.28,33.75,33.75,0,0,0-10.29,25,33.7,33.7,0,0,0,10.29,25,33.69,33.69,0,0,0,25,10.29h51.54a16.33,16.33,0,0,1,11.54,27.8,15.75,15.75,0,0,1-11.54,4.71H0v19H275.87a35.13,35.13,0,0,0,35.28-35.28A33.73,33.73,0,0,0,300.86,61.82Z"/></g></g></svg>