<svg xmlns="http://www.w3.org/2000/svg" viewBox="0 0 48.88 37.06"><defs><style>.cls-1{fill:#131314;}</style></defs><g id="Layer_2" data-name="Layer 2"><g id="Layer_1-2" data-name="Layer 1"><path class="cls-1" d="M30.74,18.55c0,.68-.24.91-.94.92H28.64c-.67,0-.94.27-1,.94s0,1.21,0,1.82v2.36a4.65,4.65,0,0,0-2.41-1.26V20.82c0-.18,0-.37,0-.55a.77.77,0,1,0-1.53,0,5.23,5.23,0,0,0,0,.56v2.51a4.65,4.65,0,0,0-2.41,1.18V20.7c0-1-.2-1.23-1.22-1.23H19.2c-.72,0-.95-.23-.95-1V9.77a1.59,1.59,0,0,1,1.28-1.58c.92-.21,1.83-.41,2.75-.6a1.14,1.14,0,0,1,.58,0,4.84,4.84,0,0,0,3.25,0,1.46,1.46,0,0,1,.69,0c.86.17,1.72.37,2.58.57a1.58,1.58,0,0,1,1.36,1.69Z"/><path class="cls-1" d="M27.67,3.21a3.18,3.18,0,1,1-6.36,0,3.18,3.18,0,1,1,6.36,0Z"/><path class="cls-1" d="M36.38,37c0-.83,0-1.66,0-2.48a1.52,1.52,0,0,1,1.17-1.56c1-.25,2-.46,3-.66a1.05,1.05,0,0,1,.52.08,4.79,4.79,0,0,0,3.15,0,1.63,1.63,0,0,1,.79,0c.83.15,1.66.34,2.48.53a1.63,1.63,0,0,1,1.42,1.76c0,.8,0,1.59,0,2.38v.07H36.38Z"/><path class="cls-1" d="M45.82,27.89a3.19,3.19,0,1,1-3.2-3.21A3.19,3.19,0,0,1,45.82,27.89Z"/><path class="cls-1" d="M27.64,27.9a3.2,3.2,0,1,1-3.19-3.21A3.21,3.21,0,0,1,27.64,27.9Z"/><path class="cls-1" d="M18.2,36.72c0-.76,0-1.51,0-2.27A1.44,1.44,0,0,1,19.29,33c1-.27,2-.48,3.07-.7a1.23,1.23,0,0,1,.52.1,4.91,4.91,0,0,0,3.1,0,1.84,1.84,0,0,1,.84-.06c.81.15,1.62.35,2.43.53a1.61,1.61,0,0,1,1.43,1.8c0,.79,0,1.58,0,2.37v0H18.19C18.2,37,18.2,36.83,18.2,36.72Z"/><path class="cls-1" d="M12.5,37.06H0V37c0-.83,0-1.66,0-2.49A1.4,1.4,0,0,1,.93,33c1.08-.33,2.21-.55,3.32-.79a.83.83,0,0,1,.42.11,4.73,4.73,0,0,0,3.15,0,1.55,1.55,0,0,1,.74,0c.86.16,1.73.36,2.59.56a1.61,1.61,0,0,1,1.35,1.7c0,.79,0,1.58,0,2.38Z"/><path class="cls-1" d="M9.43,27.88a3.18,3.18,0,1,1-3.2-3.2A3.16,3.16,0,0,1,9.43,27.88Z"/></g></g></svg>