<svg xmlns="http://www.w3.org/2000/svg" viewBox="0 0 33.39 33.49"><defs><style>.cls-1{fill:#131314;}</style></defs><g id="Layer_2" data-name="Layer 2"><g id="Layer_1-2" data-name="Layer 1"><path class="cls-1" d="M26.05,0l.54.08a.77.77,0,0,1,.71.5.76.76,0,0,1-.24.83c-.53.52-1.06,1-1.57,1.57a3.48,3.48,0,0,0,4.77,5.08c.57-.53,1.11-1.08,1.65-1.64a.83.83,0,0,1,.93-.31c.37.14.45.45.49.81a7.75,7.75,0,0,1-1.5,5.74,7.66,7.66,0,0,1-7,3.18,11.43,11.43,0,0,1-1.82-.34.35.35,0,0,0-.4.11l-.89.9a12.89,12.89,0,0,0-1.23-.62,2.6,2.6,0,0,0-1.82.06.4.4,0,0,1-.34,0c-.94-.91-1.86-1.84-2.81-2.79.6-.6,1.16-1.22,1.78-1.75a1.28,1.28,0,0,0,.44-1.54A7.87,7.87,0,0,1,23.09.37C23.65.2,24.24.12,24.81,0Z"/><path class="cls-1" d="M18.45,18.4a6.09,6.09,0,0,1,.48-.55,1,1,0,0,1,1.62,0c3.3,3.29,6.61,6.58,9.89,9.9a3.37,3.37,0,1,1-4.82,4.72L22,28.88l-6.13-6.13a1.13,1.13,0,0,1,0-1.88l.42-.4L5.5,9.65c-.11.12-.24.29-.39.44A1.06,1.06,0,0,1,3.43,10L.25,5.63A1.06,1.06,0,0,1,.37,4.18C1,3.58,1.56,3,2.16,2.4a1.07,1.07,0,0,1,1.48-.11L7.9,5.43A1.06,1.06,0,0,1,8,7.17a4.56,4.56,0,0,1-.43.36Z"/><path class="cls-1" d="M11.1,17.56c1,1,1.9,1.9,2.81,2.83a.28.28,0,0,1,0,.25,2.8,2.8,0,0,0,.53,3.12l-.14.16q-4.26,4.27-8.53,8.53A3.38,3.38,0,0,1,.59,32a3.41,3.41,0,0,1,.24-4.15l.25-.26,9.85-9.85C11,17.73,11,17.66,11.1,17.56Z"/></g></g></svg>