<svg xmlns="http://www.w3.org/2000/svg" width="542.522" height="110.741" viewBox="0 0 542.522 110.741">
    <g id="Group_11" data-name="Group 11" transform="translate(-3018.317 -846.085)">
        <rect id="Rectangle_25" data-name="Rectangle 25" width="52.706" height="46.289" transform="translate(3090.585 881.12)" fill="#f44689" />
        <rect id="Rectangle_26" data-name="Rectangle 26" width="52.706" height="46.289" transform="translate(3324.588 881.12)" fill="#f44689" />
        <g id="Group_10" data-name="Group 10">
            <path id="Path_14" data-name="Path 14" d="M3018.317,903.935a29.006,29.006,0,0,0,28.974,28.973h29.38V921.047h-29.38a17.1,17.1,0,1,1,0-34.208h29.38V874.978h-29.38A29,29,0,0,0,3018.317,903.935Z" fill="#fff" />
            <rect id="Rectangle_27" data-name="Rectangle 27" width="66.622" height="11.861" transform="translate(3111.71 897.253)" fill="#fff" />
            <path id="Path_15" data-name="Path 15" d="M3096.876,886.834h46.415V874.973H3085.01v11.861h.005v34.212h0v11.861h58.277V921.045h-46.415Z" fill="#fff" />
            <rect id="Rectangle_28" data-name="Rectangle 28" width="66.62" height="11.861" transform="translate(3345.715 897.253)" fill="#fff" />
            <path id="Path_16" data-name="Path 16" d="M3330.879,886.834h46.415V874.973h-58.275v57.933h58.275V921.045h-46.415Z" fill="#fff" />
            <path id="Path_17" data-name="Path 17" d="M3225.454,874.758h-35.226v.008h-5.93v82.06h11.861V886.619h29.3a5.319,5.319,0,1,1,0,10.639h-23.179v11.861h23.179a17.181,17.181,0,1,0,0-34.361Z" fill="#fff" />
            <path id="Path_18" data-name="Path 18" d="M3294.9,897.258h-34.429V875.064h-11.861V932.89h11.861V909.119H3294.9V932.89h11.861V875.064H3294.9Z" fill="#fff" />
            <path id="Path_19" data-name="Path 19" d="M3476.408,846.085v60.269h-.068a28.469,28.469,0,0,1-56.914-1.186v-30.4h11.861v30.4a16.63,16.63,0,0,0,33.26,0V846.085Z" fill="#fff" />
            <path id="Path_20" data-name="Path 20" d="M3542.269,896.818h-21.858a4.879,4.879,0,1,1,0-9.759h36.124V875.2h-36.124a16.74,16.74,0,0,0,0,33.48h21.858a6.728,6.728,0,0,1,0,13.455h-67.386v11.86h67.386a18.588,18.588,0,0,0,0-37.175Z" fill="#fff" />
        </g>
    </g>
</svg>
  