<svg xmlns="http://www.w3.org/2000/svg" width="777.471" height="977.374" viewBox="0 0 777.471 977.374">
  <g id="Group_79" data-name="Group 79" transform="translate(-2273.53 -101.626)">
    <g id="Group_76" data-name="Group 76">
      <path id="Path_564" data-name="Path 564" d="M2791.67,457.62,2454.5,691.73l371.34,174.94ZM2533.51,685.13l224.37-155.79,22.74,272.21Z" fill="#fff"/>
    </g>
    <g id="Group_77" data-name="Group 77">
      <path id="Path_565" data-name="Path 565" d="M2929.661,418.809a153.193,153.193,0,1,1,92.4-195.957A153.084,153.084,0,0,1,2929.661,418.809Z" fill="#f44689"/>
      <path id="Path_566" data-name="Path 566" d="M3040.71,216.15c-32.28-89.8-131.6-136.59-221.41-104.31-89.75,32.26-136.5,131.57-104.21,221.37,25.34,70.49,92,114.46,162.93,114.46a171.189,171.189,0,0,0,29.22-2.51,173.792,173.792,0,0,0,29.13-7.7,172.982,172.982,0,0,0,104.34-221.31Zm-73.08,157.24a133.456,133.456,0,0,1-44.67,26.77c-69.19,24.87-145.7-11.18-170.57-80.36-24.89-69.23,11.14-145.79,80.32-170.66a133.444,133.444,0,0,1,134.92,224.25Z" fill="#fff"/>
    </g>
    <g id="Group_78" data-name="Group 78">
      <path id="Path_567" data-name="Path 567" d="M2273.53,1079l3.83-8.14,160.65-341,368.81,173.75L2724.19,1079h-43.82l73.7-156.42L2456.98,782.61,2317.34,1079h-43.81Z" fill="#fff"/>
    </g>
  </g>
</svg>
