<svg xmlns="http://www.w3.org/2000/svg" width="526.085" height="116.177" viewBox="0 0 526.085 116.177">
  <g id="Group_35" data-name="Group 35" transform="translate(-10348.915 -887.954)">
    <g id="Group_34" data-name="Group 34">
      <g id="Group_33" data-name="Group 33">
        <path id="Path_95" data-name="Path 95" d="M10406.3,926.714l-22.548,47.353h7.371l15.177-31.738,15.177,31.738h7.371Z" fill="#fff"/>
      </g>
    </g>
    <path id="Path_96" data-name="Path 96" d="M10454.838,974.067h-20.02v-28.6h20.02a8.612,8.612,0,0,1,6.435,14.3,8.591,8.591,0,0,1-6.435,14.3Zm-14.3-5.72h14.3a2.86,2.86,0,1,0,0-5.72h-105.923v-5.72h105.923a2.86,2.86,0,1,0,0-5.719h-14.3Z" fill="#fff"/>
    <circle id="Ellipse_3" data-name="Ellipse 3" cx="10.138" cy="10.138" r="10.138" transform="translate(10470.298 949.605)" fill="#f24687"/>
    <path id="Path_97" data-name="Path 97" d="M10480.487,974.067a14.264,14.264,0,1,1,10.122-4.178A13.782,13.782,0,0,1,10480.487,974.067Zm0-5.72a8.543,8.543,0,1,0-6.077-2.5A8.278,8.278,0,0,0,10480.487,968.347Z" fill="#fff"/>
    <path id="Path_98" data-name="Path 98" d="M10497.781,959.767v-14.3h5.72v14.3a8.58,8.58,0,1,0,17.159,0V887.954h5.72v71.813a14.3,14.3,0,1,1-28.6,0Z" fill="#fff"/>
    <path id="Path_99" data-name="Path 99" d="M10546.667,951.188v52.943h-5.72V951.188h-11.439v-5.72h28.6v5.72Z" fill="#fff"/>
    <path id="Path_100" data-name="Path 100" d="M10586.706,959.767v-14.3h5.72v14.3a8.58,8.58,0,1,0,17.159,0v-14.3h5.72v14.3a14.3,14.3,0,1,1-28.6,0Z" fill="#fff"/>
    <path id="Path_101" data-name="Path 101" d="M10648.417,974.067H10614.1v-5.72h34.319a2.86,2.86,0,1,0,0-5.72h-11.439a8.58,8.58,0,1,1,0-17.159H10875v5.72h-238.022a2.86,2.86,0,1,0,0,5.719h11.439a8.58,8.58,0,1,1,0,17.16Z" fill="#fff"/>
  </g>
</svg>
