<svg id="Layer_1" data-name="Layer 1" xmlns="http://www.w3.org/2000/svg" viewBox="0 0 870.58 207.23"><defs><style>.cls-1{fill:#ef4787;}.cls-2{fill:#fff;}</style></defs><polygon class="cls-1" points="358.72 91.93 338.86 127.65 375.04 127.65 358.72 91.93"/><rect class="cls-1" x="614.26" y="85.34" width="41.66" height="42.31"/><polygon class="cls-1" points="836.27 93.87 818.04 127.65 854.4 127.65 836.27 93.87"/><path class="cls-2" d="M60.21,118.36H92.73v9.29H60.21A23.17,23.17,0,0,1,37,104.42,23.17,23.17,0,0,1,60.21,81.2H97.37l-4.64,9.29H60.21a13.94,13.94,0,1,0,0,27.87Z"/><path class="cls-2" d="M109.57,127.65h-9.29V81.2h9.29Z"/><path class="cls-2" d="M129.16,127.65h-9.29V81.2h32.52A14,14,0,0,1,162.26,105a13.43,13.43,0,0,1-9.87,4.06h-2L171,146.23h-9.29L136.13,99.78h16.26a4.65,4.65,0,1,0,0-9.29H129.16Z"/><path class="cls-2" d="M192.52,118.36H225v9.29H192.52a23.17,23.17,0,0,1-23.22-23.23A23.17,23.17,0,0,1,192.52,81.2h37.16L225,90.49H192.52a13.94,13.94,0,1,0,0,27.87Z"/><path class="cls-2" d="M231.93,104.42V81.2h9.29v23.22a13.94,13.94,0,1,0,27.87,0V16.07h9.29v88.35a23.23,23.23,0,1,1-46.45,0Z"/><path class="cls-2" d="M295.8,127.65h-9.29V81.2h9.29Z"/><path class="cls-2" d="M328.82,90.49v55.74h-9.29V90.49H301V81.2H347.4v9.29Z"/><path class="cls-2" d="M335.5,127.65l23.22-48.77L382,127.65H371.49l-12.77-26.71L346,127.65Z"/><path class="cls-2" d="M393.56,118.36h37.16v9.29H384.27V81.2h9.29Z"/><path class="cls-2" d="M509.68,127.65H477.17V81.2h32.51a23.17,23.17,0,0,1,23.22,23.22,23.17,23.17,0,0,1-23.22,23.23Zm-23.22-9.29h23.22a13.94,13.94,0,1,0,0-27.87H486.46Z"/><path class="cls-2" d="M547.57,127.65h-9.29V81.2h9.29Z"/><path class="cls-2" d="M567.16,118.36h37.16v9.29H557.87V81.2h9.29Z"/><path class="cls-2" d="M655.92,81.2v9.29H618.76v27.87h37.16v9.29H609.47V81.2Zm27.87,27.87H630.38V99.78h53.41Z"/><path class="cls-2" d="M698.16,99.78v92.81h-9.29V81.2h9.29L716.74,116,735.32,81.2h9.29v46.45h-9.29V99.78l-13.93,27.87H712.1Z"/><path class="cls-2" d="M764.28,99.78v46.45H755v-65h9.29L782.86,116,801.44,81.2h9.29v46.45h-9.29V99.78L787.5,127.65h-9.29Z"/><path class="cls-2" d="M813.05,127.65l23.22-48.77,23.23,48.77H849.05l-12.78-26.71L823.5,127.65Z"/></svg>