<svg id="Layer_1" data-name="Layer 1" xmlns="http://www.w3.org/2000/svg" viewBox="0 0 642.13 203.85"><defs><style>.cls-1{fill:#ef4787;}.cls-2{fill:#fff;}</style></defs><circle class="cls-1" cx="95.26" cy="80.73" r="17.91"/><rect class="cls-1" x="562.23" y="56.08" width="59.15" height="49.29"/><rect class="cls-1" x="180.51" y="56.08" width="45.76" height="45.76"/><path class="cls-2" d="M30.4,95.51H69.84v9.86H20.54V56.08H30.4Z"/><path class="cls-2" d="M92.25,105.37A24.58,24.58,0,0,1,67.6,80.73,24.58,24.58,0,0,1,92.25,56.08,24.58,24.58,0,0,1,116.9,80.73a24.58,24.58,0,0,1-24.65,24.64Zm0-9.86A14.73,14.73,0,0,0,107,80.73,14.81,14.81,0,0,0,81.78,70.25a14.86,14.86,0,0,0,0,21A14.22,14.22,0,0,0,92.25,95.51Z"/><path class="cls-2" d="M132.46,105.37H122.6V56.08h34.5a14.72,14.72,0,0,1,14.79,14.79A14.73,14.73,0,0,1,157.1,85.66H155l21.87,39.43H167L139.85,75.8H157.1a4.93,4.93,0,1,0,0-9.86H132.46Z"/><path class="cls-2" d="M226.27,56.08v9.86H186.83V95.51h39.44v9.86H177V56.08Zm29.57,29.58H199.15V75.8h56.69Z"/><path class="cls-2" d="M271.09,75.8V186.21h-9.86V56.08h9.86l19.72,37,19.72-37h9.86v49.29h-9.86V75.8l-14.79,29.57h-9.86Z"/><path class="cls-2" d="M379.54,105.37h-9.86V56.08h9.86Z"/><path class="cls-2" d="M400.41,125.09h-9.86v-69h34.51a14.72,14.72,0,0,1,14.78,14.79,14.73,14.73,0,0,1-14.78,14.79H412.73V75.8h12.33a4.93,4.93,0,1,0,0-9.86H400.41Z"/><path class="cls-2" d="M486.36,105.37H427.21V95.51h59.15a4.93,4.93,0,1,0,0-9.85H466.65a14.73,14.73,0,0,1-14.79-14.79,14.72,14.72,0,0,1,14.79-14.79h29.57v9.86H466.65a4.93,4.93,0,1,0,0,9.86h19.71a14.81,14.81,0,0,1,10.48,25.26A14.26,14.26,0,0,1,486.36,105.37Z"/><path class="cls-2" d="M504.31,80.73V56.08h9.86V80.73a14.79,14.79,0,1,0,29.58,0V31.43h9.85v49.3a24.65,24.65,0,1,1-49.29,0Z"/><path class="cls-2" d="M572.09,75.8v49.29h-9.86v-69h9.86l19.72,37,19.71-37h9.86v49.29h-9.86V75.8l-14.78,29.57h-9.86Z"/></svg>