<svg id="Layer_1" data-name="Layer 1" xmlns="http://www.w3.org/2000/svg" viewBox="0 0 816.52 194.84"><defs><style>.cls-1{fill:#ef4787;}.cls-2{fill:#fff;}</style></defs><rect class="cls-1" x="515.04" y="79.78" width="43.94" height="36.55"/><circle class="cls-1" cx="120.94" cy="96.74" r="20.9"/><polyline class="cls-1" points="399.7 121.58 417.91 86.44 434.61 121.58"/><path class="cls-2" d="M80.2,121.58H23.42v-9.46H80.2a4.73,4.73,0,1,0,0-9.46H61.27A14.22,14.22,0,0,1,51.22,78.41a13.68,13.68,0,0,1,10.05-4.14H89.66v9.46H61.27a4.73,4.73,0,1,0,0,9.46H80.2a14.2,14.2,0,1,1,0,28.39Z"/><path class="cls-2" d="M135.87,116.33l13.45,24.18h-9.46L128.7,120.4a24.82,24.82,0,0,1-7.76,1.18A23.59,23.59,0,0,1,97.28,97.92a23.59,23.59,0,0,1,23.66-23.65,23.59,23.59,0,0,1,23.65,23.65,22.75,22.75,0,0,1-6.87,16.71C137.13,115.22,136.51,115.79,135.87,116.33ZM124,111.82l-7.77-13.9h9.47l5.47,9.91a14.28,14.28,0,1,0-10.2,4.29A15.26,15.26,0,0,0,124,111.82Z"/><path class="cls-2" d="M149.55,97.92V74.27H159V97.92a14.2,14.2,0,1,0,28.39,0V16.1h9.46V97.92a23.66,23.66,0,1,1-47.31,0Z"/><path class="cls-2" d="M214.6,121.58h-9.46V74.27h9.46Z"/><path class="cls-2" d="M258.22,121.58H225.1V74.27h33.12a23.59,23.59,0,0,1,23.66,23.65,23.59,23.59,0,0,1-23.66,23.66Zm-23.65-9.46h23.65a14.22,14.22,0,0,0,10.06-24.25,13.69,13.69,0,0,0-10.06-4.14H234.57Z"/><path class="cls-2" d="M352.86,74.27h37.85L386,83.73H352.86A14.22,14.22,0,0,0,342.8,108a13.69,13.69,0,0,0,10.06,4.14H377l-5.25-9.46H352.86V93.19h23.65l28.39,52.05h-9.46l-13.16-23.66H352.86A23.59,23.59,0,0,1,329.2,97.92a23.59,23.59,0,0,1,23.66-23.65Z"/><path class="cls-2" d="M394.26,121.58,417.91,71.9l23.66,49.68H430.93l-13-27.2-13,27.2Z"/><path class="cls-2" d="M453.84,93.19v86.24h-9.46V74.27h9.46l18.93,35.48L491.7,74.27h9.46v47.31H491.7V93.19l-14.2,28.39H468Z"/><path class="cls-2" d="M559,74.27v9.46H521.12v28.39H559v9.46H511.66V74.27Zm28.39,28.39H533V93.19h54.41Z"/><path class="cls-2" d="M658.34,112.12h33.12v9.46H658.34a23.59,23.59,0,0,1-23.66-23.66,23.59,23.59,0,0,1,23.66-23.65h37.85l-4.73,9.46H658.34A14.22,14.22,0,0,0,648.28,108,13.69,13.69,0,0,0,658.34,112.12Z"/><path class="cls-2" d="M726.94,83.73v56.78h-9.46V83.73H698.55V74.27h47.32v9.46Z"/><path class="cls-2" d="M751.12,74.27h47.31v9.46H760.58v56.78h-9.46Zm47.31,28.39h-26V93.19h26Z"/><circle class="cls-1" cx="119.1" cy="92.54" r="4.2"/></svg>