<svg id="Layer_1" data-name="Layer 1" xmlns="http://www.w3.org/2000/svg" viewBox="0 0 854.41 188.08"><defs><style>.cls-1{fill:#ef4787;}.cls-2{fill:#fff;}</style></defs><rect class="cls-1" x="144.43" y="80.38" width="47.14" height="49.67"/><rect class="cls-1" x="471.1" y="84.93" width="44.86" height="45.13"/><rect class="cls-1" x="717.02" y="79.07" width="50.98" height="50.98"/><path class="cls-2" d="M58.29,89.27v61.18H48.09V89.27H27.7V79.07h51v10.2Z"/><path class="cls-2" d="M94.54,130.06H84.34v-51H120a15.32,15.32,0,0,1,10.83,26.13A14.71,14.71,0,0,1,120,109.66H117.8l22.62,40.79h-10.2l-28-51H120a5.1,5.1,0,1,0,0-10.2H94.54Z"/><path class="cls-2" d="M191.57,79.07v10.2H150.78v30.59h40.79v10.2h-51v-51Zm30.59,30.59H163.52V99.47h58.64Z"/><path class="cls-2" d="M215.54,130.06,241,76.52l25.49,53.54H255.06l-14-29.32-14,29.32Z"/><path class="cls-2" d="M330.26,130.06H269.08v-10.2h61.18a5.1,5.1,0,1,0,0-10.2h-20.4A15.32,15.32,0,0,1,299,83.53a14.78,14.78,0,0,1,10.83-4.46h30.6v10.2h-30.6a5.1,5.1,0,1,0,0,10.2h20.4a15.3,15.3,0,1,1,0,30.59Z"/><path class="cls-2" d="M348.82,104.57V79.07H359v25.5a15.3,15.3,0,1,0,30.59,0V10.32H399.8v94.25a25.49,25.49,0,1,1-51,0Z"/><path class="cls-2" d="M418.92,130.06H408.73v-51h35.69a15.32,15.32,0,0,1,10.83,26.13,14.72,14.72,0,0,1-10.83,4.46h-2.23l22.62,40.79h-10.2l-28-51h17.85a5,5,0,0,0,5.09-5.1,5,5,0,0,0-5.09-5.1h-25.5Z"/><path class="cls-2" d="M516,79.07v10.2H475.17v30.59H516v10.2H465v-51Zm30.59,30.59H487.91V99.47h58.63Z"/><path class="cls-2" d="M607.72,109.66v20.4H597.53v-51h10.19v20.4h30.59V79.07h10.2v51h-10.2v-20.4Z"/><path class="cls-2" d="M657.11,104.57V79.07h10.2v25.5a15.3,15.3,0,1,0,30.59,0v-51h10.2v51a25.5,25.5,0,1,1-51,0Z"/><path class="cls-2" d="M727.22,94.37v56.08H717V79.07h10.2l30.59,35.69V10.32H768V130.06h-10.2Z"/><path class="cls-2" d="M804.25,89.27v61.18h-10.2V89.27H773.66V79.07h51v10.2Z"/></svg>