<svg xmlns="http://www.w3.org/2000/svg" width="329.263" height="998" viewBox="0 0 329.263 998">
  <g id="Group_220" data-name="Group 220" transform="translate(1 -244)">
    <g id="Group_219" data-name="Group 219">
      <g id="Group_218" data-name="Group 218">
        <path id="Path_356" data-name="Path 356" d="M328.263,1104.6V1242l-29.353-80.4Z" fill="#00534d"/>
        <path id="Path_357" data-name="Path 357" d="M308.15,1003.782,328.263,1104.6l-29.353,57Z" fill="#013b39"/>
        <path id="Path_358" data-name="Path 358" d="M298.91,1161.6l29.353,80.4H265.7Z" fill="#003535"/>
        <path id="Path_359" data-name="Path 359" d="M308.15,1003.782l-32.212-66.8-33.667-164.2L293.806,931.88Z" fill="#baccd8"/>
        <path id="Path_360" data-name="Path 360" d="M275.939,936.985l32.212,66.8L298.91,1161.6Z" fill="#104a50"/>
        <path id="Path_361" data-name="Path 361" d="M275.939,936.985,298.91,1161.6,242.247,929.506Z" fill="#005c5a"/>
        <path id="Path_362" data-name="Path 362" d="M242.247,929.506,298.91,1161.6l-45.944-33.182L240.2,1023.767Z" fill="#002b29"/>
        <path id="Path_363" data-name="Path 363" d="M298.91,1161.6,265.7,1242H213.557Z" fill="#062a2c"/>
        <path id="Path_364" data-name="Path 364" d="M298.91,1161.6,213.557,1242l39.41-113.583Z" fill="#00221d"/>
        <path id="Path_365" data-name="Path 365" d="M242.272,772.787l33.667,164.2L219.785,847.65l7.657-30.629,14.8-44.31Z" fill="#046065"/>
        <path id="Path_366" data-name="Path 366" d="M219.785,847.65l56.153,89.335-33.692-7.479Z" fill="#054144"/>
        <path id="Path_367" data-name="Path 367" d="M240.2,1023.767l12.762,104.65L213.557,1242Z" fill="#012123"/>
        <path id="Path_368" data-name="Path 368" d="M219.785,847.65l22.461,81.856-2.042,94.261L173.841,853.495Z" fill="#004f56"/>
        <path id="Path_369" data-name="Path 369" d="M242.247,772.685v.026l-14.8,44.31-22.972-15.315,37.75-29.021Z" fill="#006264"/>
        <path id="Path_370" data-name="Path 370" d="M242.221,772.685l-68.38-56.919L235.1,750.657Z" fill="#d5d5e0"/>
        <path id="Path_371" data-name="Path 371" d="M173.841,715.766l68.38,56.919-68.38-40.839Z" fill="#144f45"/>
        <path id="Path_372" data-name="Path 372" d="M173.841,731.846l68.38,40.839-68.38-24.58Z" fill="#005b5f"/>
        <path id="Path_373" data-name="Path 373" d="M242.221,772.685l-37.75,29.021-30.629-53.6Z" fill="#015960"/>
        <path id="Path_374" data-name="Path 374" d="M173.841,853.495,240.2,1023.767l-66.363-7.657Z" fill="#084951"/>
        <path id="Path_375" data-name="Path 375" d="M240.2,1023.767,213.557,1242l-39.716-225.813v-.077Z" fill="#013335"/>
        <path id="Path_376" data-name="Path 376" d="M235.1,750.657l-61.258-34.892-5.1-28.919Z" fill="#d7deca"/>
        <path id="Path_377" data-name="Path 377" d="M227.442,817.02l-7.657,30.629-15.315-45.944Z" fill="#005b61"/>
        <path id="Path_378" data-name="Path 378" d="M204.471,801.706l15.315,45.944-45.944-37.163Z" fill="#006467"/>
        <path id="Path_379" data-name="Path 379" d="M219.785,847.65l-45.944,5.845V810.486Z" fill="#004f55"/>
        <path id="Path_380" data-name="Path 380" d="M173.841,1016.187,213.557,1242H163.632Z" fill="#0c8280"/>
        <path id="Path_381" data-name="Path 381" d="M173.841,748.1l30.629,53.6-60.11-29.021Z" fill="#00494a"/>
        <path id="Path_382" data-name="Path 382" d="M204.471,801.706l-30.629,8.78-29.481-37.8Z" fill="#056466"/>
        <path id="Path_383" data-name="Path 383" d="M148.317,311.639l28.077,125.069L125.064,370.7Z" fill="#312f2e"/>
        <path id="Path_384" data-name="Path 384" d="M125.064,370.7l51.329,66.006L133,457.128Z" fill="#494745"/>
        <path id="Path_385" data-name="Path 385" d="M176.394,436.708,140.66,515.834,133,457.128Z" fill="#373432"/>
        <path id="Path_386" data-name="Path 386" d="M173.841,1016.11v.077L115.391,1242l-10.465-162.079Z" fill="#003839"/>
        <path id="Path_387" data-name="Path 387" d="M173.841,853.495V1016.11l-68.916,63.811Z" fill="#026672"/>
        <path id="Path_388" data-name="Path 388" d="M173.841,810.486v43.008L93.7,982.214l50.666-209.529Z" fill="#00555b"/>
        <path id="Path_389" data-name="Path 389" d="M173.841,731.846V748.1l-56.153-19.628Z" fill="#00393b"/>
        <path id="Path_390" data-name="Path 390" d="M173.841,715.766v16.08l-38.286-22.027Z" fill="#0e6263"/>
        <path id="Path_391" data-name="Path 391" d="M168.737,686.847l5.1,28.919-38.286-5.947Z" fill="#d1c8cb"/>
        <path id="Path_392" data-name="Path 392" d="M173.841,853.495l-68.916,226.426L93.7,982.214Z" fill="#002821"/>
        <path id="Path_393" data-name="Path 393" d="M173.841,1016.187,163.632,1242H115.391Z" fill="#013b3c"/>
        <path id="Path_394" data-name="Path 394" d="M173.841,731.846l-56.153-3.369L86.421,700.783Z" fill="#003a37"/>
        <path id="Path_395" data-name="Path 395" d="M173.841,731.846,86.421,700.783l49.134,9.036Z" fill="#00221f"/>
        <path id="Path_396" data-name="Path 396" d="M173.841,748.1l-29.481,24.58L84.506,748.1Z" fill="#002b28"/>
        <path id="Path_397" data-name="Path 397" d="M173.841,748.1H84.506l33.182-19.628Z" fill="#013337"/>
        <path id="Path_398" data-name="Path 398" d="M168.737,686.847l-33.182,22.972L76.849,640.9Z" fill="#d9d8d1"/>
        <path id="Path_399" data-name="Path 399" d="M148.317,311.639,125.064,370.7,87.059,321.849Z" fill="#2d2729"/>
        <path id="Path_400" data-name="Path 400" d="M148.317,311.639l-61.258,10.21L56.43,281.01Z" fill="#20211f"/>
        <path id="Path_401" data-name="Path 401" d="M148.317,311.639,56.43,281.01l5.1-33.182Z" fill="#333334"/>
        <path id="Path_402" data-name="Path 402" d="M144.361,772.685,93.7,982.214H93.67l-9.163-79.738Z" fill="#001c26"/>
        <path id="Path_403" data-name="Path 403" d="M144.361,772.685,84.506,902.476l-1.531-61.565v-.026l29.608-41.732Z" fill="#004541"/>
        <path id="Path_404" data-name="Path 404" d="M144.361,772.685l-31.778,26.469L84.506,748.1Z" fill="#003d3f"/>
        <path id="Path_405" data-name="Path 405" d="M133,457.128l7.657,58.706-22.972-20.419Z" fill="#0c0b05"/>
        <path id="Path_406" data-name="Path 406" d="M140.66,515.834,99.821,571.987l12.762-45.944Z" fill="#2c2e2e"/>
        <path id="Path_407" data-name="Path 407" d="M140.66,515.834l-28.077,10.21,5.1-30.629Z" fill="#0d0c05"/>
        <path id="Path_408" data-name="Path 408" d="M76.849,640.9l58.706,68.916-49.134-9.036Z" fill="#021a1d"/>
        <path id="Path_409" data-name="Path 409" d="M125.064,370.7,133,457.128l-38.286-7.657Z" fill="#1c1b15"/>
        <path id="Path_410" data-name="Path 410" d="M125.064,370.7,94.716,449.471l-2.552-68.916Z" fill="#191714"/>
        <path id="Path_411" data-name="Path 411" d="M125.064,370.7l-32.9,9.852-5.1-58.706Z" fill="#161613"/>
        <path id="Path_412" data-name="Path 412" d="M94.716,449.471l22.972,45.944-28.077,10.21Z" fill="#140b03"/>
        <path id="Path_413" data-name="Path 413" d="M117.688,495.414l-5.1,30.629L89.611,505.624Z" fill="#3d2d26"/>
        <path id="Path_414" data-name="Path 414" d="M117.688,728.477,84.506,748.1,80.474,733.99Z" fill="#013b3b"/>
        <path id="Path_415" data-name="Path 415" d="M117.688,728.477,80.474,733.99l5.947-33.207Z" fill="#00433f"/>
        <path id="Path_416" data-name="Path 416" d="M104.926,1079.921,115.391,1242,66.639,1138.627Z" fill="#a5a8b2"/>
        <path id="Path_417" data-name="Path 417" d="M66.639,1138.627,115.391,1242H-1Z" fill="#b2b5c0"/>
        <path id="Path_418" data-name="Path 418" d="M112.583,526.043,99.821,571.987,87.059,543.91Z" fill="#0d0c02"/>
        <path id="Path_419" data-name="Path 419" d="M84.506,748.1l28.077,51.049L82.975,840.886l-1.021-41.732Z" fill="#00312d"/>
        <path id="Path_420" data-name="Path 420" d="M112.583,526.043,87.059,543.91l-48.5,33.182V543.91Z" fill="#ab6c4f"/>
        <path id="Path_421" data-name="Path 421" d="M112.583,526.043,38.563,543.91,23.248,508.176Z" fill="#a86952"/>
        <path id="Path_422" data-name="Path 422" d="M112.583,526.043,23.248,508.176l66.363-2.552Z" fill="#865545"/>
        <path id="Path_423" data-name="Path 423" d="M93.7,982.214l11.231,97.707L18.143,978.385l75.526,3.829Z" fill="#77878b"/>
        <path id="Path_424" data-name="Path 424" d="M18.143,978.385l86.783,101.536L-1,1043.574Z" fill="#949ea6"/>
        <path id="Path_425" data-name="Path 425" d="M104.926,1079.921l-38.286,58.706L-1,1043.574Z" fill="#a3a9b2"/>
        <path id="Path_426" data-name="Path 426" d="M87.059,543.91l12.762,28.077-40.839,23Z" fill="#0b110b"/>
        <path id="Path_427" data-name="Path 427" d="M99.821,571.987,76.849,640.9,79.4,597.512Z" fill="#323330"/>
        <path id="Path_428" data-name="Path 428" d="M99.821,571.987,79.4,597.512l-20.419-2.527Z" fill="#2f2f2a"/>
        <path id="Path_429" data-name="Path 429" d="M92.164,380.555l2.552,68.916L83.868,434.258l-41.86-58.706Z" fill="#995f4c"/>
        <path id="Path_430" data-name="Path 430" d="M83.868,434.258l10.848,15.212-17.867,7.657Z" fill="#654639"/>
        <path id="Path_431" data-name="Path 431" d="M94.716,449.471l-5.1,56.153-21.7-29.353Z" fill="#bc7e73"/>
        <path id="Path_432" data-name="Path 432" d="M94.716,449.471l-26.8,26.8-26.8,3.88-.026-.026.026-.026,35.734-22.972Z" fill="#b57e6c"/>
        <path id="Path_433" data-name="Path 433" d="M84.506,902.476l9.163,79.738-75.526-3.829Z" fill="#7c848c"/>
        <path id="Path_434" data-name="Path 434" d="M87.059,321.849l5.1,58.706-48.5-68.916Z" fill="#111105"/>
        <path id="Path_435" data-name="Path 435" d="M43.668,311.639l48.5,68.916L33.458,337.164Z" fill="#ac7671"/>
        <path id="Path_436" data-name="Path 436" d="M92.164,380.555l-50.155-5L-1,371.239l34.458-34.075Z" fill="#d4a09c"/>
        <path id="Path_437" data-name="Path 437" d="M67.916,476.271l21.7,29.353-48.5-25.473Z" fill="#b67d6e"/>
        <path id="Path_438" data-name="Path 438" d="M89.611,505.624l-66.363,2.552L41.09,480.125l.026.026Z" fill="#b57965"/>
        <path id="Path_439" data-name="Path 439" d="M87.059,543.91,58.982,594.985,38.563,577.092Z" fill="#a3654a"/>
        <path id="Path_440" data-name="Path 440" d="M76.849,640.9l9.572,59.88L48.772,658.77Z" fill="#04120e"/>
        <path id="Path_441" data-name="Path 441" d="M48.772,658.77l37.648,42.013L80.474,733.99,74.3,712.371Z" fill="#081e1a"/>
        <path id="Path_442" data-name="Path 442" d="M80.474,733.99,84.506,748.1l-53.6,2.552Z" fill="#616c71"/>
        <path id="Path_443" data-name="Path 443" d="M84.506,748.1l-2.552,51.049,1.021,41.732L55,766.584Z" fill="#62717a"/>
        <path id="Path_444" data-name="Path 444" d="M82.975,840.911l1.531,61.565L18.143,914.013Z" fill="#87959e"/>
        <path id="Path_445" data-name="Path 445" d="M84.506,902.476,18.143,978.385V914.013Z" fill="#979faa"/>
        <path id="Path_446" data-name="Path 446" d="M84.506,748.1,55,766.584,30.905,750.657Z" fill="#b2b7c2"/>
        <path id="Path_447" data-name="Path 447" d="M42.008,375.552l41.86,58.706L53.877,411.184Z" fill="#bd8c7e"/>
        <path id="Path_448" data-name="Path 448" d="M83.868,434.258l-7.019,22.87L61.535,441.813Z" fill="#7d4c3b"/>
        <path id="Path_449" data-name="Path 449" d="M83.868,434.258l-22.334,7.555-20.419-5.1,7.657-12.762Z" fill="#7a4d41"/>
        <path id="Path_450" data-name="Path 450" d="M83.868,434.258l-35.1-10.312,5.1-12.762Z" fill="#6c4435"/>
        <path id="Path_451" data-name="Path 451" d="M82.975,840.886v.026L33.458,799.153,55,766.584Z" fill="#8d929e"/>
        <path id="Path_452" data-name="Path 452" d="M82.975,840.911l-64.832,73.1L-1,833.943Z" fill="#c2c5cf"/>
        <path id="Path_453" data-name="Path 453" d="M82.975,840.911-1,833.943l34.458-34.79Z" fill="#a3a8b2"/>
        <path id="Path_454" data-name="Path 454" d="M74.3,712.371l6.177,21.619L30.905,750.657Z" fill="#001f18"/>
        <path id="Path_455" data-name="Path 455" d="M79.4,597.512,76.849,640.9,53.877,623.036Z" fill="#121511"/>
        <path id="Path_456" data-name="Path 456" d="M79.4,597.512,53.877,623.036l5.1-28.051Z" fill="#0d0a07"/>
        <path id="Path_457" data-name="Path 457" d="M76.849,457.128,41.115,480.1l-.026.026L23.248,508.176,10.486,469.89Z" fill="#ad796d"/>
        <path id="Path_458" data-name="Path 458" d="M76.849,457.128,10.486,469.89l17.867-15.315,11.665.842,8.755.664,11.205.408,2.833.1Z" fill="#a27264"/>
        <path id="Path_459" data-name="Path 459" d="M76.849,457.128l-14.038-.536,1.276-7.121-2.552-7.657Z" fill="#7d4c3b"/>
        <path id="Path_460" data-name="Path 460" d="M76.849,640.9,48.772,658.77l5.1-35.734Z" fill="#000902"/>
        <path id="Path_461" data-name="Path 461" d="M48.772,658.77l25.524,53.6L20.7,679.189Z" fill="#604e3c"/>
        <path id="Path_462" data-name="Path 462" d="M74.3,712.371,30.905,750.657-1,725.746H25.877Z" fill="#04231d"/>
        <path id="Path_463" data-name="Path 463" d="M74.3,712.371l-48.42,13.375L20.7,679.189Z" fill="#855d4d"/>
        <path id="Path_464" data-name="Path 464" d="M-1,1043.574l67.639,95.052-43.391-35.734Z" fill="#c0c3cc"/>
        <path id="Path_465" data-name="Path 465" d="M66.639,1138.627-1,1242l24.248-139.107Z" fill="#b4b7c1"/>
        <path id="Path_466" data-name="Path 466" d="M61.535,441.813l2.552,7.657-1.276,7.121-21.7-19.883Z" fill="#592d24"/>
        <path id="Path_467" data-name="Path 467" d="M62.811,456.592l-2.833-.1-11.205-.408-8.755-.664-4.007-8.5,5.1-10.21Z" fill="#42281c"/>
        <path id="Path_468" data-name="Path 468" d="M61.535,247.829l-5.1,33.182L-1,244Z" fill="#686c6e"/>
        <path id="Path_469" data-name="Path 469" d="M58.982,594.985l-5.1,28.051-5.1,35.734L.276,628.141l25.6-4.594Z" fill="#865739"/>
        <path id="Path_470" data-name="Path 470" d="M58.982,594.985,25.877,623.546l-25.6,4.594,22.972-17.867Z" fill="#784526"/>
        <path id="Path_471" data-name="Path 471" d="M58.982,594.985,23.248,610.274l6.381-25.5Z" fill="#a0674c"/>
        <path id="Path_472" data-name="Path 472" d="M58.982,594.985l-29.353-10.21,8.934-7.683Z" fill="#844d34"/>
        <path id="Path_473" data-name="Path 473" d="M56.43,281.01,43.668,311.639-1,244Z" fill="#151613"/>
        <path id="Path_474" data-name="Path 474" d="M55,766.584,33.458,799.153l-2.552-48.5Z" fill="#878c94"/>
        <path id="Path_475" data-name="Path 475" d="M42.008,375.552l11.869,35.632-35.734,2.552L-1,415.115Z" fill="#d0a196"/>
        <path id="Path_476" data-name="Path 476" d="M53.877,411.184l-5.1,12.762-30.629.306Z" fill="#573727"/>
        <path id="Path_477" data-name="Path 477" d="M53.877,411.184,18.143,424.253V413.737Z" fill="#774a3d"/>
        <path id="Path_478" data-name="Path 478" d="M48.772,423.946l-7.657,12.762L18.143,424.253Z" fill="#633b2c"/>
        <path id="Path_479" data-name="Path 479" d="M48.772,658.77,20.7,679.189.276,628.141Z" fill="#89533a"/>
        <path id="Path_480" data-name="Path 480" d="M-1,244l44.668,67.639-43.391,5.1H-1Z" fill="#201f1b"/>
        <path id="Path_481" data-name="Path 481" d="M43.668,311.639l-10.21,25.524L.276,316.744Z" fill="#75544f"/>
        <path id="Path_482" data-name="Path 482" d="M-1,371.239l43.008,4.314L-1,415.115Z" fill="#cf9a94"/>
        <path id="Path_483" data-name="Path 483" d="M41.115,436.708l-5.1,10.21,4.007,8.5-11.665-.842L20.7,446.918Z" fill="#5c4136"/>
        <path id="Path_484" data-name="Path 484" d="M41.115,436.708,20.7,446.918l-2.552-22.666Z" fill="#5b392c"/>
        <path id="Path_485" data-name="Path 485" d="M38.563,543.91v33.182l-10.21-15.315L-1,518.386Z" fill="#916156"/>
        <path id="Path_486" data-name="Path 486" d="M23.248,508.176,38.563,543.91-1,518.386H15.591Z" fill="#bb8078"/>
        <path id="Path_487" data-name="Path 487" d="M28.353,561.777l10.21,15.315-15.315-7.657L-1,563.922v-8.244Z" fill="#522011"/>
        <path id="Path_488" data-name="Path 488" d="M38.563,577.092l-8.934,7.683-6.381-15.34Z" fill="#9a604b"/>
        <path id="Path_489" data-name="Path 489" d="M30.905,750.657l2.552,48.5L-1,752.7Z" fill="#777e83"/>
        <path id="Path_490" data-name="Path 490" d="M-1,752.7l34.458,46.454L-1,833.943Z" fill="#adb3b7"/>
        <path id="Path_491" data-name="Path 491" d="M33.458,337.164-1,371.239V316.744H.276Z" fill="#c69c97"/>
        <path id="Path_492" data-name="Path 492" d="M30.905,750.657-1,752.7V725.746Z" fill="#071f1b"/>
        <path id="Path_493" data-name="Path 493" d="M23.248,569.435l6.381,15.34-18.505,10.21Z" fill="#945845"/>
        <path id="Path_494" data-name="Path 494" d="M29.629,584.775l-6.381,25.5L-1,594.985H11.124Z" fill="#a76c55"/>
        <path id="Path_495" data-name="Path 495" d="M-1,518.386l29.353,43.391L-1,555.677Z" fill="#916357"/>
        <path id="Path_496" data-name="Path 496" d="M28.353,454.575,10.486,469.89,20.7,446.918Z" fill="#8c5c4f"/>
        <path id="Path_497" data-name="Path 497" d="M20.7,679.189l5.181,46.556H-1Z" fill="#7f5742"/>
        <path id="Path_498" data-name="Path 498" d="M10.486,469.89l12.762,38.286L10.486,492.249Z" fill="#9b5b55"/>
        <path id="Path_499" data-name="Path 499" d="M10.486,492.249l12.762,15.927-12.124-.128-8.3.128,7.657-38.286Z" fill="#d09891"/>
        <path id="Path_500" data-name="Path 500" d="M23.248,508.176l-7.657,10.21-4.467-10.337Z" fill="#b57771"/>
        <path id="Path_501" data-name="Path 501" d="M23.248,569.435l-12.124,25.55L-1,563.922Z" fill="#925749"/>
        <path id="Path_502" data-name="Path 502" d="M-1,1043.574l24.248,59.318L-1,1242Z" fill="#989da7"/>
        <path id="Path_503" data-name="Path 503" d="M23.248,610.274.276,628.141H-1V594.985Z" fill="#9a6452"/>
        <path id="Path_504" data-name="Path 504" d="M18.143,424.253,20.7,446.918-1,415.115l19.143-1.378Z" fill="#835441"/>
        <path id="Path_505" data-name="Path 505" d="M-1,415.115l21.7,31.8L10.486,469.89Z" fill="#6a3c31"/>
        <path id="Path_506" data-name="Path 506" d="M.276,628.141,20.7,679.189-1,725.746v-97.6Z" fill="#865238"/>
        <path id="Path_507" data-name="Path 507" d="M18.143,914.013v64.372L-1,943.851Z" fill="#d7d1e1"/>
        <path id="Path_508" data-name="Path 508" d="M-1,833.943l19.143,80.07L-1,943.851Z" fill="#c6ccd8"/>
        <path id="Path_509" data-name="Path 509" d="M-1,943.851l19.143,34.534L-1,1043.574Z" fill="#a8adb5"/>
        <path id="Path_510" data-name="Path 510" d="M11.124,508.049l4.467,10.337H-1l3.829-10.21Z" fill="#3e1407"/>
        <path id="Path_511" data-name="Path 511" d="M-1,563.922l12.124,31.063H-1Z" fill="#864d3e"/>
        <path id="Path_512" data-name="Path 512" d="M-1,415.115,10.486,469.89-1,472.034Z" fill="#b9867a"/>
        <path id="Path_513" data-name="Path 513" d="M10.486,469.89,2.829,508.176-1,518.386V472.034Z" fill="#c48b83"/>
      </g>
    </g>
  </g>
</svg>
