<svg xmlns="http://www.w3.org/2000/svg" width="489.128" height="850" viewBox="0 0 489.128 850">
  <g id="Group_223" data-name="Group 223" transform="translate(-1430.978 -235)">
    <g id="Group_222" data-name="Group 222">
      <g id="Group_221" data-name="Group 221">
        <path id="Path_514" data-name="Path 514" d="M1531.246,864.462,1430.978,1085l112.309-72.489Z" fill="#90082e"/>
        <path id="Path_515" data-name="Path 515" d="M1430.978,1085H1544.54l-1.253-72.489Z" fill="#720927"/>
        <path id="Path_516" data-name="Path 516" d="M1590.22,790.744l-58.974,73.718,92.147,8.6Z" fill="#c90841"/>
        <path id="Path_517" data-name="Path 517" d="M1531.246,864.462l12.041,148.049L1544.54,1085l28.479-112.419Z" fill="#85042a"/>
        <path id="Path_518" data-name="Path 518" d="M1531.246,864.462l41.773,108.119,24.573-20.887Z" fill="#a30a36"/>
        <path id="Path_519" data-name="Path 519" d="M1531.246,864.462l66.346,87.232,25.8-78.632Z" fill="#a20b36"/>
        <path id="Path_520" data-name="Path 520" d="M1573.019,972.581,1544.54,1085l30.31-61.751Z" fill="#100114"/>
        <path id="Path_521" data-name="Path 521" d="M1574.85,1023.249,1544.54,1085l28.479-18.712,1.953-39.525Z" fill="#120415"/>
        <path id="Path_522" data-name="Path 522" d="M1544.54,1085h62.107l-33.628-18.712Z" fill="#130214"/>
        <path id="Path_523" data-name="Path 523" d="M1574.85,1023.249l.123,3.514,11.193-52.081-13.146-2.1Z" fill="#38041a"/>
        <path id="Path_524" data-name="Path 524" d="M1573.019,972.581l13.146,2.1,11.426-22.988Z" fill="#6c0928"/>
        <path id="Path_525" data-name="Path 525" d="M1586.166,974.682l-11.193,52.081L1606.647,1085Z" fill="#220217"/>
        <path id="Path_526" data-name="Path 526" d="M1597.592,951.694l-11.426,22.988L1606.647,1085Z" fill="#230014"/>
        <path id="Path_527" data-name="Path 527" d="M1590.22,790.744l33.173,82.318,117.948-4.411Z" fill="#cd0242"/>
        <path id="Path_528" data-name="Path 528" d="M1590.22,790.744l151.121,77.907-61.849-121.917Z" fill="#d70449"/>
        <path id="Path_529" data-name="Path 529" d="M1623.393,873.062l-25.8,78.632,105.662-56.517Z" fill="#b81041"/>
        <path id="Path_530" data-name="Path 530" d="M1597.592,951.694,1606.647,1085l43.923-72.489Z" fill="#820831"/>
        <path id="Path_531" data-name="Path 531" d="M1597.592,951.694l52.978,60.817,52.683-117.334Z" fill="#ac0a3c"/>
        <path id="Path_532" data-name="Path 532" d="M1650.57,1012.511,1606.647,1085h19.769Z" fill="#5e0823"/>
        <path id="Path_533" data-name="Path 533" d="M1623.393,873.062l79.861,22.115,38.087-26.526Z" fill="#c80642"/>
        <path id="Path_534" data-name="Path 534" d="M1650.57,1012.511,1626.416,1085l36.478-26.477h.012l98.094-71.2Z" fill="#9b0832"/>
        <path id="Path_535" data-name="Path 535" d="M1626.416,1085h21.956l14.522-26.477Z" fill="#040b1b"/>
        <path id="Path_536" data-name="Path 536" d="M1662.893,1058.523,1648.371,1085h12.237Z" fill="#030617"/>
        <path id="Path_537" data-name="Path 537" d="M1703.254,895.177l-52.683,117.334L1761,987.324Z" fill="#a00b33"/>
        <path id="Path_538" data-name="Path 538" d="M1662.893,1058.523,1660.608,1085l53.138-38.96-50.84,12.483Z" fill="#010619"/>
        <path id="Path_539" data-name="Path 539" d="M1660.608,1085h119.828l-8.379-81.7-58.311,42.744Z" fill="#92072e"/>
        <path id="Path_540" data-name="Path 540" d="M1662.906,1058.523l53.863-26.968,34.4-25.8L1761,987.324Z" fill="#050714"/>
        <path id="Path_541" data-name="Path 541" d="M1716.769,1031.555l-53.863,26.968,50.84-12.483Z" fill="#000613"/>
        <path id="Path_542" data-name="Path 542" d="M1679.492,746.735l61.849,121.917,2.457-61.935Z" fill="#cf0c48"/>
        <path id="Path_543" data-name="Path 543" d="M1679.492,746.735l64.306,59.982,46.012-39.316Z" fill="#c30640"/>
        <path id="Path_544" data-name="Path 544" d="M1679.492,746.735,1789.811,767.4l-25.125-25.8Z" fill="#cf0946"/>
        <path id="Path_545" data-name="Path 545" d="M1679.492,746.735l85.193-5.136,4.915-29.487-4.915-7.372Z" fill="#d90649"/>
        <path id="Path_546" data-name="Path 546" d="M1703.254,895.177,1761,987.324l-19.658-118.673Z" fill="#af0d3e"/>
        <path id="Path_547" data-name="Path 547" d="M1716.769,1031.555l-3.022,14.485,58.311-42.744Z" fill="#000712"/>
        <path id="Path_548" data-name="Path 548" d="M1716.769,1031.555l55.288-28.258-20.887,2.457Z" fill="#03030f"/>
        <path id="Path_549" data-name="Path 549" d="M1741.341,431.985l-4.914,111.8,18.429-71.26Z" fill="#162431"/>
        <path id="Path_550" data-name="Path 550" d="M1754.856,472.53l-18.429,71.26,36.859-17.2Z" fill="#04101e"/>
        <path id="Path_551" data-name="Path 551" d="M1736.427,543.79l30.716,63.889,34.4,25.8Z" fill="#151829"/>
        <path id="Path_552" data-name="Path 552" d="M1736.427,543.79l65.117,89.69-28.258-106.891Z" fill="#060e19"/>
        <path id="Path_553" data-name="Path 553" d="M1770.828,366.868l-29.487,65.117L1761,404.955l18.429-25.8Z" fill="#4f5055"/>
        <path id="Path_554" data-name="Path 554" d="M1761,404.955l-19.658,27.03,13.515,40.545,22.115-34.4Z" fill="#0c1c29"/>
        <path id="Path_555" data-name="Path 555" d="M1743.8,806.716l-2.457,61.935,154.807,19.154Z" fill="#790a2b"/>
        <path id="Path_556" data-name="Path 556" d="M1741.341,868.651,1761,987.324l49.55-14.744Z" fill="#9c0633"/>
        <path id="Path_557" data-name="Path 557" d="M1741.341,868.651l69.208,103.93,79.455,29.487-59.281-54.993Z" fill="#910931"/>
        <path id="Path_558" data-name="Path 558" d="M1741.341,868.651l89.383,78.423,65.424-59.269Z" fill="#900830"/>
        <path id="Path_559" data-name="Path 559" d="M1743.8,806.716l152.35,81.089-70.032-83.141L1789.823,767.4h-.012Z" fill="#5f0720"/>
        <path id="Path_560" data-name="Path 560" d="M1761,987.324l-9.829,18.429,20.887-2.457Z" fill="#2f3e3b"/>
        <path id="Path_561" data-name="Path 561" d="M1776.971,438.128l-22.115,34.4,18.429,54.06Z" fill="#030617"/>
        <path id="Path_562" data-name="Path 562" d="M1779.429,379.154,1761,404.955l52.831-33.173Z" fill="#283636"/>
        <path id="Path_563" data-name="Path 563" d="M1761,404.955l15.972,33.173,36.859-66.346Z" fill="#07101f"/>
        <path id="Path_564" data-name="Path 564" d="M1761,987.324l11.058,15.972,8.379,81.7,64.417-43.813Z" fill="#8a082e"/>
        <path id="Path_565" data-name="Path 565" d="M1761,987.324l83.854,53.863-34.3-68.606Z" fill="#690424"/>
        <path id="Path_566" data-name="Path 566" d="M1766.676,626.059l-1.99,78.681,19.658-15.935Z" fill="#ae0639"/>
        <path id="Path_567" data-name="Path 567" d="M1764.685,704.74l4.915,7.372,14.744-23.307Z" fill="#ca0e48"/>
        <path id="Path_568" data-name="Path 568" d="M1769.6,712.112l-4.915,29.487,30.716,2.457Z" fill="#190b24"/>
        <path id="Path_569" data-name="Path 569" d="M1764.685,741.6l25.125,25.8h.012l5.578-23.344Z" fill="#0c0d21"/>
        <path id="Path_570" data-name="Path 570" d="M1766.676,626.059l17.668,62.746,1.229-44.267Z" fill="#800d2c"/>
        <path id="Path_571" data-name="Path 571" d="M1767.142,607.679l-.467,18.38,34.868,7.421Z" fill="#141b2b"/>
        <path id="Path_572" data-name="Path 572" d="M1766.676,626.059l18.9,18.479,47.916,13.515-31.944-24.573Z" fill="#020a1d"/>
        <path id="Path_573" data-name="Path 573" d="M1784.343,688.8,1769.6,712.112l56.517,50.374Z" fill="#b60c3b"/>
        <path id="Path_574" data-name="Path 574" d="M1769.6,712.112l25.8,31.944L1813.83,767.4l12.286-4.915Z" fill="#20192b"/>
        <path id="Path_575" data-name="Path 575" d="M1781.554,342.492l-10.726,24.376,52.831-39.316Z" fill="#b70a40"/>
        <path id="Path_576" data-name="Path 576" d="M1770.828,366.868l8.6,12.286,46.688-35.63Z" fill="#3d4045"/>
        <path id="Path_577" data-name="Path 577" d="M1770.828,366.868l55.288-23.344-2.457-15.972Z" fill="#505156"/>
        <path id="Path_578" data-name="Path 578" d="M1776.971,438.128l-3.686,88.461,63.889-46.688Z" fill="#172532"/>
        <path id="Path_579" data-name="Path 579" d="M1773.286,526.589l28.258,106.891,31.944,24.573Z" fill="#000616"/>
        <path id="Path_580" data-name="Path 580" d="M1773.286,526.589l60.2,131.463,8.6-79.861Z" fill="#091523"/>
        <path id="Path_581" data-name="Path 581" d="M1773.286,526.589l68.8,51.6,29.487-25.8Z" fill="#1a2632"/>
        <path id="Path_582" data-name="Path 582" d="M1773.286,526.589l98.29,25.8-20.887-44.231Z" fill="#252f3b"/>
        <path id="Path_583" data-name="Path 583" d="M1773.286,526.589l77.4-18.429L1837.174,479.9Z" fill="#2d3740"/>
        <path id="Path_584" data-name="Path 584" d="M1813.83,371.782l-36.859,66.346,74.049-69.811Z" fill="#0a1624"/>
        <path id="Path_585" data-name="Path 585" d="M1776.971,438.128l60.2,41.773,13.847-111.584Z" fill="#2f383f"/>
        <path id="Path_586" data-name="Path 586" d="M1779.429,379.154l34.4-7.372,12.286-28.258Z" fill="#485052"/>
        <path id="Path_587" data-name="Path 587" d="M1780.436,1085h112.3l-47.88-43.813Z" fill="#930b33"/>
        <path id="Path_588" data-name="Path 588" d="M1811.373,274.721l-29.819,67.771,32.276-28.455Z" fill="#bd083d"/>
        <path id="Path_589" data-name="Path 589" d="M1781.554,342.492l42.1-14.94-9.829-13.515Z" fill="#de1353"/>
        <path id="Path_590" data-name="Path 590" d="M1785.572,644.537l-1.229,44.267,31.441,10.984Z" fill="#a20935"/>
        <path id="Path_591" data-name="Path 591" d="M1784.343,688.8l41.773,73.681-10.333-62.7Z" fill="#c70a40"/>
        <path id="Path_592" data-name="Path 592" d="M1785.572,644.537l30.212,55.251,42.277,23.11v-.2Z" fill="#7f0c2b"/>
        <path id="Path_593" data-name="Path 593" d="M1785.572,644.537l72.489,78.165v-.59l-24.573-64.061Z" fill="#330d22"/>
        <path id="Path_594" data-name="Path 594" d="M1795.4,744.056l-5.578,23.344,36.294,37.264Z" fill="#1c232d"/>
        <path id="Path_595" data-name="Path 595" d="M1795.4,744.056l30.716,60.608L1813.83,767.4Z" fill="#2f2f39"/>
        <path id="Path_596" data-name="Path 596" d="M1810.55,972.581l34.3,68.606,45.152-39.119Z" fill="#950a31"/>
        <path id="Path_597" data-name="Path 597" d="M1811.373,274.721l2.457,39.316,55.288-8.6Z" fill="#b70038"/>
        <path id="Path_598" data-name="Path 598" d="M1811.373,274.721l57.745,30.716,27.03-23.344Z" fill="#f23da6"/>
        <path id="Path_599" data-name="Path 599" d="M1811.373,274.721l84.775,7.372-27.03-38.087Z" fill="#cc0b4c"/>
        <path id="Path_600" data-name="Path 600" d="M1813.83,314.037l9.829,13.515,45.459-22.115Z" fill="#d41052"/>
        <path id="Path_601" data-name="Path 601" d="M1826.116,343.524l-12.286,28.258,55.288-23.344Z" fill="#676765"/>
        <path id="Path_602" data-name="Path 602" d="M1813.83,767.4l12.286,37.264V762.486Z" fill="#000515"/>
        <path id="Path_603" data-name="Path 603" d="M1813.83,371.782l37.19-3.465,18.1-19.879Z" fill="#0f1a20"/>
        <path id="Path_604" data-name="Path 604" d="M1815.784,699.789l10.333,62.7,32.325-39.377-.258-.135-.123.2v-.27Z" fill="#ab0130"/>
        <path id="Path_605" data-name="Path 605" d="M1823.659,327.552l2.457,15.972,43-38.087Z" fill="#3e5050"/>
        <path id="Path_606" data-name="Path 606" d="M1826.116,762.486v42.179l73.718,13.109Z" fill="#6a0c27"/>
        <path id="Path_607" data-name="Path 607" d="M1858.442,723.108l-32.325,39.377,55.743-13.871Z" fill="#680f2d"/>
        <path id="Path_608" data-name="Path 608" d="M1826.116,804.664l70.032,83.141,3.686-70.032Z" fill="#751634"/>
        <path id="Path_609" data-name="Path 609" d="M1826.116,343.524l43,4.914,22.115-27.03Z" fill="#888481"/>
        <path id="Path_610" data-name="Path 610" d="M1826.116,343.524l65.117-22.115-22.115-15.972Z" fill="#7e7a77"/>
        <path id="Path_611" data-name="Path 611" d="M1826.116,762.486l73.718,55.288-24.573-46.688Z" fill="#62041e"/>
        <path id="Path_612" data-name="Path 612" d="M1826.116,762.486l49.145,8.6,6.6-22.472Z" fill="#800e2f"/>
        <path id="Path_613" data-name="Path 613" d="M1830.724,947.074l59.281,54.993,12.286-66.346-6.143-47.916Z" fill="#54001a"/>
        <path id="Path_614" data-name="Path 614" d="M1842.089,578.192l-8.6,79.861,24.573-14.743Z" fill="#061220"/>
        <path id="Path_615" data-name="Path 615" d="M1833.488,658.052l24.573,64.061v-78.8Z" fill="#000314"/>
        <path id="Path_616" data-name="Path 616" d="M1851.021,368.318,1837.174,479.9l13.515,28.258Z" fill="#6c6b70"/>
        <path id="Path_617" data-name="Path 617" d="M1842.089,578.192l15.972,65.117,23.8-22.73Z" fill="#0b1725"/>
        <path id="Path_618" data-name="Path 618" d="M1842.089,578.192l39.771,42.388,38.247-45.115Z" fill="#0a1624"/>
        <path id="Path_619" data-name="Path 619" d="M1842.089,578.192l78.018-2.728-48.531-23.074Z" fill="#172530"/>
        <path id="Path_620" data-name="Path 620" d="M1844.853,1041.187l47.88,43.813.958-27.644-3.686-55.288Z" fill="#91092f"/>
        <path id="Path_621" data-name="Path 621" d="M1851.021,368.318l-.332,139.842,69.417.688V491.291H1867.89V385.3l52.217-.037V368.318Z" fill="#fffff8"/>
        <path id="Path_622" data-name="Path 622" d="M1850.689,508.16l20.887,44.231,48.531-43.543Z" fill="#2f3945"/>
        <path id="Path_623" data-name="Path 623" d="M1869.118,348.439l-18.1,19.879h69.086Z" fill="#2e323e"/>
        <path id="Path_624" data-name="Path 624" d="M1858.061,643.309v78.8l.246.663.332-.516,23.221-101.681Z" fill="#061220"/>
        <path id="Path_625" data-name="Path 625" d="M1858.638,722.26l-.2.848h61.665l-32.559-46.626Z" fill="#020113"/>
        <path id="Path_626" data-name="Path 626" d="M1858.442,723.108l23.418,25.506,38.247-25.506Z" fill="#720f21"/>
        <path id="Path_627" data-name="Path 627" d="M1881.859,620.579,1858.638,722.26l28.91-45.779Z" fill="#020818"/>
        <path id="Path_628" data-name="Path 628" d="M1867.89,424.466v66.825l23.344-40.262Z" fill="#7c7d81"/>
        <path id="Path_629" data-name="Path 629" d="M1867.89,385.3v39.169l23.344,26.563Z" fill="#919096"/>
        <path id="Path_630" data-name="Path 630" d="M1867.89,385.3l23.344,65.732,6.143-39.93Z" fill="#53535d"/>
        <path id="Path_631" data-name="Path 631" d="M1891.234,451.029l-23.344,40.262H1894Z" fill="#3e3d4d"/>
        <path id="Path_632" data-name="Path 632" d="M1867.89,385.3l29.487,25.8,22.73-25.838Z" fill="#32393f"/>
        <path id="Path_633" data-name="Path 633" d="M1869.118,244.005l27.03,38.087,23.958-27.964Z" fill="#d80673"/>
        <path id="Path_634" data-name="Path 634" d="M1891.234,321.409l-22.115,27.03,50.988-5.947Z" fill="#4d5c49"/>
        <path id="Path_635" data-name="Path 635" d="M1869.118,244.005l50.988,10.124V235Z" fill="#d70b64"/>
        <path id="Path_636" data-name="Path 636" d="M1869.118,305.437l22.115,15.972,28.873-19.486Z" fill="#8c8984"/>
        <path id="Path_637" data-name="Path 637" d="M1869.118,305.437l50.988-3.514-23.958-19.83Z" fill="#f1339f"/>
        <path id="Path_638" data-name="Path 638" d="M1869.118,348.439l50.988,19.879V342.492Z" fill="#202938"/>
        <path id="Path_639" data-name="Path 639" d="M1871.576,552.391l48.531,23.074V508.848Z" fill="#263242"/>
        <path id="Path_640" data-name="Path 640" d="M1881.859,748.614l-6.6,22.472,35.63-2.457,9.215-1.609Z" fill="#350922"/>
        <path id="Path_641" data-name="Path 641" d="M1875.261,771.086l24.573,46.688-1.229-33.173Z" fill="#21051c"/>
        <path id="Path_642" data-name="Path 642" d="M1875.261,771.086l23.344,13.515,12.286-15.972Z" fill="#28061e"/>
        <path id="Path_643" data-name="Path 643" d="M1920.106,575.464l-38.247,45.115,38.247,12.9Z" fill="#05111f"/>
        <path id="Path_644" data-name="Path 644" d="M1881.859,620.579l5.688,55.9,32.559,46.626Z" fill="#040a1a"/>
        <path id="Path_645" data-name="Path 645" d="M1881.859,620.579l38.247,102.529V633.48Z" fill="#030c1b"/>
        <path id="Path_646" data-name="Path 646" d="M1881.859,748.614l38.247,18.4V723.108Z" fill="#450619"/>
        <path id="Path_647" data-name="Path 647" d="M1902.291,935.722l-12.286,66.346,30.1-12.95-23.958-101.312Z" fill="#4d484f"/>
        <path id="Path_648" data-name="Path 648" d="M1890.005,1002.068l3.686,55.288L1920.106,1085Z" fill="#2c091d"/>
        <path id="Path_649" data-name="Path 649" d="M1890.005,1002.068l30.1,82.932-9.215-58.237Z" fill="#151e27"/>
        <path id="Path_650" data-name="Path 650" d="M1890.005,1002.068l20.887,24.7,9.215-37.645Z" fill="#20252b"/>
        <path id="Path_651" data-name="Path 651" d="M1897.377,411.1l-6.143,39.93,28.873-26.563Z" fill="#323c45"/>
        <path id="Path_652" data-name="Path 652" d="M1891.234,451.029,1894,491.291h26.108Z" fill="#545861"/>
        <path id="Path_653" data-name="Path 653" d="M1891.234,451.029l28.873,40.262V424.466Z" fill="#333d49"/>
        <path id="Path_654" data-name="Path 654" d="M1891.234,321.409l28.873,21.083V301.923Z" fill="#a699a0"/>
        <path id="Path_655" data-name="Path 655" d="M1893.691,1057.356l-.958,27.644h27.374Z" fill="#06101a"/>
        <path id="Path_656" data-name="Path 656" d="M1920.106,254.129l-23.958,27.964,23.958,19.83Z" fill="#ef2b8f"/>
        <path id="Path_657" data-name="Path 657" d="M1899.834,817.774l-3.686,70.032,14.744,5.947Z" fill="#323443"/>
        <path id="Path_658" data-name="Path 658" d="M1896.148,887.805l23.958,101.313-9.215-95.366Z" fill="#071017"/>
        <path id="Path_659" data-name="Path 659" d="M1920.106,385.26l-22.73,25.838,22.73,13.367Z" fill="#28323c"/>
        <path id="Path_660" data-name="Path 660" d="M1910.892,768.629,1898.605,784.6l12.286,31.158Z" fill="#200017"/>
        <path id="Path_661" data-name="Path 661" d="M1898.605,784.6l1.229,33.173,11.058-2.015Z" fill="#39051b"/>
        <path id="Path_662" data-name="Path 662" d="M1899.834,817.774l11.058,75.978,9.215-79.676-9.215,1.683Z" fill="#0e1b24"/>
        <path id="Path_663" data-name="Path 663" d="M1910.892,768.629v47.13l3.686-31.158Z" fill="#4b5554"/>
        <path id="Path_664" data-name="Path 664" d="M1910.892,768.629l3.686,15.972,5.529-17.582Z" fill="#59575a"/>
        <path id="Path_665" data-name="Path 665" d="M1920.106,814.076l-9.215,79.676,9.215,95.366Z" fill="#020c18"/>
        <path id="Path_666" data-name="Path 666" d="M1920.106,989.118l-9.215,37.645,9.215,58.237Z" fill="#1a212b"/>
        <path id="Path_667" data-name="Path 667" d="M1914.578,784.6l-3.686,31.158,9.215-1.683Z" fill="#253937"/>
        <path id="Path_668" data-name="Path 668" d="M1920.106,767.019l-5.529,17.582,5.529,29.475Z" fill="#60575c"/>
      </g>
    </g>
  </g>
</svg>
