<svg xmlns="http://www.w3.org/2000/svg" width="1780.264" height="271.445" viewBox="0 0 1780.264 271.445">
  <g id="Group_217" data-name="Group 217" transform="translate(-139.736)">
    <circle id="Ellipse_15" data-name="Ellipse 15" cx="36" cy="36" r="36" transform="translate(732 142)" fill="#f24687"/>
    <g id="Group_216" data-name="Group 216">
      <g id="Group_215" data-name="Group 215">
        <path id="Path_349" data-name="Path 349" d="M223.236,169.19l-31.312,65.724L139.736,125.32h23.485l28.7,60.016,19.57-40.935,11.742-24.3,11.743,24.3,19.57,40.935,28.7-60.016h23.484L254.549,234.914Z" fill="#fff"/>
        <path id="Path_350" data-name="Path 350" d="M416.33,125.32V146.2h-83.5V208.82h83.5V229.7H311.955V125.32Zm62.625,62.625H358.924V167.07H478.955Z" fill="#fff"/>
        <path id="Path_351" data-name="Path 351" d="M511.246,208.82h83.5V229.7H490.371V0h20.875Z" fill="#fff"/>
        <path id="Path_352" data-name="Path 352" d="M642.2,208.82h73.063V229.7H642.2a52.06,52.06,0,0,1-52.187-52.187A52.062,52.062,0,0,1,642.2,125.32h83.5L715.267,146.2H642.2a31.368,31.368,0,0,0-22.18,53.493A30.187,30.187,0,0,0,642.2,208.82Z" fill="#fff"/>
        <path id="Path_353" data-name="Path 353" d="M767.617,229.7a52.06,52.06,0,0,1-52.187-52.187,52.188,52.188,0,1,1,89.126,36.939A50.307,50.307,0,0,1,767.617,229.7Zm0-20.875a31.367,31.367,0,0,0,22.18-53.492,31.367,31.367,0,0,0-44.359,44.36A30.183,30.183,0,0,0,767.617,208.82Z" fill="#fff"/>
        <path id="Path_354" data-name="Path 354" d="M852.748,167.07V271.445H831.873V125.32h20.875L894.5,203.6l41.75-78.282h20.875V229.7H936.248V167.07L904.936,229.7H884.061Z" fill="#fff"/>
        <path id="Path_355" data-name="Path 355" d="M1084.656,125.32V146.2h-83.5V208.82h83.5V229.7H980.281V125.32ZM1920,187.945H1027.25V167.07H1920Z" fill="#fff"/>
      </g>
    </g>
  </g>
</svg>
