<svg xmlns="http://www.w3.org/2000/svg" viewBox="0 0 1905.67 17.56"><defs><style>.cls-1{fill:#131314;}</style></defs><g id="Layer_2" data-name="Layer 2"><g id="Layer_1-2" data-name="Layer 1"><path class="cls-1" d="M9.86,6.74l4.23,7.33H5.63L9.86,6.74m0-6.5L0,17.32H19.72L9.86.24Z"/><path class="cls-1" d="M38.15,3.25V14.3H27.09v-11H38.15M41.4,0H23.84V17.56H41.4V0Z"/><path class="cls-1" d="M54.08,3.25a5.53,5.53,0,1,1-5.53,5.53,5.53,5.53,0,0,1,5.53-5.53m0-3.25a8.78,8.78,0,1,0,8.77,8.78A8.78,8.78,0,0,0,54.08,0Z"/><path class="cls-1" d="M160.06,6.74l4.23,7.33h-8.46l4.23-7.33m0-6.5L150.2,17.32h19.72L160.06.24Z"/><path class="cls-1" d="M188.35,3.25V14.3H177.29v-11h11.06M191.6,0H174V17.56H191.6V0Z"/><path class="cls-1" d="M204.28,3.25a5.53,5.53,0,1,1-5.53,5.53,5.53,5.53,0,0,1,5.53-5.53m0-3.25a8.78,8.78,0,1,0,8.77,8.78A8.78,8.78,0,0,0,204.28,0Z"/><path class="cls-1" d="M139.26,3.25a5.53,5.53,0,1,1-5.53,5.53,5.53,5.53,0,0,1,5.53-5.53m0-3.25A8.78,8.78,0,1,0,148,8.78,8.78,8.78,0,0,0,139.26,0Z"/><path class="cls-1" d="M118.45,6.74l4.23,7.33h-8.46l4.23-7.33m0-6.5-9.86,17.08h19.72L118.45.24Z"/><path class="cls-1" d="M81.06,3.25V14.3H70v-11h11M84.31,0H66.76V17.56H84.31V0Z"/><path class="cls-1" d="M231.91,3.25V14.3h-11v-11h11M235.16,0H217.61V17.56h17.55V0Z"/><path class="cls-1" d="M97.64,3.25a5.53,5.53,0,1,1-5.53,5.53,5.54,5.54,0,0,1,5.53-5.53m0-3.25a8.78,8.78,0,1,0,8.78,8.78A8.78,8.78,0,0,0,97.64,0Z"/><path class="cls-1" d="M249.79,6.74,254,14.07h-8.46l4.23-7.33m0-6.5-9.86,17.08h19.72L249.79.24Z"/><path class="cls-1" d="M278.08,3.25V14.3H267v-11h11.06M281.33,0H263.77V17.56h17.56V0Z"/><path class="cls-1" d="M294,3.25a5.53,5.53,0,1,1-5.53,5.53A5.53,5.53,0,0,1,294,3.25M294,0a8.78,8.78,0,1,0,8.77,8.78A8.78,8.78,0,0,0,294,0Z"/><path class="cls-1" d="M400,6.74l4.23,7.33h-8.46L400,6.74m0-6.5-9.86,17.08h19.72L400,.24Z"/><path class="cls-1" d="M428.28,3.25V14.3H417.22v-11h11.06M431.53,0H414V17.56h17.56V0Z"/><path class="cls-1" d="M444.21,3.25a5.53,5.53,0,1,1-5.53,5.53,5.53,5.53,0,0,1,5.53-5.53m0-3.25A8.78,8.78,0,1,0,453,8.78,8.78,8.78,0,0,0,444.21,0Z"/><path class="cls-1" d="M379.18,3.25a5.53,5.53,0,1,1-5.52,5.53,5.54,5.54,0,0,1,5.52-5.53m0-3.25A8.78,8.78,0,1,0,388,8.78,8.78,8.78,0,0,0,379.18,0Z"/><path class="cls-1" d="M358.38,6.74l4.23,7.33h-8.46l4.23-7.33m0-6.5-9.86,17.08h19.72L358.38.24Z"/><path class="cls-1" d="M321,3.25V14.3H309.94v-11H321M324.24,0H306.69V17.56h17.55V0Z"/><path class="cls-1" d="M471.84,3.25V14.3h-11v-11h11M475.09,0H457.54V17.56h17.55V0Z"/><path class="cls-1" d="M337.57,3.25A5.53,5.53,0,1,1,332,8.78a5.54,5.54,0,0,1,5.53-5.53m0-3.25a8.78,8.78,0,1,0,8.78,8.78A8.78,8.78,0,0,0,337.57,0Z"/><path class="cls-1" d="M489.72,6.74,494,14.07h-8.46l4.23-7.33m0-6.5-9.86,17.08h19.72L489.72.24Z"/><path class="cls-1" d="M554.72,6.74,559,14.07h-8.46l4.23-7.33m0-6.5-9.86,17.08h19.72L554.72.24Z"/><path class="cls-1" d="M518,3.25V14.3H507v-11H518M521.26,0H503.7V17.56h17.56V0Z"/><path class="cls-1" d="M533.94,3.25a5.53,5.53,0,1,1-5.53,5.53,5.53,5.53,0,0,1,5.53-5.53m0-3.25a8.78,8.78,0,1,0,8.77,8.78A8.78,8.78,0,0,0,533.94,0Z"/><path class="cls-1" d="M1350.71,6.74l4.23,7.33h-8.46l4.23-7.33m0-6.5-9.86,17.08h19.72L1350.71.24Z"/><path class="cls-1" d="M1379,3.25V14.3h-11v-11h11M1382.24,0h-17.55V17.56h17.55V0Z"/><path class="cls-1" d="M1394.92,3.25a5.53,5.53,0,1,1-5.52,5.53,5.54,5.54,0,0,1,5.52-5.53m0-3.25a8.78,8.78,0,1,0,8.78,8.78A8.78,8.78,0,0,0,1394.92,0Z"/><path class="cls-1" d="M1329.9,3.25a5.53,5.53,0,1,1-5.52,5.53,5.54,5.54,0,0,1,5.52-5.53m0-3.25a8.78,8.78,0,1,0,8.78,8.78A8.78,8.78,0,0,0,1329.9,0Z"/><path class="cls-1" d="M1422.56,3.25V14.3H1411.5v-11h11.06M1425.81,0h-17.56V17.56h17.56V0Z"/><path class="cls-1" d="M1440.44,6.74l4.23,7.33h-8.46l4.23-7.33m0-6.5-9.86,17.08h19.72L1440.44.24Z"/><path class="cls-1" d="M1468.72,3.25V14.3h-11v-11h11M1472,0h-17.55V17.56H1472V0Z"/><path class="cls-1" d="M1484.65,3.25a5.53,5.53,0,1,1-5.52,5.53,5.54,5.54,0,0,1,5.52-5.53m0-3.25a8.78,8.78,0,1,0,8.78,8.78A8.78,8.78,0,0,0,1484.65,0Z"/><path class="cls-1" d="M1590.64,6.74l4.23,7.33h-8.46l4.23-7.33m0-6.5-9.86,17.08h19.72L1590.64.24Z"/><path class="cls-1" d="M1618.92,3.25V14.3h-11.05v-11h11.05M1622.17,0h-17.55V17.56h17.55V0Z"/><path class="cls-1" d="M1634.85,3.25a5.53,5.53,0,1,1-5.52,5.53,5.54,5.54,0,0,1,5.52-5.53m0-3.25a8.78,8.78,0,1,0,8.78,8.78A8.78,8.78,0,0,0,1634.85,0Z"/><path class="cls-1" d="M1569.83,3.25a5.53,5.53,0,1,1-5.53,5.53,5.54,5.54,0,0,1,5.53-5.53m0-3.25a8.78,8.78,0,1,0,8.78,8.78A8.78,8.78,0,0,0,1569.83,0Z"/><path class="cls-1" d="M1549,6.74l4.24,7.33h-8.47L1549,6.74m0-6.5-9.86,17.08h19.73L1549,.24Z"/><path class="cls-1" d="M1511.64,3.25V14.3h-11.06v-11h11.06M1514.89,0h-17.56V17.56h17.56V0Z"/><path class="cls-1" d="M1662.49,3.25V14.3h-11.06v-11h11.06M1665.74,0h-17.56V17.56h17.56V0Z"/><path class="cls-1" d="M1528.22,3.25a5.53,5.53,0,1,1-5.53,5.53,5.53,5.53,0,0,1,5.53-5.53m0-3.25A8.78,8.78,0,1,0,1537,8.78,8.78,8.78,0,0,0,1528.22,0Z"/><path class="cls-1" d="M1680.37,6.74l4.23,7.33h-8.46l4.23-7.33m0-6.5-9.86,17.08h19.72L1680.37.24Z"/><path class="cls-1" d="M1708.65,3.25V14.3H1697.6v-11h11.05M1711.9,0h-17.55V17.56h17.55V0Z"/><path class="cls-1" d="M1724.58,3.25a5.53,5.53,0,1,1-5.52,5.53,5.54,5.54,0,0,1,5.52-5.53m0-3.25a8.78,8.78,0,1,0,8.78,8.78A8.78,8.78,0,0,0,1724.58,0Z"/><path class="cls-1" d="M1830.57,6.74l4.23,7.33h-8.46l4.23-7.33m0-6.5-9.86,17.08h19.72L1830.57.24Z"/><path class="cls-1" d="M1858.85,3.25V14.3h-11v-11h11M1862.1,0h-17.55V17.56h17.55V0Z"/><path class="cls-1" d="M1874.78,3.25a5.53,5.53,0,1,1-5.52,5.53,5.54,5.54,0,0,1,5.52-5.53m0-3.25a8.78,8.78,0,1,0,8.78,8.78A8.78,8.78,0,0,0,1874.78,0Z"/><path class="cls-1" d="M1809.76,3.25a5.53,5.53,0,1,1-5.53,5.53,5.54,5.54,0,0,1,5.53-5.53m0-3.25a8.78,8.78,0,1,0,8.78,8.78A8.78,8.78,0,0,0,1809.76,0Z"/><path class="cls-1" d="M1789,6.74l4.24,7.33h-8.47L1789,6.74m0-6.5-9.86,17.08h19.73L1789,.24Z"/><path class="cls-1" d="M1751.57,3.25V14.3h-11.06v-11h11.06M1754.82,0h-17.56V17.56h17.56V0Z"/><path class="cls-1" d="M1902.42,3.25V14.3h-11.06v-11h11.06M1905.67,0h-17.56V17.56h17.56V0Z"/><path class="cls-1" d="M1768.15,3.25a5.53,5.53,0,1,1-5.53,5.53,5.53,5.53,0,0,1,5.53-5.53m0-3.25a8.78,8.78,0,1,0,8.78,8.78A8.78,8.78,0,0,0,1768.15,0Z"/></g></g></svg>