<svg xmlns="http://www.w3.org/2000/svg" viewBox="0 0 329.28 320"><defs><style>.cls-1{opacity:0.45;}.cls-2{fill:#33362b;}.cls-3{fill:#303128;}.cls-4{fill:#383b2f;}.cls-5{fill:#211f14;}.cls-6{fill:#211f15;}.cls-7{fill:#28261c;}.cls-8{fill:#36372a;}.cls-9{fill:#353b2c;}.cls-10{fill:#282316;}.cls-11{fill:#212014;}.cls-12{fill:#2c2d1f;}.cls-13{fill:#252115;}.cls-14{fill:#2c2a18;}.cls-15{fill:#262212;}.cls-16{fill:#2a2a15;}.cls-17{fill:#30301e;}.cls-18{fill:#2c2b19;}.cls-19{fill:#241f16;}.cls-20{fill:#766181;}.cls-21{fill:#5d4c62;}.cls-22{fill:#28261b;}.cls-23{fill:#242215;}.cls-24{fill:#292717;}.cls-25{fill:#5e4d6b;}.cls-26{fill:#ccbe8b;}.cls-27{fill:#f1f0f1;}.cls-28{fill:#e1dcda;}.cls-29{fill:#d6d4d5;}.cls-30{fill:#e6e2d8;}.cls-31{fill:#2a271b;}.cls-32{fill:#2d2c1c;}.cls-33{fill:#28271e;}.cls-34{fill:#282817;}.cls-35{fill:#73627e;}.cls-36{fill:#252117;}.cls-37{fill:#242735;}.cls-38{fill:#232327;}.cls-39{fill:#27271f;}.cls-40{fill:#594c66;}.cls-41{fill:#6a567c;}.cls-42{fill:#d9d5d5;}.cls-43{fill:#efeff1;}.cls-44{fill:#666346;}.cls-45{fill:#918b95;}.cls-46{fill:#27231c;}.cls-47{fill:#221e13;}.cls-48{fill:#232416;}.cls-49{fill:#faf7f7;}.cls-50{fill:#2a281b;}.cls-51{fill:#78767c;}.cls-52{fill:#282117;}.cls-53{fill:#2a2c29;}.cls-54{fill:#40383b;}.cls-55{fill:#775c7e;}.cls-56{fill:#806987;}.cls-57{fill:#5b5a6d;}.cls-58{fill:#262c34;}.cls-59{fill:#dddbda;}.cls-60{fill:#2f332a;}.cls-61{fill:#2c2b14;}.cls-62{fill:#2a2a17;}.cls-63{fill:#5d4567;}.cls-64{fill:#46324d;}.cls-65{fill:#a6a193;}.cls-66{fill:#19180c;}.cls-67{fill:#a3aea2;}.cls-68{fill:#c0bab6;}.cls-69{fill:#40334b;}.cls-70{fill:#d8deda;}.cls-71{fill:#dce1db;}.cls-72{fill:#b0bcaa;}.cls-73{fill:#4b3653;}.cls-74{fill:#22170d;}.cls-75{fill:#e0dbdc;}.cls-76{fill:#ddd5db;}.cls-77{fill:#151307;}.cls-78{fill:#665363;}.cls-79{fill:#262a10;}.cls-80{fill:#d6d0d7;}.cls-81{fill:#ccccc2;}.cls-82{fill:#202317;}.cls-83{fill:#dbded9;}.cls-84{fill:#2a1911;}.cls-85{fill:#6f5072;}.cls-86{fill:#7c5f7f;}.cls-87{fill:#372c3d;}.cls-88{fill:#64555d;}.cls-89{fill:#261f08;}.cls-90{fill:#443449;}.cls-91{fill:#2e3026;}.cls-92{fill:#422e42;}.cls-93{fill:#eee1eb;}.cls-94{fill:#c1c6ba;}.cls-95{fill:#29220e;}.cls-96{fill:#322b45;}.cls-97{fill:#283435;}.cls-98{fill:#2f352b;}.cls-99{fill:#f0eaf0;}.cls-100{fill:#1a1b12;}.cls-101{fill:#f1f3f2;}.cls-102{fill:#f3f2f2;}.cls-103{fill:#faf7ee;}.cls-104{fill:#eeeeed;}.cls-105{fill:#d9e1dd;}.cls-106{fill:#dfe8df;}.cls-107{fill:#d1d0be;}.cls-108{fill:#b8af84;}.cls-109{fill:#ebe9de;}.cls-110{fill:#e7f0f0;}.cls-111{fill:#f0f3f2;}.cls-112{fill:#e4e2df;}.cls-113{fill:#b7c5b0;}.cls-114{fill:#f2f0f2;}.cls-115{fill:#f2f1f2;}.cls-116{fill:#f0eff1;}.cls-117{fill:#343e36;}.cls-118{fill:#c8d2aa;}.cls-119{fill:#cad7ad;}.cls-120{fill:#2a4136;}.cls-121{fill:#dee1dc;}.cls-122{fill:#4f6864;}.cls-123{fill:#325150;}.cls-124{fill:#243639;}.cls-125{fill:#53665b;}.cls-126{fill:#e7ddd8;}.cls-127{fill:#28302c;}.cls-128{fill:#29312b;}.cls-129{fill:#37453c;}.cls-130{fill:#757777;}.cls-131{fill:#2c4752;}.cls-132{fill:#9b9d78;}.cls-133{fill:#252d2f;}.cls-134{fill:#d6d9d6;}.cls-135{fill:#d5d6d4;}.cls-136{fill:#e7e6dc;}.cls-137{fill:#d4d2c9;}.cls-138{fill:#2f4445;}.cls-139{fill:#25261e;}.cls-140{fill:#e1e3dd;}.cls-141{fill:#dad3b9;}.cls-142{fill:#b9c5b2;}.cls-143{fill:#f2f3f2;}.cls-144{fill:#e2e2dd;}.cls-145{fill:#c4cbd5;}.cls-146{fill:#cfdad8;}.cls-147{fill:#c5cfbf;}.cls-148{fill:#d4dcdc;}.cls-149{fill:#c1ba95;}.cls-150{fill:#e6e0c8;}.cls-151{fill:#d0c6bc;}.cls-152{fill:#364638;}.cls-153{fill:#f1f1f1;}.cls-154{fill:#dfd5bd;}.cls-155{fill:#c4d3bf;}.cls-156{fill:#f1f2f3;}.cls-157{fill:#a0a197;}.cls-158{fill:#390500;}.cls-159{fill:#9b8a91;}.cls-160{fill:#eff0f1;}.cls-161{fill:#f0f1f1;}.cls-162{fill:#edefe0;}.cls-163{fill:#e3e4de;}.cls-164{fill:#e4e7e0;}.cls-165{fill:#cdc5bc;}.cls-166{fill:#d8d2d2;}.cls-167{fill:#23282b;}.cls-168{fill:#242b26;}.cls-169{fill:#eff1f1;}.cls-170{fill:#794544;}.cls-171{fill:#894f3c;}.cls-172{fill:#80736c;}.cls-173{fill:#c8cac4;}.cls-174{fill:#bfb4b8;}.cls-175{fill:#93787c;}.cls-176{fill:#ebf1f0;}.cls-177{fill:#d2c2bc;}.cls-178{fill:#fbfcff;}.cls-179{fill:#b2bbaf;}.cls-180{fill:#242c2c;}.cls-181{fill:#968656;}.cls-182{fill:#88752d;}.cls-183{fill:#b5b2bb;}.cls-184{fill:#beb6a4;}.cls-185{fill:#b0a78d;}.cls-186{fill:#c0baa0;}.cls-187{fill:#5f2a2c;}.cls-188{fill:#f1f2f2;}.cls-189{fill:#dcdcd9;}.cls-190{fill:#b0928f;}.cls-191{fill:#858080;}.cls-192{fill:#b0a58b;}.cls-193{fill:#c6c0ab;}.cls-194{fill:#84756f;}.cls-195{fill:#886561;}.cls-196{fill:#c1bcaf;}.cls-197{fill:#8a706d;}.cls-198{fill:#bcbbb8;}</style></defs><g id="Layer_2" data-name="Layer 2"><g id="Layer_1-2" data-name="Layer 1"><g class="cls-1"><polygon class="cls-2" points="329.28 276.55 325.91 298.91 311.59 283.51 329.28 276.55"/><polygon class="cls-3" points="329.28 276.55 311.59 283.51 313.79 266.99 329.28 276.55"/><path class="cls-4" d="M329.28,276.55,313.79,267l-.12-9.85C314.09,257.14,329.28,276.55,329.28,276.55Z"/><polygon class="cls-5" points="311.59 283.51 325.91 298.91 303.55 286.67 311.59 283.51"/><polygon class="cls-6" points="325.91 298.91 308.61 311.56 303.55 286.67 325.91 298.91"/><polygon class="cls-7" points="313.79 266.99 311.59 283.51 289.62 252.08 313.79 266.99"/><path class="cls-8" d="M313.67,257.14l.12,9.85-24.17-14.91,23.95,5h0Z"/><path class="cls-8" d="M313.57,257.12l.1,0Z"/><path class="cls-9" d="M313.57,257.12l-23.95-5L291,249.3h0C291.31,249.42,311.86,256.65,313.57,257.12Z"/><polygon class="cls-10" points="289.62 252.08 311.59 283.51 303.55 286.67 297.47 271.9 289.62 252.08"/><polygon class="cls-11" points="303.55 286.67 308.61 311.56 303.13 317.89 303.55 286.67"/><polygon class="cls-7" points="297.47 271.9 303.55 286.67 290.47 278.23 297.47 271.9"/><polygon class="cls-12" points="303.55 286.67 303.13 317.89 293.77 305.26 303.55 286.67"/><polygon class="cls-13" points="303.55 286.67 293.77 305.26 288.75 298.59 289.2 298.08 303.55 286.67"/><polygon class="cls-14" points="303.55 286.67 289.2 298.08 288.75 298.59 290.47 278.23 303.55 286.67"/><polygon class="cls-15" points="293.77 305.26 303.13 317.89 287.12 317.89 293.77 305.26"/><polygon class="cls-16" points="289.62 252.08 297.47 271.9 280.34 258.69 282.06 252.08 289.62 252.08"/><polygon class="cls-17" points="297.47 271.9 290.47 278.23 280.35 270.9 297.47 271.9"/><polygon class="cls-18" points="297.47 271.9 280.35 270.9 280.34 270.9 280.34 258.69 297.47 271.9"/><polygon class="cls-19" points="288.75 298.59 293.77 305.26 287.12 317.89 288.75 298.59"/><polygon class="cls-20" points="287.51 237.56 292.73 245.64 284.97 245.64 287.51 237.56"/><path class="cls-21" d="M292.73,245.64,291,249.3h0l-1.34,2.78L285,245.64Z"/><polygon class="cls-22" points="290.47 278.23 288.75 298.59 282.06 295.98 290.47 278.23"/><polygon class="cls-23" points="290.47 278.23 282.06 295.98 282.06 295.98 280.34 281.74 290.47 278.23"/><polygon class="cls-24" points="290.47 278.23 280.34 281.74 280.34 270.9 280.35 270.9 290.47 278.23"/><polygon class="cls-25" points="284.97 245.64 289.62 252.08 282.06 252.08 284.97 245.64"/><polygon class="cls-26" points="288.36 176.14 289.2 189.64 280.27 175.29 280.34 168.97 288.36 176.14"/><polygon class="cls-27" points="280.27 175.29 289.2 189.64 276.36 184.4 280.27 175.29"/><polygon class="cls-28" points="289.2 189.64 284.14 207.36 282.87 214.53 279.5 198.5 289.2 189.64"/><polygon class="cls-29" points="289.2 189.64 279.5 198.5 270.22 191.75 289.2 189.64"/><polygon class="cls-30" points="289.2 189.64 270.22 191.75 276.36 184.4 289.2 189.64"/><polygon class="cls-31" points="288.75 298.59 281.55 306.75 271.67 317.93 282.06 295.98 288.75 298.59"/><polygon class="cls-32" points="281.55 306.75 288.75 298.59 287.12 317.89 281.55 306.75"/><polygon class="cls-33" points="284.14 207.36 287.51 222.54 265.06 241.95 265.06 241.95 279.08 220.01 282.87 214.53 284.14 207.36"/><polygon class="cls-34" points="287.51 222.54 278.09 237.56 278.09 237.56 274.85 242.71 265.06 241.95 287.51 222.54"/><polygon class="cls-35" points="287.51 237.56 284.97 245.64 278.09 237.56 278.09 237.56 287.51 237.56"/><polygon class="cls-36" points="281.55 306.75 287.12 317.89 278.65 320 281.55 306.75"/><polygon class="cls-37" points="276.36 81.28 286.67 128.46 264.31 105.68 276.36 81.28"/><polygon class="cls-38" points="264.31 105.68 286.67 128.46 268.11 142.39 264.31 105.68"/><polygon class="cls-39" points="286.67 128.46 280.34 168.97 268.11 142.39 286.67 128.46"/><polygon class="cls-40" points="278.09 237.56 284.97 245.64 276.29 243.22 278.09 237.56"/><polygon class="cls-41" points="284.97 245.64 282.06 252.08 279.08 247.06 276.29 243.22 284.97 245.64"/><polygon class="cls-42" points="279.5 198.5 282.87 214.53 270.21 191.75 270.22 191.75 279.5 198.5"/><polygon class="cls-43" points="270.21 191.75 282.87 214.53 272.66 220.01 272.33 205.25 270.21 191.75"/><polygon class="cls-44" points="282.87 214.53 279.08 220.01 272.66 220.01 282.87 214.53"/><polygon class="cls-23" points="282.06 295.98 271.67 317.93 275.83 300.54 280.34 281.74 282.06 295.98 282.06 295.98"/><polygon class="cls-45" points="279.08 247.06 282.06 252.08 280.34 258.69 275.33 256.4 279.08 247.06"/><polygon class="cls-46" points="271.67 317.93 281.55 306.75 278.65 320 271.67 317.93"/><polygon class="cls-47" points="280.34 270.9 280.34 281.74 268.55 262.35 280.34 270.9"/><polygon class="cls-47" points="280.34 258.69 280.34 270.9 268.55 262.35 273.17 261.78 280.34 258.69"/><polygon class="cls-48" points="268.11 142.39 280.34 168.97 271.48 171.07 268.11 142.39"/><polygon class="cls-49" points="280.34 168.97 280.27 175.29 276.36 184.4 271.48 171.07 280.34 168.97"/><polygon class="cls-47" points="268.55 262.35 280.34 281.74 270.22 280.76 268.53 266.42 268.55 262.35"/><polygon class="cls-14" points="280.34 281.74 275.83 300.54 272.53 293.51 280.34 281.74"/><polygon class="cls-50" points="280.34 281.74 272.53 293.51 270.22 280.76 280.34 281.74"/><polygon class="cls-51" points="280.34 258.69 273.17 261.78 275.33 256.4 280.34 258.69"/><polygon class="cls-52" points="279.08 220.01 265.06 241.95 268.55 231.83 268.55 231.83 279.08 220.01"/><polygon class="cls-53" points="279.08 220.01 268.55 231.83 268.53 215.57 268.34 215.5 268.53 214.95 272.66 220.01 279.08 220.01"/><polygon class="cls-54" points="276.29 243.22 279.08 247.06 271.67 245.64 274.85 242.71 278.09 237.56 276.29 243.22"/><polygon class="cls-55" points="279.08 247.06 275.33 256.4 271.73 254.75 271.67 254.44 279.08 247.06"/><polygon class="cls-56" points="279.08 247.06 271.67 254.44 271.67 245.64 279.08 247.06"/><polygon class="cls-57" points="251.87 37.97 276.36 81.28 228.45 61.81 251.87 37.97"/><polygon class="cls-58" points="276.36 81.28 264.31 105.68 251.87 84.44 276.36 81.28"/><polygon class="cls-59" points="271.48 171.07 276.36 184.4 270.22 191.75 270.21 191.75 271.48 171.07"/><polygon class="cls-60" points="276.36 81.28 251.87 84.44 228.45 61.81 276.36 81.28"/><polygon class="cls-61" points="275.83 300.54 271.67 317.93 263.05 319.58 258.83 313.67 275.83 300.54"/><polygon class="cls-62" points="272.53 293.51 275.83 300.54 258.83 313.67 267.26 301.44 272.53 293.51"/><polygon class="cls-63" points="275.33 256.4 273.17 261.78 271.73 254.75 275.33 256.4"/><polygon class="cls-52" points="274.85 242.71 271.67 245.64 265.06 251.71 260.63 255.78 254.18 261.71 249.97 265.58 265.06 241.95 274.85 242.71"/><polygon class="cls-64" points="271.73 254.75 273.17 261.78 268.55 262.35 266.42 259.67 271.47 254.64 271.73 254.75"/><polygon class="cls-65" points="272.33 205.25 272.66 220.01 268.53 214.95 272.33 205.25"/><polygon class="cls-66" points="270.22 280.76 272.53 293.51 267.26 301.44 270.22 280.76"/><polygon class="cls-67" points="270.21 191.75 272.33 205.25 255.36 209.96 269.64 191.75 269.73 191.54 270.21 191.75"/><polygon class="cls-68" points="272.33 205.25 268.53 214.95 255.36 209.96 272.33 205.25"/><polygon class="cls-69" points="271.67 245.64 271.67 254.44 271.47 254.64 265.06 251.71 271.67 245.64"/><polygon class="cls-70" points="268.11 142.39 271.48 171.07 234.36 127.62 268.11 142.39"/><polygon class="cls-71" points="234.36 127.62 271.48 171.07 238.15 151.67 234.36 127.62"/><polygon class="cls-72" points="271.48 171.07 270.21 191.75 238.15 151.67 271.48 171.07"/><polygon class="cls-73" points="265.06 251.71 271.47 254.64 266.42 259.67 265.06 251.71"/><polygon class="cls-74" points="268.53 266.42 270.22 280.76 264.52 271.29 268.53 266.42"/><polygon class="cls-75" points="238.15 151.67 270.21 191.75 269.73 191.54 233.09 175.29 238.15 151.67"/><polygon class="cls-75" points="233.09 175.29 269.73 191.54 269.64 191.75 232.67 197.23 233.09 175.29"/><polygon class="cls-76" points="269.64 191.75 255.36 209.96 232.67 197.23 269.64 191.75"/><polygon class="cls-77" points="268.55 231.83 268.55 231.83 258.4 243.22 268.34 215.5 268.53 215.57 268.55 231.83"/><polygon class="cls-78" points="266.42 259.67 268.55 262.35 268.53 266.42 264.52 271.29 266.42 259.67"/><polygon class="cls-79" points="268.55 231.83 265.06 241.95 265.06 241.95 258.4 243.22 268.55 231.83"/><polygon class="cls-80" points="268.53 214.95 268.34 215.5 258.4 243.22 244.71 218.75 268.53 214.95"/><polygon class="cls-81" points="268.53 214.95 244.71 218.75 232.67 197.23 255.36 209.96 268.53 214.95"/><polygon class="cls-82" points="264.31 105.68 268.11 142.39 241.95 93.03 264.31 105.68"/><polygon class="cls-83" points="241.95 93.03 268.11 142.39 234.36 127.62 241.95 93.03"/><polygon class="cls-84" points="265.06 251.71 266.42 259.67 260.63 255.78 265.06 251.71"/><polygon class="cls-85" points="266.42 259.67 264.52 271.29 261.78 267.69 266.42 259.67"/><polygon class="cls-86" points="266.42 259.67 261.78 267.69 252.33 266.42 266.42 259.67"/><polygon class="cls-87" points="266.42 259.67 252.33 266.42 254.18 261.71 266.42 259.67"/><polygon class="cls-88" points="266.42 259.67 254.18 261.71 260.63 255.78 266.42 259.67"/><polygon class="cls-89" points="265.06 241.95 249.97 265.58 258.4 243.22 265.06 241.95"/><polygon class="cls-90" points="261.78 267.69 264.52 271.29 256.3 271.9 261.78 267.69"/><polygon class="cls-91" points="251.87 84.44 264.31 105.68 241.95 93.03 251.87 84.44"/><polygon class="cls-92" points="261.78 267.69 256.3 271.9 252.33 266.42 261.78 267.69"/><polygon class="cls-93" points="244.71 218.75 258.4 243.22 231.22 213.94 244.71 218.75"/><polygon class="cls-94" points="231.22 213.94 258.4 243.22 236.47 266.42 231.22 213.94"/><polygon class="cls-95" points="258.4 243.22 249.97 265.58 236.47 266.42 258.4 243.22"/><polygon class="cls-96" points="251.87 37.97 228.45 61.81 213.79 44.47 214.11 44.09 251.87 37.97"/><polygon class="cls-97" points="251.87 37.97 214.11 44.09 211.79 6.33 251.87 37.97"/><polygon class="cls-98" points="251.87 84.44 241.95 93.03 228.45 61.81 251.87 84.44"/><polygon class="cls-99" points="232.67 197.23 244.71 218.75 231.22 213.94 232.67 197.23"/><polygon class="cls-100" points="228.45 61.81 241.95 93.03 194.28 68.13 228.45 61.81"/><polygon class="cls-101" points="241.95 93.03 234.36 127.62 211.57 120.03 185.76 120.03 241.95 93.03"/><polygon class="cls-102" points="241.95 93.03 185.76 120.03 189.22 96.82 241.95 93.03"/><polygon class="cls-103" points="241.95 93.03 189.22 96.82 194.28 68.13 241.95 93.03"/><polygon class="cls-104" points="234.36 127.62 238.15 151.67 226.34 144.92 215.79 140.7 234.36 127.62"/><polygon class="cls-101" points="238.15 151.67 233.09 175.29 221.7 159.68 238.15 151.67"/><polygon class="cls-105" points="238.15 151.67 221.7 159.68 219.96 159.8 227.19 152.51 238.15 151.67"/><polygon class="cls-106" points="238.15 151.67 227.19 152.51 218.43 145.05 238.15 151.67"/><polygon class="cls-75" points="238.15 151.67 218.43 145.05 212.09 141.37 215.79 140.7 226.34 144.92 238.15 151.67"/><polygon class="cls-42" points="231.22 213.94 236.47 266.42 209.47 234.36 231.22 213.94"/><polygon class="cls-107" points="209.47 234.36 236.47 266.42 181.2 247.16 209.47 234.36"/><polygon class="cls-108" points="236.47 266.42 201.43 280.91 196.39 263.32 236.47 266.42"/><polygon class="cls-108" points="236.47 266.42 196.39 263.32 181.2 247.16 236.47 266.42"/><polygon class="cls-109" points="234.36 127.62 215.79 140.7 204.82 122.98 234.36 127.62"/><polygon class="cls-110" points="234.36 127.62 204.82 122.98 181.2 125.09 211.57 120.03 234.36 127.62"/><polygon class="cls-111" points="221.7 159.68 233.09 175.29 203.56 183.31 221.7 159.68"/><polygon class="cls-112" points="233.09 175.29 232.67 197.23 203.56 183.31 233.09 175.29"/><polygon class="cls-113" points="232.67 197.23 231.22 213.94 207.52 211.69 232.67 197.23"/><polygon class="cls-114" points="232.67 197.23 207.52 211.69 207.52 195.03 232.67 197.23"/><polygon class="cls-115" points="232.67 197.23 207.52 195.03 203.56 183.31 232.67 197.23"/><polygon class="cls-116" points="231.22 213.94 209.47 234.36 207.52 211.69 231.22 213.94"/><polygon class="cls-117" points="213.79 44.47 228.45 61.81 194.28 68.13 213.79 44.47"/><polygon class="cls-118" points="227.19 152.51 219.96 159.8 222.12 152.09 227.19 152.51"/><polygon class="cls-119" points="227.19 152.51 222.12 152.09 218.43 145.05 227.19 152.51"/><polygon class="cls-120" points="218.43 145.05 222.12 152.09 219.96 159.8 218.43 145.05"/><path class="cls-121" d="M221.7,159.68l-18.14,23.63-15.19-26.16h5.06l9.71,3.8,1.62-.11.07.11a1.26,1.26,0,0,1,0-.12l15.09-1Z"/><polygon class="cls-122" points="218.43 145.05 219.96 159.8 212.53 149.66 218.43 145.05"/><polygon class="cls-123" points="212.53 149.66 219.96 159.8 207.78 153.38 212.53 149.66"/><path class="cls-124" d="M220,159.8l-15.09,1c.37-1,2.9-7.45,2.91-7.45Z"/><polygon class="cls-125" points="218.43 145.05 212.53 149.66 212.09 141.37 218.43 145.05"/><polygon class="cls-126" points="204.82 122.98 215.79 140.7 212.09 141.37 199.34 143.65 204.82 122.98"/><polygon class="cls-127" points="211.79 6.33 214.11 44.09 187.11 23.41 211.79 6.33"/><polygon class="cls-128" points="214.11 44.09 213.49 44.11 177.4 45.35 187.11 23.41 214.11 44.09"/><polygon class="cls-129" points="213.79 44.47 194.28 68.13 177.4 45.35 213.49 44.11 213.79 44.47"/><polygon class="cls-130" points="212.09 141.37 212.53 149.66 207.78 153.38 212.09 141.37"/><polygon class="cls-131" points="212.09 141.37 207.78 153.38 203.03 147.33 203.14 147.03 212.09 141.37"/><polygon class="cls-132" points="212.09 141.37 203.14 147.03 203.03 147.33 203.03 147.33 199.34 143.65 212.09 141.37"/><polygon class="cls-133" points="211.79 6.33 187.11 23.41 164.53 0 211.79 6.33"/><polygon class="cls-134" points="211.57 120.03 181.2 125.09 185.76 120.03 211.57 120.03"/><polygon class="cls-135" points="207.52 211.69 209.47 234.36 191.32 218.33 207.52 211.69"/><polygon class="cls-136" points="209.47 234.36 181.2 247.16 174.03 235.2 209.47 234.36"/><polygon class="cls-137" points="209.47 234.36 174.03 235.2 187.95 225.08 191.32 218.33 209.47 234.36"/><polygon class="cls-138" points="203.03 147.33 207.78 153.38 200.61 154.2 203.03 147.34 203.03 147.33"/><path class="cls-139" d="M200.61,154.2l7.17-.82s-2.54,6.49-2.91,7.45h-.11Z"/><polygon class="cls-140" points="207.52 195.03 207.52 211.69 190.9 202.72 207.52 195.03"/><polygon class="cls-101" points="203.56 183.31 207.52 195.03 190.9 202.72 203.56 183.31"/><polygon class="cls-75" points="207.52 211.69 191.32 218.33 190.9 202.72 207.52 211.69"/><polygon class="cls-141" points="204.82 122.98 199.34 143.65 181.2 125.09 204.82 122.98"/><polygon class="cls-142" points="204.76 160.84 203.14 160.95 196.39 155.22 200.61 154.2 204.76 160.84"/><polygon class="cls-143" points="188.37 157.15 203.56 183.31 173.61 187.53 188.37 157.15"/><polygon class="cls-144" points="203.56 183.31 190.9 202.72 176.98 191.32 173.61 187.53 203.56 183.31"/><polygon class="cls-145" points="203.14 160.95 193.43 157.15 188.37 157.15 196.39 155.22 203.14 160.95"/><polygon class="cls-146" points="199.34 143.65 203.03 147.33 203.03 147.34 188.37 157.15 199.34 143.65"/><polygon class="cls-147" points="203.03 147.34 200.61 154.2 196.39 155.22 203.03 147.34"/><polygon class="cls-148" points="203.03 147.34 196.39 155.22 188.37 157.15 203.03 147.34"/><polygon class="cls-149" points="196.39 263.32 201.43 280.91 164.53 283.93 196.39 263.32"/><polygon class="cls-150" points="181.2 125.09 199.34 143.65 188.37 157.15 181.2 125.09"/><polygon class="cls-151" points="181.2 247.16 196.39 263.32 164.53 283.93 181.2 247.16"/><polygon class="cls-152" points="177.4 45.35 194.28 68.13 164.53 65.55 177.4 45.35"/><polygon class="cls-153" points="194.28 68.13 189.22 96.82 164.53 65.55 194.28 68.13"/><polygon class="cls-154" points="190.9 202.72 191.32 218.33 179.93 205.67 172.34 191.75 176.98 191.32 190.9 202.72"/><polygon class="cls-155" points="179.93 205.67 191.32 218.33 184.57 214.95 176.56 208.2 171.07 204.4 179.93 205.67"/><polygon class="cls-156" points="191.32 218.33 187.95 225.08 178.67 226.34 191.32 218.33"/><polygon class="cls-157" points="191.32 218.33 178.67 226.34 181.62 220.86 191.32 218.33"/><polygon class="cls-158" points="191.32 218.33 181.62 220.86 168.97 220.01 164.53 220.86 164.53 217 168.12 217.48 172.77 216.63 182.47 218.75 191.32 218.33"/><polygon class="cls-159" points="191.32 218.33 182.47 218.75 184.57 214.95 191.32 218.33"/><polygon class="cls-160" points="164.53 65.55 189.22 96.82 164.53 101.96 164.53 65.55"/><polygon class="cls-161" points="189.22 96.82 185.76 120.03 164.53 101.96 189.22 96.82"/><polygon class="cls-162" points="181.2 125.09 188.37 157.15 164.53 144.33 181.2 125.09"/><polygon class="cls-163" points="188.37 157.15 173.61 187.53 164.53 166.16 188.37 157.15"/><polygon class="cls-164" points="188.37 157.15 164.53 166.16 164.53 144.33 188.37 157.15"/><polygon class="cls-165" points="187.95 225.08 174.03 235.2 176.56 230.37 187.95 225.08"/><polygon class="cls-166" points="187.95 225.08 176.56 230.37 178.67 226.34 187.95 225.08"/><polygon class="cls-167" points="164.53 0 187.11 23.41 164.53 23.98 164.53 0"/><polygon class="cls-168" points="187.11 23.41 177.4 45.35 164.53 23.98 187.11 23.41"/><polygon class="cls-169" points="185.76 120.03 181.2 125.09 164.53 101.96 185.76 120.03"/><polygon class="cls-170" points="184.57 214.95 182.47 218.75 172.77 216.63 184.57 214.95"/><polygon class="cls-171" points="184.57 214.95 172.77 216.63 172.26 212.93 184.57 214.95"/><polygon class="cls-172" points="184.57 214.95 172.26 212.93 176.56 208.2 184.57 214.95"/><polygon class="cls-173" points="181.62 220.86 178.67 226.34 169.39 228.85 181.62 220.86"/><polygon class="cls-174" points="181.62 220.86 169.39 228.85 168.12 224.65 181.62 220.86"/><polygon class="cls-175" points="181.62 220.86 168.12 224.65 168.97 220.01 181.62 220.86"/><polygon class="cls-176" points="164.53 101.96 181.2 125.09 164.53 144.33 164.53 101.96"/><polygon class="cls-177" points="174.03 235.2 181.2 247.16 165.16 245.55 164.53 245.55 164.53 235.96 174.03 235.2"/><polygon class="cls-27" points="181.2 247.16 164.53 283.93 164.53 245.55 165.16 245.55 181.2 247.16"/><polygon class="cls-178" points="172.34 191.75 179.93 205.67 171.07 204.4 172.34 191.75"/><polygon class="cls-179" points="178.67 226.34 176.56 230.37 170.8 233.04 164.53 228.85 169.39 228.85 178.67 226.34"/><polygon class="cls-180" points="164.53 23.98 177.4 45.35 164.53 65.55 164.53 23.98"/><polygon class="cls-181" points="173.61 187.53 176.98 191.32 169.81 188.79 173.61 187.53"/><polygon class="cls-182" points="176.98 191.32 172.34 191.75 169.39 190.88 169.81 188.79 176.98 191.32"/><polygon class="cls-183" points="176.56 208.2 172.26 212.93 171.07 204.4 176.56 208.2"/><polygon class="cls-184" points="176.56 230.37 174.03 235.2 170.8 233.04 176.56 230.37"/><polygon class="cls-185" points="174.03 235.2 164.53 235.96 170.8 233.04 174.03 235.2"/><polygon class="cls-115" points="164.53 166.16 173.61 187.53 168.12 185.12 164.53 187.22 164.53 166.16"/><polygon class="cls-186" points="173.61 187.53 169.81 188.79 168.12 185.12 173.61 187.53"/><polygon class="cls-187" points="172.26 212.93 172.77 216.63 168.12 217.48 172.26 212.93"/><polygon class="cls-188" points="172.34 191.75 171.07 204.4 166.86 206.51 164.53 206.16 172.34 191.75"/><polygon class="cls-189" points="172.34 191.75 164.53 206.16 164.53 191.75 166.86 190.06 169.39 190.88 172.34 191.75"/><polygon class="cls-190" points="171.07 204.4 172.26 212.93 168.12 217.48 164.53 217 171.07 204.4"/><polygon class="cls-191" points="171.07 204.4 164.53 217 166.86 206.51 171.07 204.4"/><polygon class="cls-192" points="170.8 233.04 164.53 235.96 164.53 228.85 170.8 233.04"/><polygon class="cls-193" points="168.12 185.12 169.81 188.79 169.39 190.88 166.86 190.06 168.12 185.12"/><polygon class="cls-194" points="168.12 224.65 169.39 228.85 164.53 228.85 168.12 224.65"/><polygon class="cls-195" points="168.97 220.01 168.12 224.65 164.53 220.86 168.97 220.01"/><polygon class="cls-196" points="168.12 185.12 166.86 190.06 164.53 191.75 164.53 187.22 168.12 185.12"/><polygon class="cls-197" points="164.53 220.86 168.12 224.65 164.53 228.85 164.53 220.86"/><polygon class="cls-198" points="166.86 206.51 164.53 217 164.53 206.16 166.86 206.51"/><polygon class="cls-2" points="0 276.55 3.38 298.91 17.69 283.51 0 276.55"/><polygon class="cls-3" points="0 276.55 17.69 283.51 15.49 266.99 0 276.55"/><path class="cls-4" d="M0,276.55,15.49,267l.12-9.85C15.19,257.14,0,276.55,0,276.55Z"/><polygon class="cls-5" points="17.69 283.51 3.38 298.91 25.73 286.67 17.69 283.51"/><polygon class="cls-6" points="3.38 298.91 20.67 311.56 25.73 286.67 3.38 298.91"/><polygon class="cls-7" points="15.49 266.99 17.69 283.51 39.66 252.08 15.49 266.99"/><path class="cls-8" d="M15.61,257.14,15.49,267l24.17-14.91-23.94,5h0Z"/><path class="cls-8" d="M15.71,257.12l-.1,0Z"/><path class="cls-9" d="M15.72,257.12l23.94-5-1.34-2.78h0C38,249.42,17.42,256.65,15.72,257.12Z"/><polygon class="cls-10" points="39.66 252.08 17.69 283.51 25.73 286.67 31.81 271.9 39.66 252.08"/><polygon class="cls-11" points="25.73 286.67 20.67 311.56 26.16 317.89 25.73 286.67"/><polygon class="cls-7" points="31.81 271.9 25.73 286.67 38.81 278.23 31.81 271.9"/><polygon class="cls-12" points="25.73 286.67 26.16 317.89 35.51 305.26 25.73 286.67"/><polygon class="cls-13" points="25.73 286.67 35.51 305.26 40.53 298.59 40.08 298.08 25.73 286.67"/><polygon class="cls-14" points="25.73 286.67 40.08 298.08 40.53 298.59 38.81 278.23 25.73 286.67"/><polygon class="cls-15" points="35.51 305.26 26.16 317.89 42.16 317.89 35.51 305.26"/><polygon class="cls-16" points="39.66 252.08 31.81 271.9 48.94 258.69 47.22 252.08 39.66 252.08"/><polygon class="cls-17" points="31.81 271.9 38.81 278.23 48.93 270.9 31.81 271.9"/><polygon class="cls-18" points="31.81 271.9 48.93 270.9 48.94 270.9 48.94 258.69 31.81 271.9"/><polygon class="cls-19" points="40.53 298.59 35.51 305.26 42.16 317.89 40.53 298.59"/><polygon class="cls-20" points="41.77 237.56 36.56 245.64 44.31 245.64 41.77 237.56"/><path class="cls-21" d="M36.56,245.64l1.76,3.66h0l1.34,2.78,4.65-6.44Z"/><polygon class="cls-22" points="38.81 278.23 40.53 298.59 47.22 295.98 38.81 278.23"/><polygon class="cls-23" points="38.81 278.23 47.22 295.98 47.22 295.98 48.94 281.74 38.81 278.23"/><polygon class="cls-24" points="38.81 278.23 48.94 281.74 48.94 270.9 48.93 270.9 38.81 278.23"/><polygon class="cls-25" points="44.31 245.64 39.66 252.08 47.22 252.08 44.31 245.64"/><polygon class="cls-26" points="40.92 176.14 40.08 189.64 49.02 175.29 48.94 168.97 40.92 176.14"/><polygon class="cls-27" points="49.02 175.29 40.08 189.64 52.93 184.4 49.02 175.29"/><polygon class="cls-28" points="40.08 189.64 45.14 207.36 46.41 214.53 49.78 198.5 40.08 189.64"/><polygon class="cls-29" points="40.08 189.64 49.78 198.5 59.06 191.75 40.08 189.64"/><polygon class="cls-30" points="40.08 189.64 59.06 191.75 52.93 184.4 40.08 189.64"/><polygon class="cls-31" points="40.53 298.59 47.74 306.75 57.62 317.93 47.22 295.98 40.53 298.59"/><polygon class="cls-32" points="47.74 306.75 40.53 298.59 42.16 317.89 47.74 306.75"/><polygon class="cls-33" points="45.14 207.36 41.77 222.54 64.22 241.95 64.22 241.95 50.2 220.01 46.41 214.53 45.14 207.36"/><polygon class="cls-34" points="41.77 222.54 51.19 237.56 51.19 237.56 54.43 242.71 64.22 241.95 41.77 222.54"/><polygon class="cls-35" points="41.77 237.56 44.31 245.64 51.19 237.56 51.19 237.56 41.77 237.56"/><polygon class="cls-36" points="47.74 306.75 42.16 317.89 50.63 320 47.74 306.75"/><polygon class="cls-37" points="52.93 81.28 42.61 128.46 64.97 105.68 52.93 81.28"/><polygon class="cls-38" points="64.97 105.68 42.61 128.46 61.17 142.39 64.97 105.68"/><polygon class="cls-39" points="42.61 128.46 48.94 168.97 61.17 142.39 42.61 128.46"/><polygon class="cls-40" points="51.19 237.56 44.31 245.64 52.99 243.22 51.19 237.56"/><polygon class="cls-41" points="44.31 245.64 47.22 252.08 50.2 247.06 52.99 243.22 44.31 245.64"/><polygon class="cls-42" points="49.78 198.5 46.41 214.53 59.07 191.75 59.06 191.75 49.78 198.5"/><polygon class="cls-43" points="59.07 191.75 46.41 214.53 56.63 220.01 56.95 205.25 59.07 191.75"/><polygon class="cls-44" points="46.41 214.53 50.2 220.01 56.63 220.01 46.41 214.53"/><polygon class="cls-23" points="47.22 295.98 57.62 317.93 53.45 300.54 48.94 281.74 47.22 295.98 47.22 295.98"/><polygon class="cls-45" points="50.2 247.06 47.22 252.08 48.94 258.69 53.95 256.4 50.2 247.06"/><polygon class="cls-46" points="57.62 317.93 47.74 306.75 50.63 320 57.62 317.93"/><polygon class="cls-47" points="48.94 270.9 48.94 281.74 60.73 262.35 48.94 270.9"/><polygon class="cls-47" points="48.94 258.69 48.94 270.9 60.73 262.35 56.11 261.78 48.94 258.69"/><polygon class="cls-48" points="61.17 142.39 48.94 168.97 57.8 171.07 61.17 142.39"/><polygon class="cls-49" points="48.94 168.97 49.02 175.29 52.93 184.4 57.8 171.07 48.94 168.97"/><polygon class="cls-47" points="60.73 262.35 48.94 281.74 59.06 280.76 60.75 266.42 60.73 262.35"/><polygon class="cls-14" points="48.94 281.74 53.45 300.54 56.75 293.51 48.94 281.74"/><polygon class="cls-50" points="48.94 281.74 56.75 293.51 59.06 280.76 48.94 281.74"/><polygon class="cls-51" points="48.94 258.69 56.11 261.78 53.95 256.4 48.94 258.69"/><polygon class="cls-52" points="50.2 220.01 64.22 241.95 60.73 231.83 60.73 231.83 50.2 220.01"/><polygon class="cls-53" points="50.2 220.01 60.73 231.83 60.75 215.57 60.95 215.5 60.75 214.95 56.63 220.01 50.2 220.01"/><polygon class="cls-54" points="52.99 243.22 50.2 247.06 57.62 245.64 54.43 242.71 51.19 237.56 52.99 243.22"/><polygon class="cls-55" points="50.2 247.06 53.95 256.4 57.55 254.75 57.62 254.44 50.2 247.06"/><polygon class="cls-56" points="50.2 247.06 57.62 254.44 57.62 245.64 50.2 247.06"/><polygon class="cls-57" points="77.42 37.97 52.93 81.28 100.83 61.81 77.42 37.97"/><polygon class="cls-58" points="52.93 81.28 64.97 105.68 77.42 84.44 52.93 81.28"/><polygon class="cls-59" points="57.8 171.07 52.93 184.4 59.06 191.75 59.07 191.75 57.8 171.07"/><polygon class="cls-60" points="52.93 81.28 77.42 84.44 100.83 61.81 52.93 81.28"/><polygon class="cls-61" points="53.45 300.54 57.62 317.93 66.24 319.58 70.45 313.67 53.45 300.54"/><polygon class="cls-62" points="56.75 293.51 53.45 300.54 70.45 313.67 62.02 301.44 56.75 293.51"/><polygon class="cls-63" points="53.95 256.4 56.11 261.78 57.55 254.75 53.95 256.4"/><polygon class="cls-52" points="54.43 242.71 57.62 245.64 64.22 251.71 68.65 255.78 75.1 261.71 79.31 265.58 64.22 241.95 54.43 242.71"/><polygon class="cls-64" points="57.55 254.75 56.11 261.78 60.73 262.35 62.86 259.67 57.81 254.64 57.55 254.75"/><polygon class="cls-65" points="56.95 205.25 56.63 220.01 60.75 214.95 56.95 205.25"/><polygon class="cls-66" points="59.06 280.76 56.75 293.51 62.02 301.44 59.06 280.76"/><polygon class="cls-67" points="59.07 191.75 56.95 205.25 73.92 209.96 59.64 191.75 59.55 191.54 59.07 191.75"/><polygon class="cls-68" points="56.95 205.25 60.75 214.95 73.92 209.96 56.95 205.25"/><polygon class="cls-69" points="57.62 245.64 57.62 254.44 57.81 254.64 64.22 251.71 57.62 245.64"/><polygon class="cls-70" points="61.17 142.39 57.8 171.07 94.92 127.62 61.17 142.39"/><polygon class="cls-71" points="94.92 127.62 57.8 171.07 91.13 151.67 94.92 127.62"/><polygon class="cls-72" points="57.8 171.07 59.07 191.75 91.13 151.67 57.8 171.07"/><polygon class="cls-73" points="64.22 251.71 57.81 254.64 62.86 259.67 64.22 251.71"/><polygon class="cls-74" points="60.75 266.42 59.06 280.76 64.76 271.29 60.75 266.42"/><polygon class="cls-75" points="91.13 151.67 59.07 191.75 59.55 191.54 96.19 175.29 91.13 151.67"/><polygon class="cls-75" points="96.19 175.29 59.55 191.54 59.64 191.75 96.61 197.23 96.19 175.29"/><polygon class="cls-76" points="59.64 191.75 73.92 209.96 96.61 197.23 59.64 191.75"/><polygon class="cls-77" points="60.73 231.83 60.73 231.83 70.88 243.22 60.95 215.5 60.75 215.57 60.73 231.83"/><polygon class="cls-78" points="62.86 259.67 60.73 262.35 60.75 266.42 64.76 271.29 62.86 259.67"/><polygon class="cls-79" points="60.73 231.83 64.22 241.95 64.22 241.95 70.88 243.22 60.73 231.83"/><polygon class="cls-80" points="60.75 214.95 60.95 215.5 70.88 243.22 84.57 218.75 60.75 214.95"/><polygon class="cls-81" points="60.75 214.95 84.57 218.75 96.61 197.23 73.92 209.96 60.75 214.95"/><polygon class="cls-82" points="64.97 105.68 61.17 142.39 87.33 93.03 64.97 105.68"/><polygon class="cls-83" points="87.33 93.03 61.17 142.39 94.92 127.62 87.33 93.03"/><polygon class="cls-84" points="64.22 251.71 62.86 259.67 68.65 255.78 64.22 251.71"/><polygon class="cls-85" points="62.86 259.67 64.76 271.29 67.5 267.69 62.86 259.67"/><polygon class="cls-86" points="62.86 259.67 67.5 267.69 76.95 266.42 62.86 259.67"/><polygon class="cls-87" points="62.86 259.67 76.95 266.42 75.1 261.71 62.86 259.67"/><polygon class="cls-88" points="62.86 259.67 75.1 261.71 68.65 255.78 62.86 259.67"/><polygon class="cls-89" points="64.22 241.95 79.31 265.58 70.88 243.22 64.22 241.95"/><polygon class="cls-90" points="67.5 267.69 64.76 271.29 72.99 271.9 67.5 267.69"/><polygon class="cls-91" points="77.42 84.44 64.97 105.68 87.33 93.03 77.42 84.44"/><polygon class="cls-92" points="67.5 267.69 72.99 271.9 76.95 266.42 67.5 267.69"/><polygon class="cls-93" points="84.57 218.75 70.88 243.22 98.06 213.94 84.57 218.75"/><polygon class="cls-94" points="98.06 213.94 70.88 243.22 92.81 266.42 98.06 213.94"/><polygon class="cls-95" points="70.88 243.22 79.31 265.58 92.81 266.42 70.88 243.22"/><polygon class="cls-96" points="77.42 37.97 100.83 61.81 115.49 44.47 115.17 44.09 77.42 37.97"/><polygon class="cls-97" points="77.42 37.97 115.17 44.09 117.5 6.33 77.42 37.97"/><polygon class="cls-98" points="77.42 84.44 87.33 93.03 100.83 61.81 77.42 84.44"/><polygon class="cls-99" points="96.61 197.23 84.57 218.75 98.06 213.94 96.61 197.23"/><polygon class="cls-100" points="100.83 61.81 87.33 93.03 135 68.13 100.83 61.81"/><polygon class="cls-101" points="87.33 93.03 94.92 127.62 117.71 120.03 143.52 120.03 87.33 93.03"/><polygon class="cls-102" points="87.33 93.03 143.52 120.03 140.07 96.82 87.33 93.03"/><polygon class="cls-103" points="87.33 93.03 140.07 96.82 135 68.13 87.33 93.03"/><polygon class="cls-104" points="94.92 127.62 91.13 151.67 102.94 144.92 113.49 140.7 94.92 127.62"/><polygon class="cls-101" points="91.13 151.67 96.19 175.29 107.58 159.68 91.13 151.67"/><polygon class="cls-105" points="91.13 151.67 107.58 159.68 109.32 159.8 102.1 152.51 91.13 151.67"/><polygon class="cls-106" points="91.13 151.67 102.1 152.51 110.85 145.05 91.13 151.67"/><polygon class="cls-75" points="91.13 151.67 110.85 145.05 117.19 141.37 113.49 140.7 102.94 144.92 91.13 151.67"/><polygon class="cls-42" points="98.06 213.94 92.81 266.42 119.81 234.36 98.06 213.94"/><polygon class="cls-107" points="119.81 234.36 92.81 266.42 148.08 247.16 119.81 234.36"/><polygon class="cls-108" points="92.81 266.42 127.85 280.91 132.89 263.32 92.81 266.42"/><polygon class="cls-108" points="92.81 266.42 132.89 263.32 148.08 247.16 92.81 266.42"/><polygon class="cls-109" points="94.92 127.62 113.49 140.7 124.46 122.98 94.92 127.62"/><polygon class="cls-110" points="94.92 127.62 124.46 122.98 148.08 125.09 117.71 120.03 94.92 127.62"/><polygon class="cls-111" points="107.58 159.68 96.19 175.29 125.72 183.31 107.58 159.68"/><polygon class="cls-112" points="96.19 175.29 96.61 197.23 125.72 183.31 96.19 175.29"/><polygon class="cls-113" points="96.61 197.23 98.06 213.94 121.76 211.69 96.61 197.23"/><polygon class="cls-114" points="96.61 197.23 121.76 211.69 121.76 195.03 96.61 197.23"/><polygon class="cls-115" points="96.61 197.23 121.76 195.03 125.72 183.31 96.61 197.23"/><polygon class="cls-116" points="98.06 213.94 119.81 234.36 121.76 211.69 98.06 213.94"/><polygon class="cls-117" points="115.49 44.47 100.83 61.81 135 68.13 115.49 44.47"/><polygon class="cls-118" points="102.1 152.51 109.32 159.8 107.16 152.09 102.1 152.51"/><polygon class="cls-119" points="102.1 152.51 107.16 152.09 110.85 145.05 102.1 152.51"/><polygon class="cls-120" points="110.85 145.05 107.16 152.09 109.32 159.8 110.85 145.05"/><path class="cls-121" d="M107.58,159.68l18.14,23.63,15.19-26.16h-5.06l-9.71,3.8-1.62-.11-.06.11,0-.12-15.09-1Z"/><polygon class="cls-122" points="110.85 145.05 109.32 159.8 116.75 149.66 110.85 145.05"/><polygon class="cls-123" points="116.75 149.66 109.32 159.8 121.5 153.38 116.75 149.66"/><path class="cls-124" d="M109.32,159.8l15.09,1c-.37-1-2.9-7.45-2.91-7.45Z"/><polygon class="cls-125" points="110.85 145.05 116.75 149.66 117.19 141.37 110.85 145.05"/><polygon class="cls-126" points="124.46 122.98 113.49 140.7 117.19 141.37 129.94 143.65 124.46 122.98"/><polygon class="cls-127" points="117.5 6.33 115.17 44.09 142.18 23.41 117.5 6.33"/><polygon class="cls-128" points="115.17 44.09 115.79 44.11 151.88 45.35 142.18 23.41 115.17 44.09"/><polygon class="cls-129" points="115.49 44.47 135 68.13 151.88 45.35 115.79 44.11 115.49 44.47"/><polygon class="cls-130" points="117.19 141.37 116.75 149.66 121.5 153.38 117.19 141.37"/><polygon class="cls-131" points="117.19 141.37 121.5 153.38 126.25 147.33 126.14 147.03 117.19 141.37"/><polygon class="cls-132" points="117.19 141.37 126.14 147.03 126.25 147.33 126.25 147.33 129.94 143.65 117.19 141.37"/><polygon class="cls-133" points="117.5 6.33 142.18 23.41 164.75 0 117.5 6.33"/><polygon class="cls-134" points="117.71 120.03 148.08 125.09 143.52 120.03 117.71 120.03"/><polygon class="cls-135" points="121.76 211.69 119.81 234.36 137.96 218.33 121.76 211.69"/><polygon class="cls-136" points="119.81 234.36 148.08 247.16 155.25 235.2 119.81 234.36"/><polygon class="cls-137" points="119.81 234.36 155.25 235.2 141.33 225.08 137.96 218.33 119.81 234.36"/><polygon class="cls-138" points="126.25 147.33 121.5 153.38 128.68 154.2 126.25 147.34 126.25 147.33"/><path class="cls-139" d="M128.68,154.2l-7.18-.82s2.54,6.49,2.91,7.45h.11Z"/><polygon class="cls-140" points="121.76 195.03 121.76 211.69 138.38 202.72 121.76 195.03"/><polygon class="cls-101" points="125.72 183.31 121.76 195.03 138.38 202.72 125.72 183.31"/><polygon class="cls-75" points="121.76 211.69 137.96 218.33 138.38 202.72 121.76 211.69"/><polygon class="cls-141" points="124.46 122.98 129.94 143.65 148.08 125.09 124.46 122.98"/><polygon class="cls-142" points="124.52 160.84 126.14 160.95 132.89 155.22 128.68 154.2 124.52 160.84"/><polygon class="cls-143" points="140.91 157.15 125.72 183.31 155.68 187.53 140.91 157.15"/><polygon class="cls-144" points="125.72 183.31 138.38 202.72 152.3 191.32 155.68 187.53 125.72 183.31"/><polygon class="cls-145" points="126.14 160.95 135.85 157.15 140.91 157.15 132.89 155.22 126.14 160.95"/><polygon class="cls-146" points="129.94 143.65 126.25 147.33 126.25 147.34 140.91 157.15 129.94 143.65"/><polygon class="cls-147" points="126.25 147.34 128.68 154.2 132.89 155.22 126.25 147.34"/><polygon class="cls-148" points="126.25 147.34 132.89 155.22 140.91 157.15 126.25 147.34"/><polygon class="cls-149" points="132.89 263.32 127.85 280.91 164.75 283.93 132.89 263.32"/><polygon class="cls-150" points="148.08 125.09 129.94 143.65 140.91 157.15 148.08 125.09"/><polygon class="cls-151" points="148.08 247.16 132.89 263.32 164.75 283.93 148.08 247.16"/><polygon class="cls-152" points="151.88 45.35 135 68.13 164.75 65.55 151.88 45.35"/><polygon class="cls-153" points="135 68.13 140.07 96.82 164.75 65.55 135 68.13"/><polygon class="cls-154" points="138.38 202.72 137.96 218.33 149.35 205.67 156.94 191.75 152.3 191.32 138.38 202.72"/><polygon class="cls-155" points="149.35 205.67 137.96 218.33 144.71 214.95 152.72 208.2 158.21 204.4 149.35 205.67"/><polygon class="cls-156" points="137.96 218.33 141.33 225.08 150.61 226.34 137.96 218.33"/><polygon class="cls-157" points="137.96 218.33 150.61 226.34 147.66 220.86 137.96 218.33"/><polygon class="cls-158" points="137.96 218.33 147.66 220.86 160.32 220.01 164.75 220.86 164.75 217 161.16 217.48 156.51 216.63 146.82 218.75 137.96 218.33"/><polygon class="cls-159" points="137.96 218.33 146.82 218.75 144.71 214.95 137.96 218.33"/><polygon class="cls-160" points="164.75 65.55 140.07 96.82 164.75 101.96 164.75 65.55"/><polygon class="cls-161" points="140.07 96.82 143.52 120.03 164.75 101.96 140.07 96.82"/><polygon class="cls-162" points="148.08 125.09 140.91 157.15 164.75 144.33 148.08 125.09"/><polygon class="cls-163" points="140.91 157.15 155.68 187.53 164.75 166.16 140.91 157.15"/><polygon class="cls-164" points="140.91 157.15 164.75 166.16 164.75 144.33 140.91 157.15"/><polygon class="cls-165" points="141.33 225.08 155.25 235.2 152.72 230.37 141.33 225.08"/><polygon class="cls-166" points="141.33 225.08 152.72 230.37 150.61 226.34 141.33 225.08"/><polygon class="cls-167" points="164.75 0 142.18 23.41 164.75 23.98 164.75 0"/><polygon class="cls-168" points="142.18 23.41 151.88 45.35 164.75 23.98 142.18 23.41"/><polygon class="cls-169" points="143.52 120.03 148.08 125.09 164.75 101.96 143.52 120.03"/><polygon class="cls-170" points="144.71 214.95 146.82 218.75 156.51 216.63 144.71 214.95"/><polygon class="cls-171" points="144.71 214.95 156.51 216.63 157.03 212.93 144.71 214.95"/><polygon class="cls-172" points="144.71 214.95 157.03 212.93 152.72 208.2 144.71 214.95"/><polygon class="cls-173" points="147.66 220.86 150.61 226.34 159.89 228.85 147.66 220.86"/><polygon class="cls-174" points="147.66 220.86 159.89 228.85 161.16 224.65 147.66 220.86"/><polygon class="cls-175" points="147.66 220.86 161.16 224.65 160.32 220.01 147.66 220.86"/><polygon class="cls-176" points="164.75 101.96 148.08 125.09 164.75 144.33 164.75 101.96"/><polygon class="cls-177" points="155.25 235.2 148.08 247.16 164.13 245.55 164.75 245.55 164.75 235.96 155.25 235.2"/><polygon class="cls-27" points="148.08 247.16 164.75 283.93 164.75 245.55 164.13 245.55 148.08 247.16"/><polygon class="cls-178" points="156.94 191.75 149.35 205.67 158.21 204.4 156.94 191.75"/><polygon class="cls-179" points="150.61 226.34 152.72 230.37 158.48 233.04 164.75 228.85 159.89 228.85 150.61 226.34"/><polygon class="cls-180" points="164.75 23.98 151.88 45.35 164.75 65.55 164.75 23.98"/><polygon class="cls-181" points="155.68 187.53 152.3 191.32 159.47 188.79 155.68 187.53"/><polygon class="cls-182" points="152.3 191.32 156.94 191.75 159.89 190.88 159.47 188.79 152.3 191.32"/><polygon class="cls-183" points="152.72 208.2 157.03 212.93 158.21 204.4 152.72 208.2"/><polygon class="cls-184" points="152.72 230.37 155.25 235.2 158.48 233.04 152.72 230.37"/><polygon class="cls-185" points="155.25 235.2 164.75 235.96 158.48 233.04 155.25 235.2"/><polygon class="cls-115" points="164.75 166.16 155.68 187.53 161.16 185.12 164.75 187.22 164.75 166.16"/><polygon class="cls-186" points="155.68 187.53 159.47 188.79 161.16 185.12 155.68 187.53"/><polygon class="cls-187" points="157.03 212.93 156.51 216.63 161.16 217.48 157.03 212.93"/><polygon class="cls-188" points="156.94 191.75 158.21 204.4 162.43 206.51 164.75 206.16 156.94 191.75"/><polygon class="cls-189" points="156.94 191.75 164.75 206.16 164.75 191.75 162.43 190.06 159.89 190.88 156.94 191.75"/><polygon class="cls-190" points="158.21 204.4 157.03 212.93 161.16 217.48 164.75 217 158.21 204.4"/><polygon class="cls-191" points="158.21 204.4 164.75 217 162.43 206.51 158.21 204.4"/><polygon class="cls-192" points="158.48 233.04 164.75 235.96 164.75 228.85 158.48 233.04"/><polygon class="cls-193" points="161.16 185.12 159.47 188.79 159.89 190.88 162.43 190.06 161.16 185.12"/><polygon class="cls-194" points="161.16 224.65 159.89 228.85 164.75 228.85 161.16 224.65"/><polygon class="cls-195" points="160.32 220.01 161.16 224.65 164.75 220.86 160.32 220.01"/><polygon class="cls-196" points="161.16 185.12 162.43 190.06 164.75 191.75 164.75 187.22 161.16 185.12"/><polygon class="cls-197" points="164.75 220.86 161.16 224.65 164.75 228.85 164.75 220.86"/><polygon class="cls-198" points="162.43 206.51 164.75 217 164.75 206.16 162.43 206.51"/></g></g></g></svg>