<svg xmlns="http://www.w3.org/2000/svg" viewBox="0 0 1223 206.16"><defs><style>.cls-1{fill:#f24687;}.cls-2{fill:#131314;}</style></defs><g id="Layer_2" data-name="Layer 2"><g id="Layer_1-2" data-name="Layer 1"><polygon class="cls-1" points="569.09 89.26 629.14 89.26 600.17 148.72 569.09 89.26"/><path class="cls-2" d="M552.38,86.16V65.58H440.8V177.16H552.38V156.58h-91V86.16ZM0,111.08v20.58H530.4V111.08Z"/><path class="cls-2" d="M558.42,89.26h18.79l23,48,23-48h18.79l-41.75,87.68Z"/><path class="cls-2" d="M729.59,89.26V106h-66.8v50.1h66.8v16.7h-83.5V89.26Zm50.1,50.1h-96v-16.7h96Z"/><path class="cls-2" d="M805.53,114.31v91.85h-16.7V89.26h16.7l50.1,58.45V0h16.7V172.76h-16.7Z"/><path class="cls-2" d="M931.69,106v100.2H915V106h-33.4V89.26h83.5V106Z"/><path class="cls-2" d="M1043.89,172.76H943.69v-16.7h100.2a8.35,8.35,0,1,0,0-16.7h-33.4a24.94,24.94,0,0,1-25-25.05,25,25,0,0,1,25-25H1223V106H1010.49a8.35,8.35,0,1,0,0,16.7h33.4a25.1,25.1,0,0,1,17.75,42.8A24.16,24.16,0,0,1,1043.89,172.76Z"/></g></g></svg>