<svg xmlns="http://www.w3.org/2000/svg" viewBox="0 0 1415 239"><defs><style>.cls-1{fill:#f24687;}.cls-2{fill:#131314;}</style></defs><g id="Layer_1" data-name="Layer 1"><polygon class="cls-1" points="888.09 89.03 948.14 89.03 919.17 148.49 888.09 89.03"/><path class="cls-2" d="M871.38,85.93V65.35H759.8V176.93H871.38V156.35h-91V85.93ZM0,110.85v20.58H849.4V110.85Z"/><path class="cls-2" d="M877.42,89h18.79l23,48,23-48h18.79l-41.75,87.68Z"/><path class="cls-2" d="M1048.59,89v16.7h-66.8v50.1h66.8v16.7h-83.5V89Zm50.1,50.1h-96v-16.7h96Z"/><path class="cls-2" d="M1124.53,114.08v91.85h-16.7V89h16.7l50.1,58.45V-.23h16.7V172.53h-16.7Z"/><path class="cls-2" d="M1250.69,105.73v100.2H1234V105.73h-33.4V89h83.5v16.7Z"/><path class="cls-2" d="M1362.89,172.53h-100.2v-16.7h100.2a8.23,8.23,0,0,0,8.35-8.35c0-18.67-47.83,1.1-59.49-15.65-15.85-14.67-4-43.76,17.74-42.8H1542v16.7H1329.49c-7.29-.35-11.17,9.39-5.93,14.29,13.71,7.85,45.36-4.86,57.08,9.72C1396.49,144.41,1384.62,173.49,1362.89,172.53Z"/></g></svg>