<svg id="Layer_1" data-name="Layer 1" xmlns="http://www.w3.org/2000/svg" viewBox="0 0 613.8 174.57"><defs><style>.cls-1{fill:#ef4787;}.cls-2{fill:#fff;}</style></defs><rect class="cls-1" x="44.33" y="83.85" width="52.69" height="52.69"/><path class="cls-2" d="M39.18,78.37H97V89.93H50.75v69.41H39.18ZM97,113.07H65.21V101.5H97Z"/><path class="cls-2" d="M117.44,136.2H105.88V78.37h11.56Z"/><path class="cls-2" d="M149.16,89.93H123.68V78.37h43.38l-25.49,46.27h63.08V136.2h-81Z"/><path class="cls-2" d="M232.85,89.93H207.36V78.37h43.38l-25.48,46.27h63.08V136.2h-81Z"/><path class="cls-2" d="M335.24,136.2H294.75V78.37h40.49a17.41,17.41,0,0,1,13,28.91,17.37,17.37,0,0,1-13,28.92Zm-28.92-11.56h28.92a5.79,5.79,0,1,0,0-11.57H320.78V101.5h14.46a5.79,5.79,0,1,0,0-11.57H306.32Z"/><path class="cls-2" d="M359.28,107.28V78.37h11.56v28.91a17.36,17.36,0,1,0,34.71,0V19.9h11.56v87.38a28.92,28.92,0,1,1-57.83,0Z"/><path class="cls-2" d="M448.92,89.93H423.44V78.37h43.38l-25.49,46.27h63.08V136.2h-81Z"/><path class="cls-2" d="M532.61,89.93H507.12V78.37H550.5L525,124.64h63.08V136.2h-81Z"/></svg>