<svg xmlns="http://www.w3.org/2000/svg" viewBox="0 0 81.27 98.66"><defs><style>.cls-1{font-size:17.11px;font-family:GameOfSquids, Game Of Squids;}.cls-2{fill:#131314;}</style></defs><g id="Layer_2" data-name="Layer 2"><g id="Layer_1-2" data-name="Layer 1"><text class="cls-1" transform="translate(10.5 93.32)">Talks</text><path class="cls-2" d="M51.1,30.83c0,1.14-.4,1.52-1.56,1.53H47.61c-1.11,0-1.56.45-1.59,1.56s0,2,0,3v3.92a7.79,7.79,0,0,0-4-2.1V34.61c0-.3,0-.61,0-.91a1.27,1.27,0,1,0-2.54-.05c0,.31,0,.62,0,.92v4.18a7.76,7.76,0,0,0-4,2v-6.3c0-1.73-.32-2.05-2-2.06H31.93c-1.21,0-1.59-.38-1.59-1.59V16.25a2.64,2.64,0,0,1,2.14-2.63c1.51-.36,3-.69,4.57-1a2,2,0,0,1,1,.08,8,8,0,0,0,5.4,0,2.31,2.31,0,0,1,1.14-.06c1.44.28,2.87.6,4.3.93a2.64,2.64,0,0,1,2.25,2.82Q51.11,23.63,51.1,30.83Z"/><path class="cls-2" d="M46,5.34A5.29,5.29,0,1,1,40.73,0,5.31,5.31,0,0,1,46,5.34Z"/><path class="cls-2" d="M60.49,61.47c0-1.38,0-2.76,0-4.14a2.51,2.51,0,0,1,1.94-2.58c1.62-.42,3.27-.76,4.92-1.1a1.82,1.82,0,0,1,.88.13,8,8,0,0,0,5.22,0,2.69,2.69,0,0,1,1.32-.1c1.39.26,2.76.58,4.13.9a2.69,2.69,0,0,1,2.35,2.93c0,1.31,0,2.63,0,4a.49.49,0,0,0,0,.12H60.48A.76.76,0,0,0,60.49,61.47Z"/><path class="cls-2" d="M76.17,46.36A5.29,5.29,0,1,1,70.86,41,5.29,5.29,0,0,1,76.17,46.36Z"/><path class="cls-2" d="M46,46.38a5.32,5.32,0,1,1-5.3-5.33A5.34,5.34,0,0,1,46,46.38Z"/><path class="cls-2" d="M30.25,61.05c0-1.26,0-2.52,0-3.77a2.44,2.44,0,0,1,1.8-2.49c1.68-.45,3.39-.8,5.1-1.15a1.72,1.72,0,0,1,.87.17,8.21,8.21,0,0,0,5.14,0,3.07,3.07,0,0,1,1.41-.11c1.35.25,2.69.58,4,.89a2.68,2.68,0,0,1,2.39,3c0,1.31,0,2.63,0,3.95a.17.17,0,0,0,0,.07H30.24C30.25,61.43,30.25,61.24,30.25,61.05Z"/><path class="cls-2" d="M20.79,61.62H0c0-.06,0-.11,0-.17,0-1.38,0-2.76,0-4.14a2.35,2.35,0,0,1,1.53-2.4c1.81-.55,3.68-.91,5.53-1.31.21-.05.47.11.7.19a7.92,7.92,0,0,0,5.22,0,2.58,2.58,0,0,1,1.23-.1c1.45.28,2.88.6,4.31.94a2.65,2.65,0,0,1,2.24,2.82c0,1.32,0,2.64,0,4A1.21,1.21,0,0,0,20.79,61.62Z"/><path class="cls-2" d="M15.68,46.34A5.29,5.29,0,1,1,10.35,41,5.28,5.28,0,0,1,15.68,46.34Z"/></g></g></svg>