<svg xmlns="http://www.w3.org/2000/svg" viewBox="0 0 1908.67 17.5"><defs><style>.cls-1{fill:#fff;}</style></defs><g id="Layer_2" data-name="Layer 2"><g id="Layer_1-2" data-name="Layer 1"><path class="cls-1" d="M9.83,6.72,14.05,14H5.61l4.22-7.3m0-6.48L0,17.26H19.66L9.83.24Z"/><path class="cls-1" d="M38,3.24v11H27v-11H38M41.27,0H23.77V17.5h17.5V0Z"/><path class="cls-1" d="M53.91,3.24A5.51,5.51,0,1,1,48.4,8.75a5.51,5.51,0,0,1,5.51-5.51m0-3.24a8.75,8.75,0,1,0,8.75,8.75A8.75,8.75,0,0,0,53.91,0Z"/><path class="cls-1" d="M159.56,6.72l4.22,7.3h-8.44l4.22-7.3m0-6.48-9.83,17h19.66l-9.83-17Z"/><path class="cls-1" d="M187.76,3.24v11h-11v-11h11M191,0H173.5V17.5H191V0Z"/><path class="cls-1" d="M203.64,3.24a5.51,5.51,0,1,1-5.51,5.51,5.52,5.52,0,0,1,5.51-5.51m0-3.24a8.75,8.75,0,1,0,8.75,8.75A8.75,8.75,0,0,0,203.64,0Z"/><path class="cls-1" d="M138.82,3.24a5.51,5.51,0,1,1-5.51,5.51,5.51,5.51,0,0,1,5.51-5.51m0-3.24a8.75,8.75,0,1,0,8.75,8.75A8.75,8.75,0,0,0,138.82,0Z"/><path class="cls-1" d="M118.08,6.72l4.21,7.3h-8.43l4.22-7.3m0-6.48-9.83,17h19.66l-9.83-17Z"/><path class="cls-1" d="M80.81,3.24v11h-11v-11h11M84.05,0H66.55V17.5h17.5V0Z"/><path class="cls-1" d="M231.18,3.24v11h-11v-11h11M234.42,0h-17.5V17.5h17.5V0Z"/><path class="cls-1" d="M97.34,3.24a5.51,5.51,0,1,1-5.51,5.51,5.51,5.51,0,0,1,5.51-5.51m0-3.24a8.75,8.75,0,1,0,8.75,8.75A8.76,8.76,0,0,0,97.34,0Z"/><path class="cls-1" d="M249,6.72l4.22,7.3h-8.44L249,6.72m0-6.48-9.83,17h19.66L249,.24Z"/><path class="cls-1" d="M277.2,3.24v11h-11v-11h11M280.45,0H262.94V17.5h17.51V0Z"/><path class="cls-1" d="M293.08,3.24a5.51,5.51,0,1,1-5.5,5.51,5.51,5.51,0,0,1,5.5-5.51m0-3.24a8.75,8.75,0,1,0,8.76,8.75A8.75,8.75,0,0,0,293.08,0Z"/><path class="cls-1" d="M398.74,6.72,403,14h-8.44l4.22-7.3m0-6.48-9.83,17h19.66l-9.83-17Z"/><path class="cls-1" d="M426.93,3.24v11h-11v-11h11M430.17,0h-17.5V17.5h17.5V0Z"/><path class="cls-1" d="M442.81,3.24a5.51,5.51,0,1,1-5.51,5.51,5.51,5.51,0,0,1,5.51-5.51m0-3.24a8.75,8.75,0,1,0,8.75,8.75A8.75,8.75,0,0,0,442.81,0Z"/><path class="cls-1" d="M378,3.24a5.51,5.51,0,1,1-5.51,5.51A5.52,5.52,0,0,1,378,3.24M378,0a8.75,8.75,0,1,0,8.75,8.75A8.75,8.75,0,0,0,378,0Z"/><path class="cls-1" d="M357.25,6.72l4.22,7.3H353l4.21-7.3m0-6.48-9.83,17h19.67l-9.84-17Z"/><path class="cls-1" d="M320,3.24v11H309v-11h11M323.23,0H305.72V17.5h17.51V0Z"/><path class="cls-1" d="M336.51,3.24A5.51,5.51,0,1,1,331,8.75a5.51,5.51,0,0,1,5.51-5.51m0-3.24a8.75,8.75,0,1,0,8.75,8.75A8.75,8.75,0,0,0,336.51,0Z"/><path class="cls-1" d="M1473.09,3.24v11h-11v-11h11M1476.33,0h-17.5V17.5h17.5V0Z"/><path class="cls-1" d="M1489,3.24a5.51,5.51,0,1,1-5.51,5.51A5.51,5.51,0,0,1,1489,3.24M1489,0a8.75,8.75,0,1,0,8.75,8.75A8.75,8.75,0,0,0,1489,0Z"/><path class="cls-1" d="M1594.63,6.72l4.21,7.3h-8.43l4.22-7.3m0-6.48-9.84,17h19.67l-9.83-17Z"/><path class="cls-1" d="M1622.82,3.24v11h-11v-11h11M1626.06,0h-17.5V17.5h17.5V0Z"/><path class="cls-1" d="M1638.7,3.24a5.51,5.51,0,1,1-5.51,5.51,5.51,5.51,0,0,1,5.51-5.51m0-3.24a8.75,8.75,0,1,0,8.75,8.75A8.75,8.75,0,0,0,1638.7,0Z"/><path class="cls-1" d="M1573.88,3.24a5.51,5.51,0,1,1-5.51,5.51,5.51,5.51,0,0,1,5.51-5.51m0-3.24a8.75,8.75,0,1,0,8.75,8.75A8.75,8.75,0,0,0,1573.88,0Z"/><path class="cls-1" d="M1553.14,6.72l4.22,7.3h-8.44l4.22-7.3m0-6.48-9.83,17H1563l-9.83-17Z"/><path class="cls-1" d="M1515.87,3.24v11h-11v-11h11M1519.11,0h-17.5V17.5h17.5V0Z"/><path class="cls-1" d="M1666.25,3.24v11h-11v-11h11M1669.49,0H1652V17.5h17.5V0Z"/><path class="cls-1" d="M1532.4,3.24a5.51,5.51,0,1,1-5.51,5.51,5.51,5.51,0,0,1,5.51-5.51m0-3.24a8.75,8.75,0,1,0,8.75,8.75A8.75,8.75,0,0,0,1532.4,0Z"/><path class="cls-1" d="M1684.07,6.72l4.22,7.3h-8.43l4.21-7.3m0-6.48-9.83,17h19.67l-9.84-17Z"/><path class="cls-1" d="M1712.27,3.24v11h-11v-11h11M1715.51,0H1698V17.5h17.5V0Z"/><path class="cls-1" d="M1728.15,3.24a5.51,5.51,0,1,1-5.51,5.51,5.51,5.51,0,0,1,5.51-5.51m0-3.24a8.75,8.75,0,1,0,8.75,8.75A8.75,8.75,0,0,0,1728.15,0Z"/><path class="cls-1" d="M1833.8,6.72,1838,14h-8.43l4.21-7.3m0-6.48-9.83,17h19.66l-9.83-17Z"/><path class="cls-1" d="M1862,3.24v11h-11v-11h11M1865.24,0h-17.5V17.5h17.5V0Z"/><path class="cls-1" d="M1877.88,3.24a5.51,5.51,0,1,1-5.51,5.51,5.51,5.51,0,0,1,5.51-5.51m0-3.24a8.75,8.75,0,1,0,8.75,8.75A8.75,8.75,0,0,0,1877.88,0Z"/><path class="cls-1" d="M1813.06,3.24a5.51,5.51,0,1,1-5.51,5.51,5.51,5.51,0,0,1,5.51-5.51m0-3.24a8.75,8.75,0,1,0,8.75,8.75A8.75,8.75,0,0,0,1813.06,0Z"/><path class="cls-1" d="M1792.32,6.72l4.22,7.3h-8.44l4.22-7.3m0-6.48-9.83,17h19.66l-9.83-17Z"/><path class="cls-1" d="M1755.05,3.24v11h-11v-11h11M1758.29,0h-17.5V17.5h17.5V0Z"/><path class="cls-1" d="M1905.43,3.24v11h-11v-11h11M1908.67,0h-17.5V17.5h17.5V0Z"/><path class="cls-1" d="M1771.58,3.24a5.51,5.51,0,1,1-5.51,5.51,5.51,5.51,0,0,1,5.51-5.51m0-3.24a8.75,8.75,0,1,0,8.75,8.75A8.75,8.75,0,0,0,1771.58,0Z"/></g></g></svg>