<svg xmlns="http://www.w3.org/2000/svg" viewBox="0 0 118.25 98.04"><defs><style>.cls-1{font-size:17.11px;font-family:GameOfSquids, Game Of Squids;}.cls-2{fill:#131314;}</style></defs><g id="Layer_2" data-name="Layer 2"><g id="Layer_1-2" data-name="Layer 1"><text class="cls-1" transform="translate(0 92.7)">Workshops</text><path class="cls-2" d="M76.17,0c.32.05.65.11,1,.15a1.4,1.4,0,0,1,1.29.91A1.37,1.37,0,0,1,78,2.56c-1,.95-1.93,1.89-2.86,2.87a6.34,6.34,0,0,0,8.69,9.24c1-.95,2-2,3-3a1.52,1.52,0,0,1,1.69-.57c.66.25.81.82.89,1.48a14,14,0,0,1-2.73,10.44A14,14,0,0,1,74,28.86a21.14,21.14,0,0,1-3.32-.64.65.65,0,0,0-.72.21c-.55.57-1.11,1.13-1.62,1.63-.78-.39-1.48-.82-2.24-1.11a4.69,4.69,0,0,0-3.32.1.73.73,0,0,1-.62,0c-1.7-1.67-3.38-3.35-5.11-5.08,1.1-1.09,2.1-2.23,3.24-3.2a2.34,2.34,0,0,0,.8-2.81A14.34,14.34,0,0,1,70.78.67c1-.31,2.08-.45,3.12-.67Z"/><path class="cls-2" d="M62.33,33.5c.27-.31.54-.68.86-1a1.93,1.93,0,0,1,3,0c6,6,12,12,18,18a6.14,6.14,0,1,1-8.77,8.6C73.2,57,71,54.77,68.85,52.59L57.69,41.43c-1.23-1.23-1.23-2.2,0-3.42l.75-.73-19.7-19.7c-.19.21-.43.53-.71.79A1.92,1.92,0,0,1,35,18.13q-2.91-3.93-5.79-7.87a1.93,1.93,0,0,1,.22-2.65Q31,6,32.64,4.37a2,2,0,0,1,2.7-.2C37.93,6.07,40.53,8,43.11,9.9a1.93,1.93,0,0,1,.22,3.16c-.25.25-.55.45-.79.65Z"/><path class="cls-2" d="M48.93,32c1.77,1.77,3.46,3.46,5.13,5.15a.55.55,0,0,1,.07.46c-.81,2.34-.61,3.58.95,5.68a3.15,3.15,0,0,1-.24.3Q47.07,51.34,39.29,59.1a6.14,6.14,0,0,1-9-8.3q.21-.24.45-.48L48.62,32.38A3.33,3.33,0,0,0,48.93,32Z"/></g></g></svg>