<svg xmlns="http://www.w3.org/2000/svg" viewBox="0 0 984.5 300.09"><defs><style>.cls-1{fill:#f24687;}.cls-2{fill:#fff;}</style></defs><g id="Layer_2" data-name="Layer 2"><g id="Layer_1-2" data-name="Layer 1"><rect class="cls-1" x="227.46" y="182.68" width="84" height="84"/><path class="cls-2" d="M60,166.2h60V146.68H60a58.05,58.05,0,0,0-42.47,17.53,60.21,60.21,0,0,0,0,85A58.08,58.08,0,0,0,60,266.69h60V247.17H60a39.19,39.19,0,0,1-28.67-11.81,40.72,40.72,0,0,1,0-57.35A39.19,39.19,0,0,1,60,166.2Z"/><path class="cls-2" d="M176.2,266.69a41.8,41.8,0,0,1-29.56-71.3,41.9,41.9,0,0,1,59.11,0,41.75,41.75,0,0,1-29.55,71.3Zm0-16.7a24.92,24.92,0,1,0-17.75-7.3A24.16,24.16,0,0,0,176.2,250Z"/><path class="cls-2" d="M244.3,208.24v91.85H227.6V183.19h16.7l50.1,58.45V0h16.7V266.69H294.4Z"/><path class="cls-2" d="M370.46,199.89v100.2h-16.7V199.89h-33.4v-16.7h83.5v16.7Z"/><path class="cls-2" d="M382.47,266.69,424.22,179,466,266.69H447.18l-23-48-23,48Z"/><path class="cls-2" d="M501.85,250H560.3v16.7H501.85a41.8,41.8,0,0,1-29.56-71.3,40.29,40.29,0,0,1,29.56-12.2h66.8l-8.35,16.7H501.85a25.05,25.05,0,1,0,0,50.1Z"/><path class="cls-2" d="M622.92,199.89v100.2h-16.7V199.89h-33.4v-16.7h83.5v16.7Z"/><path class="cls-2" d="M739.82,224.94V183.19h16.7v41.75a25.05,25.05,0,1,0,50.1,0V183.19h16.7v41.75a41.75,41.75,0,1,1-83.5,0Z"/><path class="cls-2" d="M920,266.69H819.8V250H920a8.35,8.35,0,1,0,0-16.7H886.6a25.05,25.05,0,1,1,0-50.1h97.9v16.7H886.6a8.35,8.35,0,1,0,0,16.7H920a25.05,25.05,0,1,1,0,50.1Z"/></g></g></svg>